<?xml version="1.0" encoding="UTF-8" standalone="no"?>
<!-- Created with Inkscape (http://www.inkscape.org/) -->

<svg
   width="210mm"
   height="297mm"
   viewBox="0 0 210 297"
   version="1.1"
   id="svg5"
   sodipodi:docname="QuicksandLight_10pt_250um.svg"
   inkscape:version="1.2 (dc2aeda, 2022-05-15)"
   xmlns:inkscape="http://www.inkscape.org/namespaces/inkscape"
   xmlns:sodipodi="http://sodipodi.sourceforge.net/DTD/sodipodi-0.dtd"
   xmlns="http://www.w3.org/2000/svg"
   xmlns:svg="http://www.w3.org/2000/svg">
  <sodipodi:namedview
     id="namedview7"
     pagecolor="#ffffff"
     bordercolor="#000000"
     borderopacity="0.25"
     inkscape:showpageshadow="2"
     inkscape:pageopacity="0.0"
     inkscape:pagecheckerboard="0"
     inkscape:deskcolor="#d1d1d1"
     inkscape:document-units="mm"
     showgrid="false"
     inkscape:zoom="3.0289001"
     inkscape:cx="86.169894"
     inkscape:cy="51.833997"
     inkscape:window-width="1920"
     inkscape:window-height="1029"
     inkscape:window-x="0"
     inkscape:window-y="27"
     inkscape:window-maximized="1"
     inkscape:current-layer="layer1" />
  <defs
     id="defs2" />
  <g
     inkscape:label="Layer 1"
     inkscape:groupmode="layer"
     id="layer1">
    <g
       aria-label="abcdefghijklmnopqrstuvwxyz"
       id="text466"
       style="font-size:3.52777px;font-family:'Quicksand Light';-inkscape-font-specification:'Quicksand Light, Normal';stroke:#000000;stroke-width:0.25;stroke-linejoin:bevel"
       inkscape:label="lowercase">
      <path
         d="m 7.950571,6.6305128 q 0.03175,0 0.049389,0.021167 0.021167,0.021167 0.021167,0.049389 v 1.6192465 q 0,0.028222 -0.021167,0.049389 -0.021167,0.021167 -0.049389,0.021167 -0.03175,0 -0.052917,-0.021167 -0.017639,-0.021167 -0.017639,-0.049389 V 8.0028154 Q 7.7918213,8.1827317 7.6083773,8.3062036 7.4249332,8.4261478 7.2026837,8.4261478 q -0.2328328,0 -0.4198046,-0.1199442 Q 6.5959073,8.1827317 6.4900742,7.9710655 6.3842411,7.7558715 6.3842411,7.4912887 q 0,-0.2610549 0.1058331,-0.4691934 0.1093609,-0.2116662 0.2963327,-0.3280826 0.1869718,-0.1199442 0.4162768,-0.1199442 0.2293051,0 0.4127491,0.1199442 0.1834441,0.1199442 0.2645828,0.3210271 V 6.7010682 q 0,-0.028222 0.017639,-0.049389 0.021167,-0.021167 0.052917,-0.021167 z M 7.2097393,8.2920925 q 0.1940273,0 0.3492492,-0.1023053 0.1587497,-0.1058331 0.2469439,-0.2892771 0.088194,-0.1834441 0.088194,-0.4092214 0,-0.2151939 -0.088194,-0.3951102 Q 7.7177382,6.9162622 7.5589885,6.8139569 7.4037666,6.7081238 7.2097393,6.7081238 q -0.1940274,0 -0.352777,0.1023053 -0.1552219,0.098778 -0.2434162,0.2786938 -0.088194,0.1763886 -0.088194,0.4021658 0,0.2257773 0.088194,0.4092214 0.088194,0.183444 0.2434162,0.2892771 0.1552219,0.1023053 0.352777,0.1023053 z"
         id="path293" />
      <path
         d="m 9.4251764,6.5740685 q 0.2328328,0 0.4198046,0.1199442 0.186972,0.1164164 0.292805,0.3280826 0.105833,0.2081385 0.105833,0.4691934 0,0.261055 -0.109361,0.476249 -0.105833,0.2116662 -0.2928047,0.3351381 -0.1869718,0.123472 -0.4162769,0.123472 -0.2081384,0 -0.3845269,-0.1093609 Q 8.864261,8.2038983 8.7478446,8.0063432 v 0.3139715 q 0,0.028222 -0.021167,0.049389 -0.017639,0.021167 -0.049389,0.021167 -0.028222,0 -0.049389,-0.021167 -0.021167,-0.021167 -0.021167,-0.049389 V 5.8544034 q 0,-0.028222 0.017639,-0.049389 0.021167,-0.021167 0.052917,-0.021167 0.03175,0 0.049389,0.021167 0.021167,0.021167 0.021167,0.049389 V 7.0044565 Q 8.8536777,6.796318 9.0300662,6.6869572 9.2099824,6.5740685 9.4251764,6.5740685 Z m -0.00706,1.718024 q 0.1940273,0 0.3492492,-0.1058331 0.1552219,-0.1058331 0.2434159,-0.2857493 0.09172,-0.1834441 0.09172,-0.4092214 0,-0.2257772 -0.09172,-0.4021658 Q 9.922592,6.9092067 9.7673701,6.8104291 9.6121482,6.7081238 9.4181209,6.7081238 q -0.1975552,0 -0.3563048,0.1023053 -0.1552219,0.098778 -0.2434161,0.2786938 -0.084667,0.1763886 -0.084667,0.4021658 0,0.2257773 0.088194,0.4092214 0.088194,0.183444 0.2434162,0.2892771 0.1552218,0.1023053 0.352777,0.1023053 z"
         id="path295" />
      <path
         d="m 11.471281,6.5740685 q 0.151694,0 0.292804,0.035278 0.144639,0.035278 0.229306,0.09525 0.08819,0.056444 0.08819,0.1199442 0,0.028222 -0.02117,0.049389 -0.01764,0.021167 -0.04586,0.021167 -0.03175,0 -0.04939,-0.010583 -0.01411,-0.010583 -0.04233,-0.038805 -0.04586,-0.052917 -0.09525,-0.077611 -0.126999,-0.059972 -0.359832,-0.059972 -0.201083,0 -0.373944,0.1058331 -0.169333,0.1058331 -0.271638,0.2892771 -0.09878,0.1799163 -0.09878,0.3951103 0,0.2257773 0.09172,0.4092213 0.09525,0.1799163 0.264583,0.2822216 0.172861,0.1023053 0.388055,0.1023053 0.141111,0 0.222249,-0.024694 0.08114,-0.024694 0.162278,-0.070555 0.05644,-0.035278 0.09878,-0.077611 0.01764,-0.017639 0.03528,-0.028222 0.01764,-0.014111 0.03528,-0.014111 0.02822,0 0.04233,0.017639 0.01764,0.017639 0.01764,0.045861 0,0.049389 -0.08114,0.1199442 -0.08114,0.067028 -0.225777,0.1164164 -0.141111,0.049389 -0.3175,0.049389 -0.253999,0 -0.455082,-0.1199442 -0.197555,-0.1199442 -0.310444,-0.3316104 -0.10936,-0.2116662 -0.10936,-0.4762489 0,-0.2469439 0.10936,-0.4586101 0.112889,-0.2116662 0.313972,-0.338666 0.204611,-0.1269997 0.465666,-0.1269997 z"
         id="path297" />
      <path
         d="m 13.958353,5.7803203 q 0.03175,0 0.04939,0.021167 0.02117,0.021167 0.02117,0.049389 v 2.469439 q 0,0.028222 -0.02117,0.049389 -0.02117,0.021167 -0.04939,0.021167 -0.03175,0 -0.05292,-0.021167 -0.01764,-0.021167 -0.01764,-0.049389 V 7.9851765 q -0.08467,0.1869719 -0.26811,0.3139716 -0.183445,0.1269997 -0.409222,0.1269997 -0.229305,0 -0.416277,-0.1199442 -0.186971,-0.1234719 -0.296332,-0.3351381 -0.105833,-0.2116662 -0.105833,-0.4727212 0,-0.261055 0.105833,-0.4727212 0.109361,-0.2116662 0.296332,-0.3316104 0.186972,-0.1199442 0.416277,-0.1199442 0.218722,0 0.405694,0.123472 0.186972,0.1234719 0.271638,0.321027 V 5.8508757 q 0,-0.028222 0.01764,-0.049389 0.02117,-0.021167 0.05292,-0.021167 z m -0.740831,2.5117722 q 0.197555,0 0.352777,-0.1023053 0.155222,-0.1023053 0.243416,-0.2822216 0.08819,-0.183444 0.08819,-0.4092213 0,-0.2257773 -0.08819,-0.4056936 -0.08819,-0.1799163 -0.246944,-0.2822216 -0.155222,-0.1023053 -0.349249,-0.1023053 -0.1905,0 -0.349249,0.1023053 -0.155222,0.1023053 -0.246944,0.2857494 -0.08819,0.1799163 -0.08819,0.4021658 0,0.2257773 0.08819,0.4056935 0.09172,0.1799163 0.246944,0.2857494 0.155221,0.1023053 0.349249,0.1023053 z"
         id="path299" />
      <path
         d="m 16.007985,7.9675377 q 0.02469,0 0.04233,0.021167 0.01764,0.017639 0.01764,0.042333 0,0.024694 -0.01411,0.042333 -0.116416,0.1552219 -0.289277,0.2539994 -0.172861,0.098778 -0.370416,0.098778 -0.264583,0 -0.469193,-0.1128886 -0.204611,-0.1128887 -0.321027,-0.3210271 -0.112889,-0.2081385 -0.112889,-0.4833045 0,-0.2822216 0.109361,-0.4938878 0.112889,-0.215194 0.296333,-0.3280826 0.183444,-0.1128887 0.391582,-0.1128887 0.208138,0 0.384527,0.091722 0.179916,0.088194 0.292805,0.2681106 0.112889,0.1799162 0.119944,0.444499 0,0.028222 -0.02117,0.052916 -0.02117,0.021167 -0.04939,0.021167 h -1.386414 v 0.045861 q 0,0.2187217 0.08819,0.4021658 0.0882,0.1799162 0.261055,0.2857493 0.172861,0.1058331 0.416277,0.1058331 0.169333,0 0.317499,-0.081139 0.151695,-0.084667 0.236361,-0.2116662 0.02469,-0.03175 0.05997,-0.03175 z M 15.28832,6.7151793 q -0.130527,0 -0.26811,0.070555 -0.134056,0.067028 -0.239889,0.2046107 -0.102305,0.1340552 -0.137583,0.3280826 h 1.29822 v -0.03175 Q 15.923319,7.1067618 15.824541,6.9797621 15.729291,6.8492346 15.584653,6.782207 15.443542,6.7151793 15.28832,6.7151793 Z"
         id="path301" />
      <path
         d="m 17.260338,6.6516795 q 0.02822,0 0.04586,0.021167 0.02117,0.017639 0.02117,0.045861 0,0.028222 -0.02117,0.049389 -0.01764,0.017639 -0.04586,0.017639 h -0.416277 v 1.53458 q 0,0.028222 -0.02117,0.049389 -0.02117,0.021167 -0.04939,0.021167 -0.03175,0 -0.05292,-0.021167 -0.01764,-0.021167 -0.01764,-0.049389 v -1.53458 h -0.282221 q -0.0247,0 -0.04586,-0.021167 -0.02117,-0.021167 -0.02117,-0.045861 0,-0.03175 0.01764,-0.049389 0.02117,-0.017639 0.04939,-0.017639 h 0.282221 v -0.430388 q 0,-0.2081384 0.109361,-0.3139715 0.112889,-0.1093609 0.285749,-0.1093609 0.08819,0 0.165806,0.024694 0.08114,0.021167 0.08114,0.074083 0,0.028222 -0.02117,0.049389 -0.02117,0.021167 -0.04586,0.021167 -0.02822,0 -0.07408,-0.017639 -0.08114,-0.024694 -0.119944,-0.024694 -0.109361,0 -0.176388,0.074083 -0.0635,0.074083 -0.0635,0.2222495 v 0.430388 z"
         id="path303" />
      <path
         d="m 19.232358,6.6305128 q 0.03175,0 0.04939,0.021167 0.02117,0.021167 0.02117,0.049389 v 1.5169412 q 0,0.2681105 -0.109361,0.4656656 -0.109361,0.1975551 -0.306916,0.3033882 -0.197555,0.1093609 -0.451554,0.1093609 -0.141111,0 -0.28575,-0.038806 -0.144638,-0.035278 -0.239888,-0.09525 -0.09172,-0.056444 -0.09172,-0.1164164 0,-0.028222 0.01411,-0.045861 0.01764,-0.017639 0.04586,-0.017639 0.02117,0 0.0635,0.035278 0.04939,0.049389 0.109361,0.074083 0.17286,0.070555 0.391582,0.070555 0.331611,0 0.525638,-0.2046106 0.194027,-0.2046107 0.194027,-0.5397488 V 7.9745932 q -0.09525,0.2257773 -0.296332,0.338666 -0.197556,0.1128886 -0.416277,0.1128886 -0.239889,0 -0.437444,-0.1199442 -0.194027,-0.1234719 -0.306916,-0.3351381 -0.109361,-0.2116662 -0.109361,-0.4727212 0,-0.261055 0.109361,-0.4727212 0.112889,-0.2116662 0.306916,-0.3316104 0.197555,-0.1199442 0.437444,-0.1199442 0.23636,0 0.430388,0.1269997 0.197555,0.123472 0.282221,0.2998605 V 6.7010682 q 0,-0.028222 0.01764,-0.049389 0.02117,-0.021167 0.05292,-0.021167 z m -0.77611,1.6615797 q 0.204611,0 0.366888,-0.098778 0.165805,-0.1023054 0.257528,-0.2822216 0.09525,-0.1799163 0.09525,-0.4127491 0,-0.2328328 -0.09525,-0.4127491 -0.09172,-0.1799163 -0.257528,-0.2786939 -0.162277,-0.098777 -0.366888,-0.098777 -0.20461,0 -0.370416,0.1023053 -0.162277,0.1023053 -0.257527,0.2822216 -0.09172,0.1799163 -0.09172,0.4056936 0,0.2257773 0.09172,0.4056935 0.09525,0.1799163 0.257527,0.2857494 0.165806,0.1023053 0.370416,0.1023053 z"
         id="path305" />
      <path
         d="m 20.657576,6.6093462 q 0.303388,0 0.465665,0.1940274 0.162278,0.1904996 0.162278,0.4868322 v 1.0301089 q 0,0.028222 -0.02117,0.049389 -0.02117,0.021167 -0.04939,0.021167 -0.03175,0 -0.05292,-0.021167 -0.01764,-0.021167 -0.01764,-0.049389 V 7.2902058 q 0,-0.2434161 -0.119944,-0.3951102 -0.119944,-0.1516941 -0.366888,-0.1516941 -0.151694,0 -0.299861,0.074083 -0.144638,0.074083 -0.23636,0.2010828 -0.09172,0.1269998 -0.09172,0.2716383 v 1.0301089 q 0,0.028222 -0.02117,0.049389 -0.02117,0.021167 -0.04939,0.021167 -0.03175,0 -0.05292,-0.021167 -0.01764,-0.021167 -0.01764,-0.049389 v -2.469439 q 0,-0.028222 0.02117,-0.049389 0.02117,-0.021167 0.04939,-0.021167 0.03175,0 0.04939,0.021167 0.02117,0.021167 0.02117,0.049389 V 6.965651 q 0.09878,-0.1552219 0.271638,-0.2539994 0.176388,-0.1023054 0.356305,-0.1023054 z"
         id="path307" />
      <path
         d="m 22.012234,8.3203147 q 0,0.028222 -0.02117,0.049389 -0.02117,0.021167 -0.04939,0.021167 -0.03175,0 -0.05292,-0.021167 -0.01764,-0.021167 -0.01764,-0.049389 V 6.6446239 q 0,-0.028222 0.02117,-0.049389 0.02117,-0.021167 0.04939,-0.021167 0.03175,0 0.04939,0.021167 0.02117,0.021167 0.02117,0.049389 z m -0.07056,-1.9861345 q -0.05644,0 -0.09172,-0.03175 -0.03175,-0.03175 -0.03175,-0.081139 v -0.028222 q 0,-0.049389 0.03528,-0.081139 0.03528,-0.03175 0.09172,-0.03175 0.04939,0 0.08114,0.03175 0.03528,0.03175 0.03528,0.081139 v 0.028222 q 0,0.049389 -0.03528,0.081139 -0.03175,0.03175 -0.08467,0.03175 z"
         id="path309" />
      <path
         d="m 22.301508,9.0893686 q -0.03175,0 -0.04939,-0.017639 -0.01764,-0.017639 -0.01764,-0.045861 v -0.00706 q 0,-0.024694 0.01764,-0.045861 0.01764,-0.017639 0.04586,-0.021167 0.137583,-0.021167 0.239888,-0.1093608 0.105833,-0.088194 0.105833,-0.2469439 V 6.6975405 q 0,-0.028222 0.01764,-0.049389 0.02117,-0.021167 0.05292,-0.021167 0.03175,0 0.04939,0.021167 0.02117,0.021167 0.02117,0.049389 v 1.8979403 q 0,0.1481663 -0.07761,0.2610549 -0.07761,0.1128887 -0.1905,0.1728608 -0.112888,0.059972 -0.215194,0.059972 z m 0.412749,-2.7587162 q -0.05644,0 -0.09172,-0.03175 -0.03175,-0.03175 -0.03175,-0.081139 v -0.028222 q 0,-0.049389 0.03528,-0.081139 0.03528,-0.03175 0.09172,-0.03175 0.04939,0 0.08114,0.03175 0.03528,0.03175 0.03528,0.081139 v 0.028222 q 0,0.049389 -0.03528,0.081139 -0.03175,0.03175 -0.08467,0.03175 z"
         id="path311" />
      <path
         d="m 24.926169,8.2673981 q 0.02117,0.021167 0.02117,0.052917 0,0.03175 -0.02822,0.052916 -0.02469,0.017639 -0.04233,0.017639 -0.02822,0 -0.05292,-0.024694 L 23.998366,7.487761 23.702033,7.7347049 v 0.5856098 q 0,0.028222 -0.02117,0.049389 -0.01764,0.021167 -0.04939,0.021167 -0.03175,0 -0.05292,-0.021167 -0.01764,-0.021167 -0.01764,-0.049389 v -2.469439 q 0,-0.028222 0.01764,-0.049389 0.02117,-0.021167 0.05292,-0.021167 0.03175,0 0.04939,0.021167 0.02117,0.021167 0.02117,0.049389 v 1.7074407 l 1.10772,-0.9278036 q 0.02117,-0.021167 0.04586,-0.021167 0.02822,0 0.04939,0.021167 0.02117,0.021167 0.02117,0.052917 0,0.03175 -0.02469,0.052917 l -0.793749,0.659693 z"
         id="path313" />
      <path
         d="m 25.532935,8.3203147 q 0,0.028222 -0.02117,0.049389 -0.02117,0.021167 -0.04939,0.021167 -0.03175,0 -0.05292,-0.021167 -0.01764,-0.021167 -0.01764,-0.049389 v -2.469439 q 0,-0.028222 0.02117,-0.049389 0.02117,-0.021167 0.04939,-0.021167 0.03175,0 0.04939,0.021167 0.02117,0.021167 0.02117,0.049389 z"
         id="path315" />
      <path
         d="m 28.139956,6.6093462 q 0.303388,0 0.45861,0.1904996 0.15875,0.1904996 0.15875,0.4938878 v 1.0265811 q 0,0.028222 -0.02117,0.049389 -0.01764,0.021167 -0.04939,0.021167 -0.03175,0 -0.05292,-0.021167 -0.01764,-0.021167 -0.01764,-0.049389 v -1.01247 q 0,-0.2504717 -0.123472,-0.4056936 -0.119944,-0.1587496 -0.366888,-0.1587496 -0.151694,0 -0.299861,0.077611 -0.144638,0.077611 -0.23636,0.2081385 -0.09172,0.1269997 -0.09172,0.2786938 v 1.01247 q 0,0.028222 -0.02117,0.049389 -0.01764,0.021167 -0.04939,0.021167 -0.03175,0 -0.05292,-0.021167 -0.01764,-0.021167 -0.01764,-0.049389 V 7.2902058 q 0,-0.2434161 -0.116416,-0.3951102 -0.116417,-0.1516941 -0.352777,-0.1516941 -0.148167,0 -0.289278,0.074083 -0.14111,0.074083 -0.232832,0.2010828 -0.08819,0.1269998 -0.08819,0.2716383 v 1.0301089 q 0,0.028222 -0.02117,0.049389 -0.02117,0.021167 -0.04939,0.021167 -0.03175,0 -0.05292,-0.021167 -0.01764,-0.021167 -0.01764,-0.049389 V 6.7010682 q 0,-0.028222 0.02117,-0.049389 0.02117,-0.021167 0.04939,-0.021167 0.03175,0 0.04939,0.021167 0.02117,0.021167 0.02117,0.049389 v 0.2469439 q 0.102306,-0.1481663 0.264583,-0.2434161 0.165805,-0.09525 0.345722,-0.09525 0.194027,0 0.345721,0.098778 0.151694,0.098777 0.222249,0.2892771 0.07408,-0.1622774 0.278694,-0.275166 0.208139,-0.1128887 0.405694,-0.1128887 z"
         id="path317" />
      <path
         d="m 30.143724,6.5740685 q 0.313971,0 0.472721,0.1869718 0.15875,0.1834441 0.15875,0.4797768 v 1.0794976 q 0,0.028222 -0.02117,0.049389 -0.02117,0.021167 -0.04939,0.021167 -0.03175,0 -0.05292,-0.021167 -0.01764,-0.021167 -0.01764,-0.049389 V 7.2549281 q 0,-0.2398883 -0.127,-0.3915824 -0.123472,-0.1552219 -0.377471,-0.1552219 -0.155222,0 -0.306916,0.074083 -0.148167,0.074083 -0.243416,0.2010828 -0.09525,0.1269998 -0.09525,0.2716383 v 1.0653866 q 0,0.028222 -0.02117,0.049389 -0.02117,0.021167 -0.04939,0.021167 -0.03175,0 -0.05292,-0.021167 -0.01764,-0.021167 -0.01764,-0.049389 V 6.7010682 q 0,-0.028222 0.02117,-0.049389 0.02117,-0.021167 0.04939,-0.021167 0.03175,0 0.04939,0.021167 0.02117,0.021167 0.02117,0.049389 V 6.9374288 Q 29.586336,6.7786792 29.76978,6.6763739 29.956752,6.5740685 30.143724,6.5740685 Z"
         id="path319" />
      <path
         d="m 32.976518,7.501872 q 0,0.261055 -0.112888,0.4727212 -0.112889,0.2081385 -0.313972,0.3316104 -0.197555,0.1199442 -0.440971,0.1199442 -0.243416,0 -0.444499,-0.1199442 Q 31.466633,8.1827317 31.350216,7.9710655 31.237328,7.7593993 31.237328,7.501872 q 0,-0.2610549 0.112888,-0.4727211 0.116417,-0.2116662 0.313972,-0.3316104 0.197555,-0.123472 0.444499,-0.123472 0.243416,0 0.440971,0.123472 0.201083,0.1199442 0.313972,0.3316104 0.112888,0.2116662 0.112888,0.4727211 z m -0.141111,0 q 0,-0.2257772 -0.09525,-0.4056935 -0.09172,-0.1799163 -0.257528,-0.2822216 -0.165805,-0.1058331 -0.373943,-0.1058331 -0.204611,0 -0.373944,0.1058331 -0.165805,0.1023053 -0.261055,0.2822216 -0.09525,0.1799163 -0.09525,0.4056935 0,0.2222496 0.09525,0.4021658 0.09525,0.1799163 0.261055,0.2857494 0.169333,0.1023053 0.373944,0.1023053 0.208138,0 0.373943,-0.1023053 0.165806,-0.1023053 0.257528,-0.2822216 0.09525,-0.183444 0.09525,-0.4056936 z"
         id="path321" />
      <path
         d="m 34.257094,6.6093462 q 0.232833,0 0.419805,0.1164164 0.186972,0.1164164 0.292805,0.3210271 0.105833,0.2046107 0.105833,0.4621379 0,0.2539994 -0.109361,0.4621379 -0.105833,0.2046106 -0.292805,0.3245548 -0.186972,0.1164164 -0.416277,0.1164164 -0.211666,0 -0.388054,-0.1058331 -0.176389,-0.1058331 -0.289277,-0.2998604 v 1.0195255 q 0,0.028222 -0.02117,0.049389 -0.01764,0.021167 -0.04939,0.021167 -0.02822,0 -0.04939,-0.021167 -0.02117,-0.021167 -0.02117,-0.049389 V 6.6799016 q 0,-0.028222 0.01764,-0.049389 0.02117,-0.021167 0.05292,-0.021167 0.03175,0 0.04939,0.021167 0.02117,0.021167 0.02117,0.049389 v 0.3245549 q 0.105833,-0.2010829 0.282221,-0.2963327 0.176389,-0.098778 0.39511,-0.098778 z m -0.0071,1.6686353 q 0.194027,0 0.349249,-0.098778 0.155222,-0.098778 0.243416,-0.2751661 0.09172,-0.1763885 0.09172,-0.3951102 0,-0.2187218 -0.09172,-0.3915825 -0.08819,-0.1763885 -0.243416,-0.2751661 -0.155222,-0.098777 -0.349249,-0.098777 -0.197555,0 -0.356305,0.098777 -0.155222,0.09525 -0.243416,0.2716383 -0.08467,0.1728608 -0.08467,0.3951103 0,0.2222495 0.08467,0.398638 0.08819,0.1728607 0.243416,0.2716383 0.15875,0.098778 0.356305,0.098778 z"
         id="path323" />
      <path
         d="m 36.98053,6.6093462 q 0.03175,0 0.04939,0.021167 0.02117,0.021167 0.02117,0.049389 v 2.3459671 q 0,0.028222 -0.02117,0.049389 -0.02117,0.021167 -0.04939,0.021167 -0.03175,0 -0.05292,-0.021167 -0.01764,-0.021167 -0.01764,-0.049389 V 7.9851765 q -0.08467,0.1869719 -0.26811,0.3139716 -0.183444,0.1269997 -0.409222,0.1269997 -0.229305,0 -0.416276,-0.1199442 Q 35.629394,8.1827317 35.520033,7.9710655 35.4142,7.7593993 35.4142,7.4983443 q 0,-0.261055 0.105833,-0.4727212 0.109361,-0.2116662 0.296333,-0.3316104 0.186971,-0.1199442 0.416276,-0.1199442 0.218722,0 0.405694,0.123472 0.186972,0.1234719 0.271638,0.321027 V 6.6799016 q 0,-0.028222 0.01764,-0.049389 0.02117,-0.021167 0.05292,-0.021167 z m -0.740832,1.6827463 q 0.197555,0 0.352777,-0.1023053 0.155222,-0.1023053 0.243416,-0.2822216 0.08819,-0.183444 0.08819,-0.4092213 0,-0.2257773 -0.08819,-0.4056936 -0.08819,-0.1799163 -0.246944,-0.2822216 -0.155222,-0.1023053 -0.349249,-0.1023053 -0.1905,0 -0.349249,0.1023053 -0.155222,0.1023053 -0.246944,0.2857494 -0.08819,0.1799163 -0.08819,0.4021658 0,0.2257773 0.08819,0.4056935 0.09172,0.1799163 0.246944,0.2857494 0.155222,0.1023053 0.349249,0.1023053 z"
         id="path325" />
      <path
         d="m 38.43397,6.5740685 q 0.162277,0 0.162277,0.081139 0,0.03175 -0.01764,0.052917 -0.01764,0.021167 -0.04586,0.021167 -0.01058,0 -0.05292,-0.014111 -0.03881,-0.017639 -0.08467,-0.017639 -0.144638,0 -0.289277,0.1164164 -0.144638,0.1128886 -0.236361,0.2892771 -0.09172,0.1728608 -0.09172,0.3351382 v 0.8819425 q 0,0.028222 -0.02117,0.049389 -0.02117,0.021167 -0.04939,0.021167 -0.03175,0 -0.05292,-0.021167 -0.01764,-0.021167 -0.01764,-0.049389 V 6.7010682 q 0,-0.028222 0.02117,-0.049389 0.02117,-0.021167 0.04939,-0.021167 0.03175,0 0.04939,0.021167 0.02117,0.021167 0.02117,0.049389 v 0.3739437 q 0.08114,-0.215194 0.250472,-0.3563048 0.172861,-0.1411108 0.405694,-0.1446386 z"
         id="path327" />
      <path
         d="m 38.836128,8.1086485 q -0.02469,-0.038805 -0.02469,-0.067028 0,-0.024694 0.02822,-0.045861 0.01764,-0.017639 0.04233,-0.017639 0.03528,0 0.05644,0.028222 0.204611,0.2928049 0.571499,0.2928049 0.186972,0 0.328083,-0.091722 0.141111,-0.09525 0.141111,-0.2539995 0,-0.1622774 -0.123472,-0.2434161 -0.123472,-0.081139 -0.338666,-0.1340553 -0.28575,-0.070555 -0.451555,-0.1869718 -0.162277,-0.1199442 -0.162277,-0.3351382 0,-0.2081384 0.165805,-0.3421936 0.165805,-0.1375831 0.42686,-0.1375831 0.144639,0 0.28575,0.056444 0.144638,0.056444 0.261055,0.1799163 0.02469,0.021167 0.02469,0.049389 0,0.03175 -0.02469,0.056444 -0.02822,0.014111 -0.04586,0.014111 -0.0247,0 -0.04233,-0.021167 -0.183444,-0.2010829 -0.472721,-0.2010829 -0.186972,0 -0.317499,0.091722 -0.127,0.091722 -0.127,0.2539994 0.01058,0.1516942 0.137583,0.2363606 0.130528,0.081139 0.380999,0.1446386 0.179917,0.045861 0.296333,0.1023053 0.119944,0.052917 0.1905,0.1516942 0.07055,0.098777 0.07055,0.2575272 0,0.2222495 -0.172861,0.352777 -0.169333,0.1269997 -0.444499,0.1269997 -0.402166,0 -0.659693,-0.3174993 z"
         id="path329" />
      <path
         d="m 41.231479,6.6164018 q 0.02469,0 0.04586,0.021167 0.02117,0.021167 0.02117,0.045861 0,0.028222 -0.02117,0.049389 -0.01764,0.017639 -0.04586,0.017639 h -0.388055 v 1.2558862 q 0,0.1552218 0.05292,0.2081384 0.05644,0.049389 0.141111,0.049389 0.01411,0 0.03881,-0.00706 0.02822,-0.00706 0.04586,-0.00706 0.02469,0 0.04233,0.021167 0.01764,0.017639 0.01764,0.042333 0,0.03175 -0.04233,0.056444 -0.04233,0.021167 -0.09878,0.021167 -0.08819,0 -0.148166,-0.010583 -0.05997,-0.014111 -0.127,-0.09525 -0.0635,-0.084667 -0.0635,-0.2716383 V 6.750457 h -0.289277 q -0.0247,0 -0.04586,-0.021167 -0.02117,-0.021167 -0.02117,-0.045861 0,-0.028222 0.01764,-0.045861 0.02117,-0.021167 0.04939,-0.021167 h 0.289277 V 6.168375 q 0,-0.028222 0.02117,-0.049389 0.02117,-0.021167 0.04939,-0.021167 0.03175,0 0.04939,0.021167 0.02117,0.021167 0.02117,0.049389 v 0.4480268 z"
         id="path331" />
      <path
         d="m 43.020059,6.6305128 q 0.03175,0 0.04939,0.021167 0.02117,0.021167 0.02117,0.049389 v 1.0265811 q 0,0.3351382 -0.1905,0.5115267 -0.186972,0.1728607 -0.511527,0.1728607 -0.324554,0 -0.511526,-0.1728607 Q 41.69009,8.0627875 41.69009,7.7276493 V 6.7010682 q 0,-0.028222 0.02117,-0.049389 0.02117,-0.021167 0.04939,-0.021167 0.03175,0 0.04939,0.021167 0.02117,0.021167 0.02117,0.049389 v 1.0265811 q 0,0.2645828 0.148166,0.4092214 0.148166,0.1411108 0.409221,0.1411108 0.264583,0 0.412749,-0.1411108 0.148167,-0.1446386 0.148167,-0.4092214 V 6.7010682 q 0,-0.028222 0.01764,-0.049389 0.02117,-0.021167 0.05292,-0.021167 z"
         id="path333" />
      <path
         d="m 45.009721,6.567013 q 0.02117,0 0.04233,0.017639 0.02469,0.014111 0.02469,0.038806 0,0.021167 -0.01058,0.042333 l -0.702026,1.6792186 q -0.0071,0.021167 -0.02822,0.035278 -0.01764,0.010583 -0.0388,0.010583 -0.02117,0 -0.04233,-0.010583 -0.01764,-0.014111 -0.0247,-0.035278 L 43.524529,6.6693183 q -0.0071,-0.021167 -0.0071,-0.03175 0,-0.028222 0.01764,-0.049389 0.02117,-0.021167 0.05644,-0.021167 0.01764,0 0.03528,0.014111 0.02117,0.010583 0.02822,0.03175 l 0.638526,1.53458 0.642054,-1.53458 q 0.01764,-0.045861 0.07408,-0.045861 z"
         id="path335" />
      <path
         d="m 47.634378,6.567013 q 0.03175,0 0.05292,0.017639 0.02117,0.017639 0.02117,0.049389 l -0.0071,0.035278 -0.546804,1.6756908 q -0.02117,0.045861 -0.06703,0.045861 -0.04233,0 -0.06703,-0.045861 l -0.511527,-1.1535808 -0.45861,1.1535808 q -0.0071,0.021167 -0.02822,0.035278 -0.01764,0.010583 -0.03881,0.010583 -0.02117,0 -0.04233,-0.010583 -0.01764,-0.014111 -0.02469,-0.035278 l -0.564444,-1.6756908 -0.0071,-0.035278 q 0,-0.03175 0.02117,-0.049389 0.02117,-0.017639 0.05292,-0.017639 0.04586,0 0.0635,0.045861 l 0.497416,1.5381077 0.469193,-1.1606363 q 0.0071,-0.021167 0.02469,-0.03175 0.02117,-0.014111 0.04233,-0.014111 0.02117,0 0.0388,0.014111 0.02117,0.010583 0.02822,0.03175 l 0.497416,1.150053 0.49036,-1.5275244 q 0.01764,-0.045861 0.0635,-0.045861 z"
         id="path337" />
      <path
         d="m 49.387673,8.2920925 q 0.01411,0.017639 0.01411,0.042333 0,0.028222 -0.02117,0.049389 -0.01764,0.021167 -0.04586,0.021167 -0.03175,0 -0.05997,-0.03175 L 48.69623,7.6182885 48.114148,8.376759 q -0.02117,0.028222 -0.05644,0.028222 -0.02822,0 -0.04939,-0.017639 -0.01764,-0.017639 -0.01764,-0.049389 0,-0.024694 0.01411,-0.042333 L 48.611564,7.5089276 47.997732,6.7081238 q -0.01411,-0.017639 -0.01411,-0.042333 0,-0.03175 0.02117,-0.052917 0.0247,-0.021167 0.05292,-0.021167 0.03528,0 0.05644,0.03175 l 0.58561,0.7655261 0.575026,-0.7655261 q 0.02822,-0.03175 0.05997,-0.03175 0.03175,0 0.04939,0.017639 0.01764,0.017639 0.01764,0.042333 0,0.021167 -0.01764,0.045861 L 48.784424,7.501872 Z"
         id="path339" />
      <path
         d="m 51.165671,6.5740685 q 0.03175,0 0.04939,0.021167 0.02117,0.021167 0.02117,0.049389 v 1.5733855 q 0,0.2645827 -0.109361,0.4621378 -0.105833,0.2010829 -0.296332,0.306916 -0.186972,0.1093609 -0.42686,0.1093609 -0.155222,0 -0.28575,-0.038806 -0.127,-0.035278 -0.215194,-0.09525 -0.0635,-0.042333 -0.03881,-0.09525 0.02469,-0.042333 0.05997,-0.042333 0.01764,0 0.03175,0.010583 0.08467,0.052917 0.201083,0.091722 0.119944,0.042333 0.253999,0.042333 0.201083,0 0.356305,-0.09525 0.155222,-0.09525 0.239888,-0.2681105 0.08819,-0.169333 0.08819,-0.3880547 V 8.0592597 q -0.08114,0.1587497 -0.261055,0.2645828 -0.176388,0.1023053 -0.366888,0.1023053 -0.317499,0 -0.472721,-0.1799163 -0.155222,-0.183444 -0.155222,-0.5009433 V 6.6446239 q 0,-0.028222 0.01764,-0.049389 0.02117,-0.021167 0.05292,-0.021167 0.03175,0 0.04939,0.021167 0.02117,0.021167 0.02117,0.049389 v 1.1006643 q 0,0.5468043 0.486832,0.5468043 0.151694,0 0.296333,-0.077611 0.148166,-0.081139 0.239888,-0.2081384 0.09172,-0.1269998 0.09172,-0.261055 V 6.6446239 q 0,-0.028222 0.01764,-0.049389 0.02117,-0.021167 0.05292,-0.021167 z"
         id="path341" />
      <path
         d="m 53.035383,6.6446239 q 0,0.024694 -0.01764,0.049389 l -1.114776,1.5628021 h 1.026581 q 0.02822,0 0.04939,0.021167 0.02117,0.021167 0.02117,0.045861 0,0.028222 -0.02117,0.049389 -0.02117,0.017639 -0.04939,0.017639 h -1.150053 q -0.03175,0 -0.05292,-0.024694 -0.02117,-0.024694 -0.02117,-0.045861 0,-0.021167 0.01764,-0.045861 L 52.837828,6.7081238 H 51.88533 q -0.02822,0 -0.04939,-0.017639 -0.02117,-0.021167 -0.02117,-0.049389 0,-0.028222 0.02117,-0.045861 0.02117,-0.021167 0.04939,-0.021167 h 1.079498 q 0.02822,0 0.04586,0.021167 0.02117,0.021167 0.02469,0.049389 z"
         id="path343" />
    </g>
    <g
       aria-label="ABCDEFGHIJKLMNOPQRSTUVWXYZ"
       id="text520"
       style="font-size:3.52777px;font-family:'Quicksand Light';-inkscape-font-specification:'Quicksand Light, Normal';stroke:#000000;stroke-width:0.25;stroke-linejoin:bevel"
       inkscape:label="uppercase">
      <path
         d="m 8.3554223,14.63961 q 0.00353,0.01058 0.00353,0.02822 0,0.03175 -0.021167,0.04939 -0.021167,0.01764 -0.052916,0.01764 -0.024694,0 -0.045861,-0.01058 -0.017639,-0.01411 -0.024694,-0.03528 l -0.2963327,-0.72672 0.00353,0.0071 H 6.7397036 l -0.2857494,0.719665 q -0.017639,0.04586 -0.0635,0.04586 -0.03175,0 -0.052917,-0.01764 -0.017639,-0.01764 -0.021167,-0.04233 -0.00353,-0.01411 0.00353,-0.03528 l 0.9489702,-2.335384 q 0.010583,-0.02822 0.024694,-0.03528 0.017639,-0.01058 0.042333,-0.01058 0.052917,0 0.070555,0.04586 z M 6.7961479,13.828223 h 1.0689143 l -0.5397488,-1.32997 z"
         id="path346" />
      <path
         d="m 10.101662,13.443696 q 0.225778,0.04233 0.359833,0.20461 0.137583,0.162278 0.137583,0.419805 0,0.321027 -0.204611,0.493888 -0.201083,0.17286 -0.5150541,0.17286 H 8.9057483 q -0.028222,0 -0.049389,-0.02117 -0.021167,-0.02117 -0.021167,-0.04939 v -2.328328 q 0,-0.02822 0.021167,-0.04939 0.021167,-0.02117 0.049389,-0.02117 h 0.9489702 q 0.2822215,0 0.4515545,0.162278 0.169333,0.162277 0.169333,0.437443 0,0.197555 -0.09878,0.359833 -0.09878,0.15875 -0.275166,0.218722 z m 0.225778,-0.582082 q 0,-0.208139 -0.130528,-0.331611 -0.127,-0.123472 -0.3598324,-0.123472 H 8.9833593 v 0.991304 h 0.8537203 q 0.2187214,-0.0035 0.3527774,-0.141111 0.137583,-0.141111 0.137583,-0.39511 z m -0.465666,1.732135 q 0.264583,0 0.42686,-0.130528 0.162278,-0.134055 0.162278,-0.39511 0,-0.261055 -0.162278,-0.391583 -0.162277,-0.134055 -0.42686,-0.134055 H 8.9833593 v 1.051276 z"
         id="path348" />
      <path
         d="m 12.955627,12.470031 q 0.03175,0.02469 0.03175,0.05644 0,0.02822 -0.01411,0.04586 -0.02117,0.02822 -0.05292,0.02822 -0.01411,0 -0.04233,-0.01411 -0.328083,-0.22225 -0.694971,-0.22225 -0.296332,0 -0.546804,0.148166 -0.246944,0.144639 -0.391583,0.405694 -0.144638,0.257527 -0.144638,0.582082 0,0.324555 0.144638,0.58561 0.144639,0.257527 0.391583,0.405693 0.250472,0.144639 0.546804,0.144639 0.370416,0 0.691443,-0.218722 0.01764,-0.01411 0.04233,-0.01411 0.03528,0 0.05645,0.02822 0.01411,0.01764 0.01411,0.04233 0,0.03528 -0.02822,0.05645 -0.137583,0.09878 -0.356305,0.169333 -0.215194,0.07056 -0.419805,0.07056 -0.335138,0 -0.617359,-0.165805 -0.282222,-0.165805 -0.448027,-0.455082 -0.165805,-0.292805 -0.165805,-0.64911 0,-0.356305 0.165805,-0.645582 0.165805,-0.292805 0.448027,-0.45861 0.282221,-0.165805 0.617359,-0.165805 0.211666,0 0.409222,0.0635 0.201082,0.0635 0.36336,0.176388 z"
         id="path350" />
      <path
         d="m 14.451397,12.26542 q 0.338666,0 0.567971,0.169333 0.232833,0.169333 0.342193,0.451555 0.112889,0.278694 0.112889,0.613832 0,0.349249 -0.112889,0.627943 -0.10936,0.278694 -0.338666,0.444499 -0.229305,0.162277 -0.571498,0.162277 h -0.91722 q -0.02822,0 -0.04939,-0.02117 -0.02117,-0.02117 -0.02117,-0.04939 v -2.328328 q 0,-0.02822 0.02117,-0.04939 0.02117,-0.02117 0.04939,-0.02117 z m -0.03528,2.328329 q 0.45861,0 0.684387,-0.299861 0.225778,-0.303388 0.225778,-0.793748 0,-0.299861 -0.09878,-0.546804 -0.09525,-0.250472 -0.29986,-0.398638 -0.201083,-0.148167 -0.511527,-0.148167 h -0.804332 v 2.187218 z"
         id="path352" />
      <path
         d="m 17.404138,14.593749 q 0.02822,0 0.04939,0.02117 0.02117,0.02117 0.02117,0.04939 0,0.03175 -0.02117,0.05292 -0.02117,0.01764 -0.04939,0.01764 h -1.329969 q -0.02822,0 -0.04939,-0.02117 -0.02117,-0.02117 -0.02117,-0.04939 v -2.328328 q 0,-0.02822 0.02117,-0.04939 0.02117,-0.02117 0.04939,-0.02117 h 1.329969 q 0.02822,0 0.04939,0.02117 0.02117,0.02117 0.02117,0.04939 0,0.03175 -0.02117,0.05292 -0.02117,0.01764 -0.04939,0.01764 H 16.15178 v 0.984248 h 1.093609 q 0.02822,0 0.04939,0.02117 0.02117,0.02117 0.02117,0.04939 0,0.03175 -0.02117,0.05292 -0.02117,0.01764 -0.04939,0.01764 H 16.15178 v 1.061859 z"
         id="path354" />
      <path
         d="m 19.404382,12.26542 q 0.02822,0 0.04939,0.02117 0.02117,0.02117 0.02117,0.04939 0,0.03175 -0.02117,0.05292 -0.02117,0.01764 -0.04939,0.01764 h -1.259414 v 0.973665 h 1.100665 q 0.02822,0 0.04939,0.02117 0.02117,0.02117 0.02117,0.04939 0,0.03175 -0.02117,0.05292 -0.02117,0.01764 -0.04939,0.01764 h -1.100665 v 1.142997 q 0,0.02822 -0.02117,0.04939 -0.01764,0.02117 -0.04939,0.02117 -0.03175,0 -0.05292,-0.02117 -0.01764,-0.02117 -0.01764,-0.04939 v -2.328328 q 0,-0.02822 0.02117,-0.04939 0.02117,-0.02117 0.04939,-0.02117 z"
         id="path356" />
      <path
         d="m 21.767983,13.517779 q 0.03175,0 0.04939,0.02117 0.02117,0.02117 0.02117,0.04939 v 0.88547 q 0,0.04233 -0.03175,0.0635 -0.162278,0.109361 -0.356305,0.172861 -0.1905,0.05997 -0.388055,0.05997 -0.36336,0 -0.652637,-0.162277 -0.28575,-0.165805 -0.451555,-0.455083 Q 19.79596,13.8635 19.79596,13.50014 q 0,-0.36336 0.162277,-0.652638 0.165805,-0.289277 0.451555,-0.451554 0.289277,-0.165805 0.652637,-0.165805 0.197555,0 0.373944,0.04939 0.179916,0.04586 0.321027,0.14111 0.03175,0.02117 0.03175,0.05997 0,0.03175 -0.02469,0.05292 -0.02117,0.01764 -0.04233,0.01764 -0.01764,0 -0.04586,-0.01411 -0.296333,-0.165805 -0.613832,-0.165805 -0.324555,0 -0.578554,0.144638 -0.254,0.144639 -0.398638,0.402166 -0.141111,0.257527 -0.141111,0.582082 0,0.324555 0.141111,0.582082 0.144638,0.257527 0.398638,0.402166 0.253999,0.144638 0.578554,0.144638 0.162278,0 0.328083,-0.04939 0.169333,-0.05292 0.306916,-0.137583 V 13.65889 h -0.634999 q -0.02822,0 -0.04939,-0.02117 -0.02117,-0.02117 -0.02117,-0.04939 0,-0.03175 0.02117,-0.04939 0.02117,-0.02117 0.04939,-0.02117 z"
         id="path358" />
      <path
         d="m 24.180971,12.26542 q 0.03175,0 0.05292,0.02117 0.02117,0.02117 0.02117,0.05292 v 2.321272 q -0.0035,0.03175 -0.02469,0.05292 -0.02117,0.02117 -0.04939,0.02117 -0.03528,0 -0.05644,-0.02117 -0.01764,-0.02117 -0.01764,-0.05292 v -1.125358 h -1.538107 v 1.125358 q -0.0035,0.03175 -0.0247,0.05292 -0.02117,0.02117 -0.04939,0.02117 -0.03528,0 -0.05644,-0.02117 -0.01764,-0.02117 -0.01764,-0.05292 v -2.321272 q 0,-0.03175 0.02117,-0.05292 0.02117,-0.02117 0.05292,-0.02117 0.03175,0 0.05292,0.02117 0.02117,0.02117 0.02117,0.05292 v 1.054803 h 1.538107 v -1.054803 q 0,-0.03175 0.02117,-0.05292 0.02117,-0.02117 0.05292,-0.02117 z"
         id="path360" />
      <path
         d="m 25.108773,14.660776 q -0.0035,0.03175 -0.02469,0.05292 -0.02117,0.02117 -0.04939,0.02117 -0.03528,0 -0.05645,-0.02117 -0.01764,-0.02117 -0.01764,-0.05292 v -2.321272 q 0,-0.03175 0.02117,-0.05292 0.02117,-0.02117 0.05292,-0.02117 0.03175,0 0.05292,0.02117 0.02117,0.02117 0.02117,0.05292 z"
         id="path362" />
      <path
         d="m 26.40346,14.770137 q -0.225777,0 -0.405693,-0.134055 -0.176389,-0.134055 -0.264583,-0.356305 -0.0071,-0.02117 -0.0071,-0.03528 0,-0.02822 0.02117,-0.04586 0.02117,-0.01764 0.04939,-0.01764 0.04586,0 0.06703,0.04586 0.06703,0.179916 0.211666,0.292804 0.144639,0.109361 0.328083,0.109361 0.271638,0 0.433916,-0.162277 0.162277,-0.162277 0.162277,-0.433916 v -1.696857 q 0,-0.02822 0.02117,-0.04939 0.02117,-0.02117 0.05644,-0.02117 0.03175,0 0.04939,0.02117 0.02117,0.02117 0.02117,0.04939 v 1.696857 q 0,0.218722 -0.09525,0.388055 -0.09172,0.165805 -0.261055,0.257527 -0.169333,0.09172 -0.388055,0.09172 z"
         id="path364" />
      <path
         d="m 29.701921,14.629026 q 0.01764,0.0247 0.01764,0.04939 0,0.03881 -0.02822,0.05644 -0.02469,0.01764 -0.05292,0.01764 -0.02822,0 -0.04939,-0.02469 l -1.058331,-1.308803 -0.529166,0.49036 v 0.751415 q -0.0035,0.03175 -0.02469,0.05292 -0.02117,0.02117 -0.04939,0.02117 -0.03528,0 -0.05644,-0.02117 -0.01764,-0.02117 -0.01764,-0.05292 v -2.321272 q 0,-0.03175 0.02117,-0.05292 0.02117,-0.02117 0.05292,-0.02117 0.03175,0 0.05292,0.02117 0.02117,0.02117 0.02117,0.05292 v 1.389941 l 1.523997,-1.428747 q 0.02117,-0.02117 0.04939,-0.02117 0.02822,0 0.04939,0.02117 0.02117,0.02117 0.02117,0.04939 0,0.02822 -0.02117,0.04939 l -0.977192,0.910164 z"
         id="path366" />
      <path
         d="m 31.624554,14.593749 q 0.02822,0 0.04939,0.02117 0.02117,0.02117 0.02117,0.04939 0,0.03175 -0.02117,0.05292 -0.02117,0.01764 -0.04939,0.01764 h -1.294692 q -0.03175,0 -0.05292,-0.02117 -0.01764,-0.02117 -0.01764,-0.04939 v -2.328328 q 0,-0.02822 0.02117,-0.04939 0.02117,-0.02117 0.05292,-0.02117 0.03175,0 0.05292,0.02117 0.02117,0.02117 0.02117,0.04939 v 2.257773 z"
         id="path368" />
      <path
         d="m 34.256268,12.26542 q 0.02822,0.0035 0.04586,0.02469 0.01764,0.01764 0.01764,0.04586 v 2.328328 q 0,0.02822 -0.0247,0.04939 -0.02117,0.02117 -0.04939,0.02117 -0.03175,0 -0.05292,-0.02117 -0.02117,-0.02117 -0.02117,-0.04939 v -2.109606 l -0.910165,1.37583 q -0.01764,0.02822 -0.04939,0.02822 -0.03881,0 -0.05644,-0.02822 L 32.241911,12.55117 v 2.113134 q 0,0.02822 -0.02117,0.04939 -0.02117,0.02117 -0.04939,0.02117 -0.03175,0 -0.05292,-0.02117 -0.01764,-0.02117 -0.01764,-0.04939 v -2.328328 q 0,-0.0247 0.01764,-0.04586 0.02117,-0.02469 0.04939,-0.02469 0.04586,0 0.06703,0.03175 l 0.977192,1.453442 0.977192,-1.453442 q 0.02822,-0.0388 0.06703,-0.03175 z"
         id="path370" />
      <path
         d="m 36.810369,12.26542 q 0.03175,0 0.04939,0.02117 0.01764,0.01764 0.01764,0.04586 v 2.324801 q 0,0.0388 -0.02117,0.05997 -0.02117,0.01764 -0.05292,0.01764 -0.03528,0 -0.05644,-0.02822 l -1.587497,-2.169578 v 2.137828 q 0,0.02469 -0.02117,0.04233 -0.01764,0.01764 -0.04586,0.01764 -0.03175,0 -0.04939,-0.01764 -0.01764,-0.01764 -0.01764,-0.04233 v -2.338911 q 0,-0.03528 0.01764,-0.05292 0.02117,-0.01764 0.04586,-0.01764 0.03175,0 0.05292,0.02469 l 1.601607,2.183689 v -2.141356 q 0,-0.02822 0.01764,-0.04586 0.02117,-0.02117 0.04939,-0.02117 z"
         id="path372" />
      <path
         d="m 39.763106,13.50014 q 0,0.370416 -0.151694,0.659693 -0.148167,0.289277 -0.416277,0.451555 -0.268111,0.158749 -0.610304,0.158749 -0.342194,0 -0.610305,-0.158749 -0.26811,-0.162278 -0.419804,-0.451555 -0.148167,-0.289277 -0.148167,-0.659693 0,-0.370416 0.148167,-0.659693 0.151694,-0.289277 0.419804,-0.448027 0.268111,-0.162277 0.610305,-0.162277 0.342193,0 0.610304,0.162277 0.26811,0.15875 0.416277,0.448027 0.151694,0.289277 0.151694,0.659693 z m -0.148167,0 q 0,-0.33161 -0.130527,-0.589138 -0.130528,-0.257527 -0.366888,-0.398638 -0.232833,-0.14111 -0.532693,-0.14111 -0.299861,0 -0.536221,0.14111 -0.232833,0.141111 -0.363361,0.398638 -0.130527,0.257528 -0.130527,0.589138 0,0.33161 0.130527,0.589138 0.130528,0.257527 0.363361,0.398638 0.23636,0.14111 0.536221,0.14111 0.29986,0 0.532693,-0.14111 0.23636,-0.141111 0.366888,-0.398638 0.130527,-0.257528 0.130527,-0.589138 z"
         id="path374" />
      <path
         d="m 41.20949,12.26542 q 0.29986,0 0.483304,0.186972 0.183444,0.186972 0.183444,0.486833 0,0.197555 -0.08467,0.359832 -0.08114,0.15875 -0.232833,0.250472 -0.151694,0.08819 -0.349249,0.08819 h -0.769054 v 1.026581 q 0,0.02822 -0.02469,0.04939 -0.02117,0.02117 -0.04939,0.02117 -0.03175,0 -0.05292,-0.02117 -0.02117,-0.02117 -0.02117,-0.04939 v -2.328328 q 0,-0.02822 0.02117,-0.04939 0.02117,-0.02117 0.04939,-0.02117 z m 0,1.231192 q 0.236361,0 0.377471,-0.155222 0.141111,-0.158749 0.141111,-0.402165 0,-0.243417 -0.141111,-0.388055 -0.137583,-0.144639 -0.377471,-0.144639 h -0.769054 v 1.090081 z"
         id="path376" />
      <path
         d="m 44.78665,14.964165 q 0.02822,0 0.04233,0.01411 0.01764,0.01764 0.01764,0.04586 0,0.06703 -0.09878,0.134055 -0.09878,0.07056 -0.246944,0.112889 -0.144638,0.04586 -0.275166,0.04586 -0.194027,0 -0.328083,-0.04233 -0.134055,-0.04233 -0.306916,-0.126999 -0.144638,-0.07408 -0.250471,-0.109361 -0.105833,-0.03528 -0.243416,-0.03528 -0.04939,0 -0.09172,0.01058 -0.03881,0.01411 -0.09525,0.03881 -0.0635,0.02822 -0.08467,0.02822 -0.02822,0 -0.04939,-0.02117 -0.02117,-0.02117 -0.02117,-0.05292 0,-0.04233 0.03881,-0.05997 l 0.515055,-0.179917 q -0.321027,-0.01764 -0.571499,-0.183444 -0.246944,-0.165805 -0.388055,-0.444499 -0.137583,-0.282221 -0.137583,-0.638526 0,-0.370416 0.148167,-0.659693 0.151694,-0.289277 0.419804,-0.448027 0.268111,-0.162277 0.610305,-0.162277 0.342193,0 0.610304,0.162277 0.26811,0.15875 0.416277,0.448027 0.151694,0.289277 0.151694,0.659693 0,0.317499 -0.112889,0.575026 -0.109361,0.257528 -0.313971,0.430388 -0.201083,0.172861 -0.465666,0.232833 l -0.433916,0.141111 q 0.109361,0.01058 0.201083,0.04586 0.09525,0.03528 0.225777,0.09878 0.169333,0.08114 0.28575,0.119944 0.116416,0.0388 0.271638,0.0388 0.130528,0 0.22225,-0.03528 0.09525,-0.03175 0.183444,-0.08114 0.02822,-0.01411 0.06703,-0.05292 0.02117,-0.02117 0.04233,-0.03528 0.0247,-0.01411 0.04586,-0.01411 z M 42.359545,13.50014 q 0,0.33161 0.130527,0.589138 0.130528,0.257527 0.36336,0.398638 0.236361,0.14111 0.536222,0.14111 0.29986,0 0.532693,-0.14111 0.23636,-0.141111 0.366888,-0.398638 0.130527,-0.257528 0.130527,-0.589138 0,-0.33161 -0.130527,-0.589138 -0.130528,-0.257527 -0.366888,-0.398638 -0.232833,-0.14111 -0.532693,-0.14111 -0.299861,0 -0.536222,0.14111 -0.232832,0.141111 -0.36336,0.398638 -0.130527,0.257528 -0.130527,0.589138 z"
         id="path378" />
      <path
         d="m 46.903309,14.597276 q 0.03881,0.02469 0.03881,0.0635 0,0.03175 -0.02117,0.05292 -0.01764,0.01764 -0.04586,0.01764 -0.02117,0 -0.03175,-0.0071 -0.09525,-0.05292 -0.151694,-0.176388 -0.05644,-0.127 -0.05644,-0.412749 0,-0.289278 -0.155222,-0.395111 -0.155222,-0.109361 -0.359833,-0.109361 h -0.825498 v 1.033637 q 0,0.02822 -0.02117,0.04939 -0.02117,0.02117 -0.05292,0.02117 -0.03175,0 -0.05292,-0.02117 -0.02117,-0.02117 -0.02117,-0.04939 v -2.328328 q 0,-0.02822 0.02117,-0.04939 0.02117,-0.02117 0.04939,-0.02117 h 0.931331 q 0.204611,0 0.363361,0.08467 0.158749,0.08114 0.246944,0.225777 0.08819,0.144639 0.08819,0.328083 0,0.23636 -0.127,0.405693 -0.123472,0.169333 -0.324555,0.229305 0.169333,0.05292 0.278694,0.211667 0.109361,0.155222 0.109361,0.384527 0,0.23636 0.02822,0.33161 0.03175,0.09172 0.09172,0.130527 z m -0.737304,-1.107719 q 0.22225,-0.02117 0.377472,-0.176389 0.155221,-0.155222 0.155221,-0.405693 0,-0.218722 -0.155221,-0.359833 -0.155222,-0.141111 -0.41275,-0.141111 h -0.836081 v 1.083026 z"
         id="path380" />
      <path
         d="m 48.120388,14.770137 q -0.261055,0 -0.455082,-0.08819 -0.194027,-0.09172 -0.384527,-0.282222 -0.02117,-0.02117 -0.02117,-0.05292 0,-0.02822 0.0247,-0.05292 0.02469,-0.02822 0.05292,-0.02822 0.03175,0 0.05997,0.03175 0.137583,0.162277 0.324555,0.246944 0.1905,0.08467 0.398638,0.08467 0.271638,0 0.448027,-0.130527 0.176388,-0.130528 0.176388,-0.345722 -0.0035,-0.169333 -0.09172,-0.278693 -0.08819,-0.109361 -0.218721,-0.172861 -0.127,-0.06703 -0.34925,-0.148166 -0.243416,-0.09172 -0.380999,-0.162278 -0.134055,-0.07056 -0.232832,-0.201083 -0.09525,-0.130527 -0.09525,-0.342194 0,-0.17286 0.09525,-0.313971 0.09525,-0.141111 0.271638,-0.22225 0.176388,-0.08114 0.409221,-0.08114 0.208139,0 0.39511,0.07761 0.186972,0.07408 0.296333,0.211666 0.03528,0.04939 0.03528,0.07408 0,0.02822 -0.02822,0.05292 -0.0247,0.02117 -0.05644,0.02117 -0.02822,0 -0.04586,-0.02117 -0.09878,-0.127 -0.253999,-0.201083 -0.155222,-0.07408 -0.342194,-0.07408 -0.26811,0 -0.448027,0.126999 -0.176388,0.127 -0.176388,0.345722 0,0.151694 0.08467,0.257527 0.08819,0.105833 0.218722,0.172861 0.130528,0.0635 0.324555,0.134055 0.246944,0.08819 0.391582,0.162277 0.144639,0.07408 0.246944,0.215194 0.102306,0.141111 0.102306,0.373944 0,0.162277 -0.09525,0.303388 -0.09525,0.141111 -0.275166,0.225777 -0.176389,0.08114 -0.405694,0.08114 z"
         id="path382" />
      <path
         d="m 50.984937,12.26542 q 0.02822,0 0.04939,0.02117 0.02117,0.01764 0.02117,0.04586 0,0.03175 -0.02117,0.04939 -0.01764,0.01764 -0.04939,0.01764 h -0.786692 v 2.264828 q 0,0.02822 -0.02117,0.04939 -0.02117,0.02117 -0.04939,0.02117 -0.03175,0 -0.05292,-0.02117 -0.01764,-0.02117 -0.01764,-0.04939 v -2.264828 h -0.786693 q -0.02822,0 -0.04939,-0.01764 -0.02117,-0.02117 -0.02117,-0.04939 0,-0.02822 0.02117,-0.04586 0.02117,-0.02117 0.04939,-0.02117 z"
         id="path384" />
      <path
         d="m 53.277983,12.26542 q 0.03175,0 0.04939,0.02117 0.02117,0.02117 0.02117,0.04939 v 1.523996 q 0,0.246944 -0.123472,0.455083 -0.123472,0.208138 -0.33161,0.33161 -0.208139,0.123472 -0.451555,0.123472 -0.246944,0 -0.455082,-0.123472 -0.208139,-0.123472 -0.331611,-0.33161 -0.123472,-0.208139 -0.123472,-0.455083 v -1.523996 q 0,-0.03175 0.02117,-0.04939 0.02117,-0.02117 0.05292,-0.02117 0.03175,0 0.05292,0.02117 0.02117,0.02117 0.02117,0.04939 v 1.523996 q 0,0.208139 0.102305,0.384527 0.102305,0.176389 0.275166,0.282222 0.176389,0.102305 0.384527,0.102305 0.208138,0 0.380999,-0.102305 0.176389,-0.105833 0.278694,-0.282222 0.105833,-0.176388 0.105833,-0.384527 v -1.523996 q 0,-0.02822 0.01764,-0.04939 0.02117,-0.02117 0.05292,-0.02117 z"
         id="path386" />
      <path
         d="m 55.835608,12.26542 q 0.03175,0 0.04939,0.01764 0.02117,0.01764 0.02117,0.04586 0,0.01411 -0.0071,0.03528 l -0.966609,2.3248 q -0.02117,0.04586 -0.06703,0.04586 -0.02117,0 -0.04233,-0.01058 -0.01764,-0.01411 -0.0247,-0.03528 L 53.83889,12.374781 q -0.01058,-0.02117 -0.01058,-0.04233 0,-0.02822 0.01764,-0.04586 0.02117,-0.02117 0.04939,-0.02117 0.05292,0 0.07761,0.05645 l 0.896054,2.155467 0.899581,-2.166051 q 0.02469,-0.04586 0.06703,-0.04586 z"
         id="path388" />
      <path
         d="m 59.268127,12.258365 q 0.03175,0 0.05292,0.01764 0.02117,0.01764 0.02117,0.04939 l -0.0071,0.03528 -0.80786,2.328328 q -0.0071,0.02117 -0.02822,0.03528 -0.01764,0.01058 -0.03528,0.01058 -0.05644,0 -0.07055,-0.04233 l -0.645582,-1.62983 -0.645582,1.62983 q -0.01764,0.04233 -0.07408,0.04233 -0.02117,0 -0.03881,-0.01058 -0.01764,-0.01411 -0.02117,-0.03528 l -0.80786,-2.328328 -0.0071,-0.03175 q 0,-0.03175 0.02469,-0.04939 0.0247,-0.02117 0.05292,-0.02117 0.02117,0 0.03881,0.01411 0.02117,0.01058 0.02822,0.03175 l 0.747887,2.158995 0.634998,-1.605135 q 0.01764,-0.04586 0.06703,-0.04586 0.02117,0 0.0388,0.01411 0.02117,0.01058 0.02822,0.03175 l 0.638526,1.608663 0.744359,-2.162523 q 0.01764,-0.04586 0.07056,-0.04586 z"
         id="path390" />
      <path
         d="m 61.420065,14.632554 q 0.01764,0.02469 0.01764,0.04233 0,0.03175 -0.02117,0.05292 -0.02117,0.01764 -0.05292,0.01764 -0.03881,0 -0.05644,-0.02822 l -0.80786,-1.100665 -0.804331,1.100665 q -0.01764,0.02822 -0.05292,0.02822 -0.03175,0 -0.04939,-0.01764 -0.01764,-0.02117 -0.01764,-0.04233 0,-0.01764 0.01764,-0.04586 l 0.829026,-1.132415 -0.836081,-1.139469 q -0.01411,-0.01764 -0.01411,-0.04233 0,-0.03175 0.02117,-0.04939 0.02117,-0.02117 0.04939,-0.02117 0.04233,0 0.05997,0.02822 l 0.80786,1.104192 0.804331,-1.107719 q 0.02117,-0.02822 0.05292,-0.02822 0.03175,0 0.04939,0.01764 0.02117,0.01411 0.02117,0.03881 0,0.02469 -0.01764,0.04939 l -0.829026,1.142998 z"
         id="path392" />
      <path
         d="m 63.402666,12.318337 q 0,0.01764 -0.01411,0.04586 l -0.804332,1.093609 v 1.206497 q 0,0.02822 -0.02117,0.04939 -0.02117,0.02117 -0.05292,0.02117 -0.03175,0 -0.05292,-0.02117 -0.02117,-0.02117 -0.02117,-0.04939 v -1.192386 l -0.80786,-1.10772 q -0.01411,-0.01764 -0.01411,-0.04586 0,-0.02469 0.02117,-0.04586 0.02469,-0.02117 0.05292,-0.02117 0.03881,0 0.05997,0.03175 l 0.761998,1.040692 0.761998,-1.040692 q 0.02117,-0.03175 0.05997,-0.03175 0.03175,0 0.04939,0.0247 0.02117,0.02117 0.02117,0.04233 z"
         id="path394" />
      <path
         d="m 65.491103,14.600804 q 0.02822,0 0.04939,0.02117 0.02117,0.02117 0.02117,0.04586 0,0.02822 -0.02117,0.04939 -0.02117,0.01764 -0.04939,0.01764 H 63.75544 q -0.03175,0 -0.05292,-0.02117 -0.01764,-0.02469 -0.01764,-0.05292 0,-0.02469 0.01411,-0.04233 l 1.665107,-2.218967 h -1.538108 q -0.02822,0 -0.04939,-0.01764 -0.02117,-0.02117 -0.02117,-0.04939 0,-0.02822 0.02117,-0.04586 0.02117,-0.02117 0.04939,-0.02117 h 1.658052 q 0.04233,0 0.05997,0.02117 0.02117,0.02117 0.02117,0.04939 0,0.02469 -0.01411,0.04233 l -1.66158,2.222495 z"
         id="path396" />
    </g>
    <g
       aria-label="0123456789"
       id="text524"
       style="font-size:3.52777px;font-family:'Quicksand Light';-inkscape-font-specification:'Quicksand Light, Normal';stroke:#000000;stroke-width:0.25;stroke-linejoin:bevel"
       inkscape:label="numerals">
      <path
         d="m 7.4243919,21.470977 q -0.2716383,0 -0.4586101,-0.165805 -0.183444,-0.169333 -0.275166,-0.455082 -0.091722,-0.289278 -0.091722,-0.64911 0,-0.359833 0.091722,-0.645582 0.091722,-0.289277 0.275166,-0.455082 0.1869718,-0.169333 0.4586101,-0.169333 0.2716383,0 0.4550824,0.169333 0.1869718,0.165805 0.2786938,0.455082 0.091722,0.285749 0.091722,0.645582 0,0.359832 -0.091722,0.64911 -0.091722,0.285749 -0.2786938,0.455082 -0.1834441,0.165805 -0.4550824,0.165805 z m 0,-0.148166 q 0.3280826,0 0.5009434,-0.306916 0.1763885,-0.306916 0.1763885,-0.814915 0,-0.507999 -0.1763885,-0.814915 -0.1728608,-0.306916 -0.5009434,-0.306916 -0.3280826,0 -0.5044711,0.306916 -0.1728607,0.306916 -0.1728607,0.814915 0,0.507999 0.1728607,0.814915 0.1763885,0.306916 0.5044711,0.306916 z"
         id="path399" />
      <path
         d="m 9.1776914,18.962733 q 0.03175,0 0.049389,0.02117 0.021167,0.02117 0.021167,0.05292 v 2.328328 q 0,0.02822 -0.021167,0.04939 -0.021167,0.02117 -0.052917,0.02117 -0.03175,0 -0.052917,-0.02117 -0.021167,-0.02117 -0.021167,-0.04939 V 19.170871 L 8.585026,19.477787 q -0.010583,0.0071 -0.028222,0.0071 -0.03175,0 -0.056444,-0.0247 -0.021167,-0.02822 -0.021167,-0.05292 0,-0.03175 0.038806,-0.05997 l 0.6173597,-0.370416 q 0.017639,-0.01411 0.042333,-0.01411 z"
         id="path401" />
      <path
         d="m 11.389603,21.294589 q 0.02822,0 0.04939,0.02117 0.02117,0.02117 0.02117,0.04939 0,0.03175 -0.02117,0.05292 -0.02117,0.01764 -0.04939,0.01764 h -1.361719 q -0.035278,0 -0.0635,-0.01764 -0.024694,-0.01764 -0.024694,-0.05645 0,-0.02117 0.017639,-0.04586 L 10.786354,20.39148 q 0.22225,-0.236361 0.324555,-0.41275 0.102306,-0.179916 0.102306,-0.352777 0,-0.264582 -0.15875,-0.409221 -0.155222,-0.144638 -0.448027,-0.144638 -0.194027,0 -0.342194,0.08819 -0.144638,0.08467 -0.208138,0.271638 -0.0071,0.02117 -0.02469,0.03881 -0.01411,0.01764 -0.042334,0.01764 -0.024694,0 -0.052917,-0.01764 -0.024694,-0.01764 -0.024694,-0.03881 0,-0.01764 0.017639,-0.0635 0.081139,-0.211666 0.2645827,-0.324555 0.186972,-0.112888 0.423332,-0.112888 0.356305,0 0.55386,0.186972 0.197555,0.186971 0.197555,0.493887 0,0.186972 -0.102305,0.384527 -0.102305,0.197555 -0.36336,0.479777 l -0.719665,0.818443 z"
         id="path403" />
      <path
         d="m 12.490266,19.876425 q 0.197555,0 0.373944,0.08819 0.176388,0.0882 0.285749,0.264583 0.112889,0.176389 0.112889,0.42686 0,0.236361 -0.116417,0.423333 -0.112888,0.183444 -0.306916,0.289277 -0.194027,0.102305 -0.419804,0.102305 -0.15875,0 -0.303389,-0.05644 -0.14111,-0.05644 -0.246944,-0.169333 -0.02117,-0.02117 -0.02117,-0.04939 0,-0.02822 0.02117,-0.05292 0.02117,-0.02469 0.05292,-0.02469 0.03175,0 0.0635,0.03528 0.155222,0.169333 0.433916,0.169333 0.194027,0 0.352777,-0.08467 0.158749,-0.08467 0.250471,-0.23636 0.09172,-0.155222 0.09172,-0.345722 0,-0.215194 -0.09878,-0.356304 -0.09525,-0.144639 -0.250472,-0.211667 -0.155222,-0.06703 -0.328083,-0.06703 -0.03528,0 -0.08819,0.0071 -0.04939,0.0035 -0.05644,0.0035 -0.03175,0 -0.05292,-0.02117 -0.01764,-0.02117 -0.01764,-0.05644 0,-0.03175 0.01764,-0.04939 l 0.71261,-0.797276 H 11.88349 q -0.02822,0 -0.04939,-0.02117 -0.02117,-0.02117 -0.02117,-0.04939 0,-0.03175 0.02117,-0.04939 0.02117,-0.02117 0.04939,-0.02117 h 1.220608 q 0.0388,0 0.05644,0.02822 0.01764,0.02469 0.01764,0.04586 0,0.02822 -0.02117,0.04939 l -0.702027,0.790221 q 0.01411,-0.0035 0.03528,-0.0035 z"
         id="path405" />
      <path
         d="m 15.076119,20.507896 q 0.02822,0 0.04939,0.02117 0.02117,0.01764 0.02117,0.04586 0,0.02822 -0.02117,0.04939 -0.02117,0.01764 -0.04939,0.01764 h -0.268111 v 0.723193 q 0,0.02822 -0.02117,0.04939 -0.02117,0.02117 -0.04939,0.02117 -0.03175,0 -0.05292,-0.02117 -0.01764,-0.02117 -0.01764,-0.04939 v -0.723193 h -1.07597 q -0.03175,0 -0.05292,-0.02117 -0.01764,-0.0247 -0.01764,-0.05292 0,-0.02822 0.01764,-0.04586 l 1.13947,-1.527524 q 0.02117,-0.02822 0.05997,-0.02822 0.03175,0 0.04939,0.02117 0.02117,0.02117 0.02117,0.04939 v 1.47108 z m -1.351136,0 h 0.941914 v -1.26647 z"
         id="path407" />
      <path
         d="m 16.116808,19.802342 q 0.222249,0 0.402165,0.09878 0.179917,0.09878 0.282222,0.278694 0.102305,0.176389 0.102305,0.402166 0,0.254 -0.10936,0.448027 -0.105834,0.190499 -0.303389,0.296333 -0.197555,0.105833 -0.462138,0.105833 -0.155221,0 -0.29986,-0.04939 -0.144639,-0.04939 -0.261055,-0.148166 -0.02822,-0.02117 -0.02822,-0.05292 0,-0.02469 0.02117,-0.05292 0.02117,-0.02822 0.04939,-0.02822 0.02822,0 0.04939,0.02117 0.208138,0.169333 0.469193,0.169333 0.331611,0 0.532694,-0.1905 0.201083,-0.194027 0.201083,-0.507999 0,-0.292804 -0.186972,-0.472721 -0.186972,-0.179916 -0.511527,-0.179916 -0.127,0 -0.23636,0.0388 -0.109361,0.03528 -0.225778,0.09172 -0.07056,0.03175 -0.07761,0.03175 -0.03175,0 -0.05997,-0.02469 -0.02469,-0.02469 -0.01411,-0.05997 l 0.165805,-0.991303 q 0.0035,-0.02117 0.02469,-0.03881 0.02117,-0.02117 0.05292,-0.02117 h 1.07597 q 0.02822,0 0.04939,0.02117 0.02117,0.02117 0.02117,0.05292 0,0.03175 -0.02117,0.05292 -0.02117,0.02117 -0.04939,0.02117 h -1.023053 l -0.144639,0.804331 q 0.239889,-0.116416 0.515055,-0.116416 z"
         id="path409" />
      <path
         d="m 18.205246,19.887008 q 0.215194,0 0.377471,0.116417 0.165805,0.112888 0.254,0.29986 0.08819,0.183444 0.08819,0.388055 0,0.204611 -0.09878,0.384527 -0.09878,0.176388 -0.271638,0.285749 -0.172861,0.109361 -0.388055,0.109361 -0.271638,0 -0.451554,-0.119944 -0.179916,-0.119944 -0.268111,-0.313972 -0.08467,-0.194027 -0.08467,-0.419804 0,-0.313972 0.137583,-0.666749 0.137583,-0.356304 0.384527,-0.649109 0.246944,-0.292805 0.557387,-0.423333 0.02117,-0.0071 0.03175,-0.0071 0.03528,0 0.05645,0.02117 0.02117,0.02117 0.02117,0.05997 0,0.04233 -0.04939,0.0635 -0.201083,0.08819 -0.395111,0.275166 -0.190499,0.186972 -0.335138,0.42686 -0.141111,0.236361 -0.201083,0.476249 0.116417,-0.144638 0.282222,-0.225777 0.165805,-0.08114 0.352777,-0.08114 z m -0.04586,1.442858 q 0.179916,0 0.317499,-0.08114 0.141111,-0.08114 0.218722,-0.225778 0.08114,-0.144638 0.08114,-0.33161 0,-0.172861 -0.07056,-0.324555 -0.06703,-0.151694 -0.201083,-0.243416 -0.134055,-0.09172 -0.324555,-0.09172 -0.208138,0 -0.36336,0.09172 -0.151694,0.09172 -0.232833,0.246944 -0.07761,0.151694 -0.07761,0.335138 0,0.165805 0.07761,0.310444 0.07761,0.141111 0.225778,0.229305 0.148166,0.08467 0.349249,0.08467 z"
         id="path411" />
      <path
         d="m 20.632348,18.96626 q 0.05997,0 0.05997,0.0635 0,0.02117 -0.0071,0.03528 l -0.984247,2.331856 q -0.0071,0.02117 -0.02822,0.03528 -0.01764,0.01058 -0.04233,0.01058 -0.02469,0 -0.04939,-0.01764 -0.02469,-0.01764 -0.02469,-0.04586 0,-0.01411 0.0071,-0.03528 l 0.945442,-2.236606 h -1.195914 q -0.02822,0 -0.04939,-0.01764 -0.02117,-0.02117 -0.02117,-0.05292 0,-0.03175 0.02117,-0.04939 0.02117,-0.02117 0.04939,-0.02117 z"
         id="path413" />
      <path
         d="m 22.099899,20.190397 q 0.179916,0.07761 0.296332,0.239888 0.119945,0.162277 0.119945,0.373944 0,0.183444 -0.09878,0.335138 -0.09525,0.151694 -0.264583,0.243416 -0.169333,0.08819 -0.373943,0.08819 -0.204611,0 -0.373944,-0.08819 -0.165805,-0.08819 -0.264583,-0.239888 -0.09525,-0.155222 -0.09525,-0.338666 0,-0.211667 0.116417,-0.370416 0.116416,-0.15875 0.296332,-0.239889 -0.148166,-0.07408 -0.253999,-0.229305 -0.102305,-0.155222 -0.102305,-0.342193 0,-0.183444 0.08819,-0.331611 0.09172,-0.151694 0.246944,-0.23636 0.155222,-0.0882 0.342194,-0.0882 0.183444,0 0.338665,0.0882 0.155222,0.08467 0.243417,0.23636 0.09172,0.148167 0.09172,0.331611 0,0.190499 -0.102306,0.342193 -0.102305,0.151694 -0.250471,0.225778 z m -0.850193,-0.567971 q 0,0.151694 0.07408,0.271638 0.07408,0.116416 0.194028,0.183444 0.123472,0.0635 0.261055,0.0635 0.137583,0 0.257527,-0.0635 0.119944,-0.06703 0.194027,-0.183444 0.07408,-0.119944 0.07408,-0.271638 0,-0.229305 -0.148166,-0.370416 -0.144639,-0.144639 -0.377471,-0.144639 -0.236361,0 -0.384527,0.144639 -0.144639,0.141111 -0.144639,0.370416 z m 0.529166,1.70744 q 0.264582,0 0.42686,-0.144638 0.162277,-0.148167 0.162277,-0.380999 0,-0.151694 -0.08114,-0.271639 -0.08114,-0.123472 -0.218721,-0.194027 -0.134056,-0.07056 -0.289277,-0.07056 -0.155222,0 -0.292805,0.07056 -0.134056,0.07055 -0.215194,0.194027 -0.07761,0.119945 -0.07761,0.271639 0,0.232832 0.162277,0.380999 0.162278,0.144638 0.423333,0.144638 z"
         id="path415" />
      <path
         d="m 23.733253,18.930983 q 0.271638,0 0.451555,0.119944 0.179916,0.119944 0.264582,0.313971 0.08819,0.194028 0.08819,0.419805 0,0.313972 -0.137583,0.656165 -0.134056,0.338666 -0.381,0.61736 -0.246943,0.278694 -0.560915,0.412749 -0.02117,0.0071 -0.03175,0.0071 -0.03175,0 -0.05644,-0.0247 -0.02117,-0.02469 -0.02117,-0.05644 0,-0.04233 0.04939,-0.0635 0.201083,-0.08819 0.391582,-0.264583 0.194028,-0.176388 0.335139,-0.402165 0.144638,-0.225778 0.20461,-0.458611 -0.112888,0.141111 -0.282221,0.22225 -0.165806,0.07761 -0.352777,0.07761 -0.215194,0 -0.381,-0.112889 -0.162277,-0.112888 -0.250471,-0.296332 -0.08819,-0.183444 -0.08819,-0.388055 0,-0.204611 0.09878,-0.380999 0.09878,-0.179917 0.271638,-0.289277 0.172861,-0.109361 0.388055,-0.109361 z m -0.01411,1.432274 q 0.208138,0 0.359833,-0.08819 0.155221,-0.09172 0.232832,-0.243416 0.08114,-0.151694 0.08114,-0.335138 0,-0.165805 -0.07761,-0.306916 -0.07761,-0.144639 -0.225777,-0.229305 -0.148166,-0.08819 -0.349249,-0.08819 -0.179917,0 -0.321027,0.08114 -0.137583,0.08114 -0.218722,0.225778 -0.07761,0.144638 -0.07761,0.33161 0,0.172861 0.06703,0.324555 0.06703,0.148166 0.201082,0.239888 0.137583,0.08819 0.328083,0.08819 z"
         id="path417" />
    </g>
  </g>
</svg>
