<?xml version="1.0" encoding="utf-8"?>
<svg xmlns="http://www.w3.org/2000/svg" width="60.96mm" height="128.50mm" viewBox="0 0 60.96 128.50">
<g style="stroke:#000000;stroke-width:0.25;stroke-linecap:round;stroke-linejoin:bevel">
<path d="M4.80622 11.9032V14.2492Q4.80622 14.2774 4.78506 14.2986Q4.76389 14.3198 4.73567 14.3198Q4.70392 14.3198 4.68451 14.2986Q4.66511 14.2774 4.66511 14.2492V13.2085Q4.58044 13.3955 4.397 13.5225Q4.21356 13.6495 3.98778 13.6495Q3.75847 13.6495 3.5715 13.5278Q3.38453 13.4061 3.27693 13.1944Q3.16933 12.9827 3.16933 12.7217Q3.16933 12.4606 3.27693 12.249Q3.38453 12.0373 3.5715 11.9173Q3.75847 11.7974 3.98778 11.7974Q4.2065 11.7974 4.39347 11.9209Q4.58044 12.0443 4.66511 12.2419V11.9032Q4.66511 11.875 4.68451 11.8538Q4.70392 11.8327 4.73567 11.8327Q4.76742 11.8327 4.78682 11.8538Q4.80622 11.875 4.80622 11.9032ZM4.67922 12.7217Q4.67922 12.4959 4.59103 12.316Q4.50283 12.1361 4.34585 12.0338Q4.18886 11.9315 3.99483 11.9315Q3.80433 11.9315 3.64735 12.0338Q3.49036 12.1361 3.4004 12.3178Q3.31044 12.4994 3.31044 12.7217Q3.31044 12.9475 3.4004 13.1274Q3.49036 13.3073 3.64558 13.4114Q3.80081 13.5154 3.99483 13.5154Q4.19239 13.5154 4.34761 13.4131Q4.50283 13.3108 4.59103 13.1291Q4.67922 12.9475 4.67922 12.7217ZM6.79236 11.9244V12.951Q6.79236 13.2861 6.60363 13.4608Q6.41489 13.6354 6.09033 13.6354Q5.76578 13.6354 5.57881 13.4608Q5.39183 13.2861 5.39183 12.951V11.9244Q5.39183 11.8962 5.413 11.875Q5.43417 11.8538 5.46239 11.8538Q5.49414 11.8538 5.51354 11.875Q5.53294 11.8962 5.53294 11.9244V12.951Q5.53294 13.2156 5.68111 13.3584Q5.82928 13.5013 6.09033 13.5013Q6.35492 13.5013 6.50308 13.3584Q6.65125 13.2156 6.65125 12.951V11.9244Q6.65125 11.8962 6.67065 11.875Q6.69006 11.8538 6.72181 11.8538Q6.75356 11.8538 6.77296 11.875Q6.79236 11.8962 6.79236 11.9244ZM7.44853 13.6142Q7.41678 13.6142 7.39738 13.593Q7.37797 13.5719 7.37797 13.5437V11.868Q7.37797 11.8397 7.39914 11.8186Q7.42031 11.7974 7.44853 11.7974Q7.48028 11.7974 7.49968 11.8186Q7.51908 11.8397 7.51908 11.868V13.5437Q7.51908 13.5719 7.49792 13.593Q7.47675 13.6142 7.44853 13.6142ZM7.32506 11.4446V11.4164Q7.32506 11.367 7.36033 11.3353Q7.39561 11.3035 7.45206 11.3035Q7.50144 11.3035 7.53496 11.3353Q7.56847 11.367 7.56847 11.4164V11.4446Q7.56847 11.494 7.53496 11.5258Q7.50144 11.5575 7.44853 11.5575Q7.39208 11.5575 7.35857 11.5258Q7.32506 11.494 7.32506 11.4446ZM9.48053 12.0479Q9.48053 12.0761 9.46113 12.0973Q9.44172 12.1184 9.4135 12.1184Q9.38175 12.1184 9.36587 12.1078Q9.35 12.0973 9.32178 12.069Q9.27592 12.0161 9.22653 11.9914Q9.09953 11.9315 8.86669 11.9315Q8.66561 11.9315 8.49451 12.0373Q8.32342 12.1431 8.22288 12.3248Q8.12233 12.5065 8.12233 12.7217Q8.12233 12.9475 8.21582 13.1291Q8.30931 13.3108 8.4804 13.4131Q8.6515 13.5154 8.86669 13.5154Q9.00781 13.5154 9.08894 13.4907Q9.17008 13.466 9.25122 13.4202Q9.30767 13.3849 9.35 13.3426Q9.36764 13.3249 9.38528 13.3126Q9.40292 13.3002 9.42056 13.3002Q9.44878 13.3002 9.46465 13.3179Q9.48053 13.3355 9.48053 13.3637Q9.48053 13.4131 9.39939 13.4819Q9.31825 13.5507 9.17538 13.6001Q9.0325 13.6495 8.85611 13.6495Q8.60211 13.6495 8.40279 13.5295Q8.20347 13.4096 8.09235 13.1979Q7.98122 12.9863 7.98122 12.7217Q7.98122 12.4747 8.09235 12.2631Q8.20347 12.0514 8.40632 11.9244Q8.60917 11.7974 8.87022 11.7974Q9.02192 11.7974 9.16479 11.8327Q9.30767 11.868 9.3941 11.9262Q9.48053 11.9844 9.48053 12.0479ZM11.3185 13.5437Q11.3185 13.5754 11.292 13.5948Q11.2656 13.6142 11.2479 13.6142Q11.2197 13.6142 11.195 13.5895L10.3695 12.7111L10.0732 12.958V13.5437Q10.0732 13.5719 10.0538 13.593Q10.0344 13.6142 10.0026 13.6142Q9.97089 13.6142 9.95149 13.593Q9.93208 13.5719 9.93208 13.5437V11.0742Q9.93208 11.046 9.95149 11.0248Q9.97089 11.0037 10.0026 11.0037Q10.0344 11.0037 10.0538 11.0248Q10.0732 11.046 10.0732 11.0742V12.7817L11.1809 11.8538Q11.2021 11.8327 11.2268 11.8327Q11.255 11.8327 11.2762 11.8538Q11.2973 11.875 11.2973 11.9068Q11.2973 11.9385 11.2726 11.9597L10.4789 12.6194L11.2973 13.4907Q11.3185 13.5119 11.3185 13.5437ZM14.5758 12.7146Q14.5758 12.9757 14.4682 13.1891Q14.3606 13.4025 14.1736 13.526Q13.9867 13.6495 13.7574 13.6495Q13.5492 13.6495 13.3728 13.5384Q13.1965 13.4272 13.08 13.2297V13.5437Q13.08 13.5719 13.0606 13.593Q13.0412 13.6142 13.0095 13.6142Q12.9813 13.6142 12.9601 13.593Q12.9389 13.5719 12.9389 13.5437V11.0777Q12.9389 11.0495 12.9583 11.0283Q12.9777 11.0072 13.0095 11.0072Q13.0412 11.0072 13.0606 11.0283Q13.08 11.0495 13.08 11.0777V12.2278Q13.1859 12.0197 13.364 11.9085Q13.5422 11.7974 13.7574 11.7974Q13.9902 11.7974 14.1772 11.9156Q14.3641 12.0338 14.47 12.2437Q14.5758 12.4536 14.5758 12.7146ZM14.4347 12.7146Q14.4347 12.4888 14.3447 12.3107Q14.2548 12.1325 14.0996 12.032Q13.9443 11.9315 13.7503 11.9315Q13.5528 11.9315 13.3958 12.032Q13.2388 12.1325 13.1524 12.3107Q13.0659 12.4888 13.0659 12.7146Q13.0659 12.9404 13.1541 13.1238Q13.2423 13.3073 13.3975 13.4114Q13.5528 13.5154 13.7503 13.5154Q13.9443 13.5154 14.0996 13.4096Q14.2548 13.3038 14.3447 13.1221Q14.4347 12.9404 14.4347 12.7146ZM15.9975 11.8785Q15.9975 11.9103 15.9799 11.9315Q15.9622 11.9526 15.934 11.9526Q15.9234 11.9526 15.8829 11.9367Q15.8423 11.9209 15.7964 11.9209Q15.6518 11.9209 15.5071 12.0355Q15.3625 12.1502 15.2708 12.3248Q15.1791 12.4994 15.1791 12.6617V13.5437Q15.1791 13.5719 15.1579 13.593Q15.1367 13.6142 15.1085 13.6142Q15.0768 13.6142 15.0574 13.593Q15.038 13.5719 15.038 13.5437V11.9244Q15.038 11.8962 15.0591 11.875Q15.0803 11.8538 15.1085 11.8538Q15.1403 11.8538 15.1597 11.875Q15.1791 11.8962 15.1791 11.9244V12.2983Q15.2602 12.0832 15.4313 11.942Q15.6024 11.8009 15.8352 11.7974Q15.9975 11.7974 15.9975 11.8785ZM17.0841 13.6495Q16.8406 13.6495 16.6413 13.5278Q16.442 13.4061 16.3274 13.1944Q16.2127 12.9827 16.2127 12.7252Q16.2127 12.4642 16.3274 12.2525Q16.442 12.0408 16.6396 11.9191Q16.8371 11.7974 17.0841 11.7974Q17.3275 11.7974 17.5268 11.9191Q17.7261 12.0408 17.839 12.2525Q17.9519 12.4642 17.9519 12.7252Q17.9519 12.9863 17.839 13.1962Q17.7261 13.4061 17.5268 13.5278Q17.3275 13.6495 17.0841 13.6495ZM17.0841 11.9315Q16.8795 11.9315 16.7119 12.0355Q16.5443 12.1396 16.4491 12.3195Q16.3538 12.4994 16.3538 12.7252Q16.3538 12.9475 16.4491 13.1274Q16.5443 13.3073 16.7119 13.4114Q16.8795 13.5154 17.0841 13.5154Q17.2922 13.5154 17.458 13.4131Q17.6238 13.3108 17.7173 13.1291Q17.8108 12.9475 17.8108 12.7252Q17.8108 12.4994 17.7173 12.3195Q17.6238 12.1396 17.458 12.0355Q17.2922 11.9315 17.0841 11.9315ZM20.6189 11.8574 20.6118 11.8927 20.065 13.5683Q20.0439 13.6142 19.998 13.6142Q19.9557 13.6142 19.931 13.5683L19.4195 12.4148L18.9608 13.5683Q18.9538 13.5895 18.9344 13.6019Q18.915 13.6142 18.8938 13.6142Q18.8726 13.6142 18.8532 13.6019Q18.8338 13.5895 18.8268 13.5683L18.2623 11.8927L18.2553 11.8574Q18.2553 11.8256 18.2765 11.808Q18.2976 11.7903 18.3294 11.7903Q18.3752 11.7903 18.3929 11.8362L18.8903 13.3743L19.3595 12.2137Q19.3665 12.1925 19.3859 12.1802Q19.4053 12.1678 19.4265 12.1678Q19.4477 12.1678 19.4671 12.1802Q19.4865 12.1925 19.4935 12.2137L19.991 13.3637L20.4813 11.8362Q20.499 11.7903 20.5448 11.7903Q20.5766 11.7903 20.5977 11.808Q20.6189 11.8256 20.6189 11.8574ZM22.478 12.4642V13.5437Q22.478 13.5719 22.4569 13.593Q22.4357 13.6142 22.4075 13.6142Q22.3757 13.6142 22.3563 13.593Q22.3369 13.5719 22.3369 13.5437V12.4783Q22.3369 12.2384 22.2117 12.0849Q22.0865 11.9315 21.8325 11.9315Q21.6772 11.9315 21.5273 12.0055Q21.3774 12.0796 21.2821 12.2066Q21.1869 12.3336 21.1869 12.4783V13.5437Q21.1869 13.5719 21.1657 13.593Q21.1445 13.6142 21.1163 13.6142Q21.0846 13.6142 21.0652 13.593Q21.0458 13.5719 21.0458 13.5437V11.9244Q21.0458 11.8962 21.0669 11.875Q21.0881 11.8538 21.1163 11.8538Q21.1481 11.8538 21.1675 11.875Q21.1869 11.8962 21.1869 11.9244V12.1608Q21.2892 12.002 21.4744 11.8997Q21.6596 11.7974 21.8466 11.7974Q22.1605 11.7974 22.3193 11.9826Q22.478 12.1678 22.478 12.4642ZM25.0192 11.942Q25.0192 11.9703 24.9998 11.9897Q24.9804 12.0091 24.9522 12.0091H24.5359V13.5437Q24.5359 13.5719 24.5147 13.593Q24.4936 13.6142 24.4654 13.6142Q24.4336 13.6142 24.4142 13.593Q24.3948 13.5719 24.3948 13.5437V12.0091H24.1126Q24.0879 12.0091 24.0667 11.9879Q24.0455 11.9667 24.0455 11.942Q24.0455 11.9103 24.0649 11.8927Q24.0844 11.875 24.1126 11.875H24.3948V11.4446Q24.3948 11.2365 24.5059 11.1289Q24.617 11.0213 24.7899 11.0213Q24.8781 11.0213 24.9575 11.0442Q25.0369 11.0672 25.0369 11.1201Q25.0369 11.1483 25.0157 11.1695Q24.9945 11.1906 24.9698 11.1906Q24.9416 11.1906 24.8957 11.173Q24.8146 11.1483 24.7758 11.1483Q24.6664 11.1483 24.6012 11.2224Q24.5359 11.2965 24.5359 11.4446V11.875H24.9522Q24.9804 11.875 24.9998 11.8944Q25.0192 11.9138 25.0192 11.942ZM26.1587 13.6495Q25.9153 13.6495 25.7159 13.5278Q25.5166 13.4061 25.402 13.1944Q25.2873 12.9827 25.2873 12.7252Q25.2873 12.4642 25.402 12.2525Q25.5166 12.0408 25.7142 11.9191Q25.9117 11.7974 26.1587 11.7974Q26.4021 11.7974 26.6014 11.9191Q26.8007 12.0408 26.9136 12.2525Q27.0265 12.4642 27.0265 12.7252Q27.0265 12.9863 26.9136 13.1962Q26.8007 13.4061 26.6014 13.5278Q26.4021 13.6495 26.1587 13.6495ZM26.1587 11.9315Q25.9541 11.9315 25.7865 12.0355Q25.6189 12.1396 25.5237 12.3195Q25.4284 12.4994 25.4284 12.7252Q25.4284 12.9475 25.5237 13.1274Q25.6189 13.3073 25.7865 13.4114Q25.9541 13.5154 26.1587 13.5154Q26.3668 13.5154 26.5326 13.4131Q26.6984 13.3108 26.7919 13.1291Q26.8854 12.9475 26.8854 12.7252Q26.8854 12.4994 26.7919 12.3195Q26.6984 12.1396 26.5326 12.0355Q26.3668 11.9315 26.1587 11.9315ZM28.741 13.5154Q28.7551 13.5331 28.7551 13.5578Q28.7551 13.586 28.7357 13.6072Q28.7163 13.6283 28.6881 13.6283Q28.6564 13.6283 28.6281 13.5966L28.0496 12.8416L27.4675 13.6001Q27.4463 13.6283 27.411 13.6283Q27.3828 13.6283 27.3634 13.6107Q27.344 13.593 27.344 13.5613Q27.344 13.5366 27.3581 13.519L27.9649 12.7323L27.3511 11.9315Q27.337 11.9138 27.337 11.8891Q27.337 11.8574 27.3599 11.8362Q27.3828 11.815 27.411 11.815Q27.4463 11.815 27.4675 11.8468L28.0531 12.6123L28.6281 11.8468Q28.6564 11.815 28.6881 11.815Q28.7199 11.815 28.7375 11.8327Q28.7551 11.8503 28.7551 11.875Q28.7551 11.8962 28.7375 11.9209L28.1378 12.7252Z"/>
<rect x="3" y="10" width="25.9" height="4.73" style="fill:none;stroke:blue;stroke-width:0.1"/>
<path d="M3.14464 23.2791Q3.12347 23.2579 3.12347 23.2262Q3.12347 23.1979 3.14817 23.1715Q3.17286 23.145 3.20108 23.145Q3.23283 23.145 3.26106 23.1768Q3.39864 23.339 3.58737 23.4237Q3.77611 23.5084 3.98425 23.5084Q4.25589 23.5084 4.43228 23.3778Q4.60867 23.2473 4.60867 23.0321Q4.60514 22.8628 4.51694 22.7534Q4.42875 22.6441 4.29999 22.5788Q4.17122 22.5135 3.94897 22.4324Q3.70556 22.3407 3.56974 22.2701Q3.43392 22.1996 3.3369 22.069Q3.23989 21.9385 3.23989 21.7268Q3.23989 21.554 3.33514 21.4129Q3.43039 21.2718 3.60678 21.1906Q3.78317 21.1095 4.016 21.1095Q4.22414 21.1095 4.41111 21.1853Q4.59808 21.2612 4.70744 21.3988Q4.74272 21.4482 4.74272 21.4728Q4.74272 21.5011 4.71626 21.524Q4.68981 21.5469 4.65806 21.5469Q4.62983 21.5469 4.61219 21.5258Q4.51342 21.3988 4.35819 21.3247Q4.20297 21.2506 4.016 21.2506Q3.74789 21.2506 3.56974 21.3776Q3.39158 21.5046 3.39158 21.7233Q3.39158 21.875 3.47801 21.9808Q3.56444 22.0867 3.69497 22.1519Q3.8255 22.2172 4.01953 22.2878Q4.26647 22.376 4.41111 22.45Q4.55575 22.5241 4.65806 22.6652Q4.76036 22.8063 4.76036 23.0392Q4.76036 23.2015 4.66511 23.3426Q4.56986 23.4837 4.39171 23.5666Q4.21356 23.6495 3.98425 23.6495Q3.72319 23.6495 3.52917 23.5595Q3.33514 23.4696 3.14464 23.2791ZM6.91936 21.2118Q6.91936 21.2435 6.89996 21.2612Q6.88056 21.2788 6.84881 21.2788H6.06211V23.5437Q6.06211 23.5719 6.04094 23.593Q6.01978 23.6142 5.99156 23.6142Q5.95981 23.6142 5.9404 23.593Q5.921 23.5719 5.921 23.5437V21.2788H5.13431Q5.10608 21.2788 5.08492 21.2594Q5.06375 21.24 5.06375 21.2118Q5.06375 21.1836 5.08492 21.1642Q5.10608 21.1448 5.13431 21.1448H6.84881Q6.87703 21.1448 6.89819 21.1642Q6.91936 21.1836 6.91936 21.2118ZM7.46969 23.6142Q7.43442 23.6142 7.41501 23.593Q7.39561 23.5719 7.39561 23.5401V21.2188Q7.39561 21.1871 7.41678 21.1659Q7.43794 21.1448 7.46969 21.1448Q7.50144 21.1448 7.52261 21.1659Q7.54378 21.1871 7.54378 21.2188V23.5401Q7.54025 23.5719 7.51908 23.593Q7.49792 23.6142 7.46969 23.6142ZM9.72042 21.2153Q9.72042 21.2471 9.69925 21.2665Q9.67808 21.2859 9.64986 21.2859H8.39044V22.2595H9.49111Q9.51933 22.2595 9.5405 22.2807Q9.56167 22.3019 9.56167 22.3301Q9.56167 22.3618 9.5405 22.3813Q9.51933 22.4007 9.49111 22.4007H8.39044V23.5437Q8.39044 23.5719 8.37104 23.593Q8.35164 23.6142 8.31989 23.6142Q8.28814 23.6142 8.26874 23.593Q8.24933 23.5719 8.24933 23.5437V21.2153Q8.24933 21.1871 8.2705 21.1659Q8.29167 21.1448 8.31989 21.1448H9.64986Q9.67808 21.1448 9.69925 21.1659Q9.72042 21.1871 9.72042 21.2153ZM13.2846 21.4058Q13.2846 21.434 13.2705 21.4517Q13.2494 21.4799 13.2176 21.4799Q13.2035 21.4799 13.1753 21.4658Q12.8472 21.2435 12.4803 21.2435Q12.184 21.2435 11.9353 21.3899Q11.6866 21.5363 11.5419 21.7956Q11.3973 22.0549 11.3973 22.3795Q11.3973 22.704 11.5419 22.9633Q11.6866 23.2226 11.9353 23.369Q12.184 23.5154 12.4803 23.5154Q12.8507 23.5154 13.1718 23.2967Q13.1894 23.2826 13.2141 23.2826Q13.2494 23.2826 13.2705 23.3108Q13.2846 23.3285 13.2846 23.3532Q13.2846 23.3884 13.2564 23.4096Q13.1188 23.5084 12.9019 23.5789Q12.6849 23.6495 12.4803 23.6495Q12.1452 23.6495 11.863 23.4837Q11.5807 23.3179 11.4149 23.0268Q11.2491 22.7358 11.2491 22.3795Q11.2491 22.0232 11.4149 21.7321Q11.5807 21.4411 11.863 21.2753Q12.1452 21.1095 12.4803 21.1095Q12.692 21.1095 12.8913 21.173Q13.0906 21.2365 13.2529 21.3494Q13.2846 21.3741 13.2846 21.4058ZM15.5777 21.2153V22.7393Q15.5777 22.9863 15.4542 23.1944Q15.3308 23.4025 15.1226 23.526Q14.9145 23.6495 14.6711 23.6495Q14.4241 23.6495 14.216 23.526Q14.0078 23.4025 13.8844 23.1944Q13.7609 22.9863 13.7609 22.7393V21.2153Q13.7609 21.1836 13.7821 21.1642Q13.8032 21.1448 13.835 21.1448Q13.8667 21.1448 13.8879 21.1659Q13.9091 21.1871 13.9091 21.2153V22.7393Q13.9091 22.9475 14.0114 23.1238Q14.1137 23.3002 14.2883 23.4043Q14.4629 23.5084 14.6711 23.5084Q14.8792 23.5084 15.0538 23.4043Q15.2285 23.3002 15.3325 23.1238Q15.4366 22.9475 15.4366 22.7393V21.2153Q15.4366 21.1871 15.456 21.1659Q15.4754 21.1448 15.5071 21.1448Q15.5389 21.1448 15.5583 21.1659Q15.5777 21.1871 15.5777 21.2153ZM18.0789 23.5401Q18.0789 23.5719 18.0595 23.5913Q18.0401 23.6107 18.0119 23.6107Q17.9907 23.6107 17.9801 23.6036Q17.8849 23.5507 17.8284 23.4255Q17.772 23.3002 17.772 23.0145Q17.772 22.7252 17.6168 22.6176Q17.4615 22.51 17.2569 22.51H16.4314V23.5437Q16.4314 23.5719 16.4103 23.593Q16.3891 23.6142 16.3573 23.6142Q16.3256 23.6142 16.3044 23.593Q16.2833 23.5719 16.2833 23.5437V21.2153Q16.2833 21.1871 16.3044 21.1659Q16.3256 21.1448 16.3538 21.1448H17.2851Q17.4898 21.1448 17.6485 21.2277Q17.8073 21.3106 17.8955 21.4552Q17.9836 21.5998 17.9836 21.7833Q17.9836 22.0197 17.8584 22.189Q17.7332 22.3583 17.5321 22.4183Q17.7014 22.4712 17.8108 22.6282Q17.9201 22.7852 17.9201 23.0145Q17.9201 23.2508 17.9501 23.3443Q17.9801 23.4378 18.0401 23.4766Q18.0789 23.5013 18.0789 23.5401ZM17.3028 22.3689Q17.525 22.3477 17.6803 22.1925Q17.8355 22.0373 17.8355 21.7868Q17.8355 21.5681 17.6803 21.427Q17.525 21.2859 17.2675 21.2859H16.4314V22.3689ZM20.0615 23.5437Q20.0615 23.5754 20.0403 23.5948Q20.0192 23.6142 19.991 23.6142H18.6963Q18.6645 23.6142 18.6451 23.593Q18.6257 23.5719 18.6257 23.5437V21.2153Q18.6257 21.1871 18.6469 21.1659Q18.668 21.1448 18.6998 21.1448Q18.7315 21.1448 18.7527 21.1659Q18.7739 21.1871 18.7739 21.2153V23.4731H19.991Q20.0192 23.4731 20.0403 23.4943Q20.0615 23.5154 20.0615 23.5437ZM23.8621 21.2153V23.5437Q23.8621 23.5719 23.8392 23.593Q23.8162 23.6142 23.788 23.6142Q23.7563 23.6142 23.7351 23.593Q23.7139 23.5719 23.7139 23.5437V21.434L22.8038 22.8099Q22.7861 22.8381 22.7544 22.8381Q22.7156 22.8381 22.6979 22.8099L21.7842 21.4305V23.5437Q21.7842 23.5719 21.7631 23.593Q21.7419 23.6142 21.7137 23.6142Q21.6819 23.6142 21.6625 23.593Q21.6431 23.5719 21.6431 23.5437V21.2153Q21.6431 21.1906 21.6625 21.1677Q21.6819 21.1448 21.7102 21.1448Q21.756 21.1448 21.7772 21.1765L22.7544 22.63L23.7316 21.1765Q23.7598 21.1377 23.7986 21.1448Q23.8268 21.1483 23.8445 21.1677Q23.8621 21.1871 23.8621 21.2153ZM26.3809 23.5472Q26.3809 23.5789 26.3598 23.5966Q26.3386 23.6142 26.3069 23.6142Q26.2822 23.6142 26.2628 23.6019Q26.2434 23.5895 26.2363 23.5683L25.94 22.8416L25.9435 22.8487H24.7617L24.4759 23.5683Q24.4583 23.6142 24.4124 23.6142Q24.3807 23.6142 24.3613 23.5966Q24.3419 23.5789 24.3384 23.5542Q24.3348 23.5401 24.3419 23.519L25.2909 21.1836Q25.3014 21.1553 25.3173 21.1465Q25.3332 21.1377 25.3579 21.1377Q25.4108 21.1377 25.4284 21.1836L26.3774 23.519Q26.3809 23.5295 26.3809 23.5472ZM24.8181 22.7076H25.887L25.3473 21.3776ZM26.649 23.2791Q26.6279 23.2579 26.6279 23.2262Q26.6279 23.1979 26.6526 23.1715Q26.6773 23.145 26.7055 23.145Q26.7372 23.145 26.7655 23.1768Q26.903 23.339 27.0918 23.4237Q27.2805 23.5084 27.4887 23.5084Q27.7603 23.5084 27.9367 23.3778Q28.1131 23.2473 28.1131 23.0321Q28.1095 22.8628 28.0214 22.7534Q27.9332 22.6441 27.8044 22.5788Q27.6756 22.5135 27.4534 22.4324Q27.21 22.3407 27.0741 22.2701Q26.9383 22.1996 26.8413 22.069Q26.7443 21.9385 26.7443 21.7268Q26.7443 21.554 26.8395 21.4129Q26.9348 21.2718 27.1112 21.1906Q27.2876 21.1095 27.5204 21.1095Q27.7285 21.1095 27.9155 21.1853Q28.1025 21.2612 28.2119 21.3988Q28.2471 21.4482 28.2471 21.4728Q28.2471 21.5011 28.2207 21.524Q28.1942 21.5469 28.1625 21.5469Q28.1342 21.5469 28.1166 21.5258Q28.0178 21.3988 27.8626 21.3247Q27.7074 21.2506 27.5204 21.2506Q27.2523 21.2506 27.0741 21.3776Q26.896 21.5046 26.896 21.7233Q26.896 21.875 26.9824 21.9808Q27.0689 22.0867 27.1994 22.1519Q27.3299 22.2172 27.5239 22.2878Q27.7709 22.376 27.9155 22.45Q28.0602 22.5241 28.1625 22.6652Q28.2648 22.8063 28.2648 23.0392Q28.2648 23.2015 28.1695 23.3426Q28.0743 23.4837 27.8961 23.5666Q27.718 23.6495 27.4887 23.6495Q27.2276 23.6495 27.0336 23.5595Q26.8395 23.4696 26.649 23.2791ZM28.5893 23.2791Q28.5682 23.2579 28.5682 23.2262Q28.5682 23.1979 28.5929 23.1715Q28.6175 23.145 28.6458 23.145Q28.6775 23.145 28.7057 23.1768Q28.8433 23.339 29.0321 23.4237Q29.2208 23.5084 29.4289 23.5084Q29.7006 23.5084 29.877 23.3778Q30.0534 23.2473 30.0534 23.0321Q30.0498 22.8628 29.9616 22.7534Q29.8734 22.6441 29.7447 22.5788Q29.6159 22.5135 29.3937 22.4324Q29.1502 22.3407 29.0144 22.2701Q28.8786 22.1996 28.7816 22.069Q28.6846 21.9385 28.6846 21.7268Q28.6846 21.554 28.7798 21.4129Q28.8751 21.2718 29.0515 21.1906Q29.2279 21.1095 29.4607 21.1095Q29.6688 21.1095 29.8558 21.1853Q30.0428 21.2612 30.1521 21.3988Q30.1874 21.4482 30.1874 21.4728Q30.1874 21.5011 30.1609 21.524Q30.1345 21.5469 30.1027 21.5469Q30.0745 21.5469 30.0569 21.5258Q29.9581 21.3988 29.8029 21.3247Q29.6477 21.2506 29.4607 21.2506Q29.1926 21.2506 29.0144 21.3776Q28.8363 21.5046 28.8363 21.7233Q28.8363 21.875 28.9227 21.9808Q29.0091 22.0867 29.1397 22.1519Q29.2702 22.2172 29.4642 22.2878Q29.7112 22.376 29.8558 22.45Q30.0004 22.5241 30.1027 22.6652Q30.205 22.8063 30.205 23.0392Q30.205 23.2015 30.1098 23.3426Q30.0145 23.4837 29.8364 23.5666Q29.6582 23.6495 29.4289 23.6495Q29.1679 23.6495 28.9739 23.5595Q28.7798 23.4696 28.5893 23.2791Z"/>
<rect x="3" y="20" width="27.4" height="4.73" style="fill:none;stroke:blue;stroke-width:0.1"/>
</g>
</svg>
