<?xml version="1.0" encoding="utf-8"?>
<svg xmlns="http://www.w3.org/2000/svg" width="60.96mm" height="128.50mm" viewBox="0 0 60.96 128.50">
<g style="stroke:#000000;stroke-width:0.25;stroke-linecap:round;stroke-linejoin:bevel">
<path d="M4.806222222222222 8.289027777777777V10.635Q4.806222222222222 10.663222222222222 4.785055555555555 10.68438888888889Q4.763888888888889 10.705555555555556 4.735666666666667 10.705555555555556Q4.703916666666666 10.705555555555556 4.684513888888889 10.68438888888889Q4.665111111111111 10.663222222222222 4.665111111111111 10.635V9.594305555555556Q4.580444444444444 9.781277777777778 4.397 9.908277777777776Q4.213555555555556 10.035277777777777 3.9877777777777776 10.035277777777777Q3.758472222222222 10.035277777777777 3.5715 9.913569444444445Q3.3845277777777776 9.79186111111111 3.2769305555555555 9.580194444444444Q3.1693333333333333 9.368527777777778 3.1693333333333333 9.107472222222222Q3.1693333333333333 8.846416666666666 3.2769305555555555 8.63475Q3.3845277777777776 8.423083333333334 3.5715 8.303138888888888Q3.758472222222222 8.183194444444444 3.9877777777777776 8.183194444444444Q4.2065 8.183194444444444 4.393472222222222 8.306666666666667Q4.580444444444444 8.430138888888889 4.665111111111111 8.627694444444444V8.289027777777777Q4.665111111111111 8.260805555555555 4.684513888888889 8.239638888888887Q4.703916666666666 8.218472222222221 4.735666666666667 8.218472222222221Q4.767416666666667 8.218472222222221 4.786819444444444 8.239638888888887Q4.806222222222222 8.260805555555555 4.806222222222222 8.289027777777777ZM4.679222222222222 9.107472222222222Q4.679222222222222 8.881694444444445 4.591027777777778 8.701777777777778Q4.502833333333333 8.52186111111111 4.345847222222222 8.419555555555554Q4.188861111111111 8.31725 3.9948333333333332 8.31725Q3.804333333333333 8.31725 3.647347222222222 8.419555555555554Q3.490361111111111 8.52186111111111 3.400402777777778 8.703541666666666Q3.3104444444444443 8.885222222222222 3.3104444444444443 9.107472222222222Q3.3104444444444443 9.33325 3.400402777777778 9.513166666666667Q3.490361111111111 9.693083333333334 3.6455833333333336 9.797152777777779Q3.8008055555555558 9.901222222222222 3.9948333333333332 9.901222222222222Q4.192388888888889 9.901222222222222 4.347611111111111 9.798916666666667Q4.502833333333333 9.69661111111111 4.591027777777778 9.514930555555555Q4.679222222222222 9.33325 4.679222222222222 9.107472222222222ZM6.792361111111111 8.310194444444445V9.336777777777778Q6.792361111111111 9.671916666666666 6.603625 9.846541666666667Q6.414888888888889 10.021166666666666 6.090333333333334 10.021166666666666Q5.765777777777778 10.021166666666666 5.578805555555556 9.846541666666667Q5.3918333333333335 9.671916666666666 5.3918333333333335 9.336777777777778V8.310194444444445Q5.3918333333333335 8.281972222222223 5.413 8.260805555555557Q5.434166666666666 8.239638888888889 5.4623888888888885 8.239638888888889Q5.494138888888889 8.239638888888889 5.513541666666667 8.260805555555557Q5.532944444444444 8.281972222222223 5.532944444444444 8.310194444444445V9.336777777777778Q5.532944444444444 9.60136111111111 5.681111111111111 9.74423611111111Q5.829277777777778 9.88711111111111 6.090333333333334 9.88711111111111Q6.354916666666666 9.88711111111111 6.503083333333333 9.74423611111111Q6.65125 9.60136111111111 6.65125 9.336777777777778V8.310194444444445Q6.65125 8.281972222222223 6.670652777777778 8.260805555555557Q6.690055555555555 8.239638888888889 6.721805555555555 8.239638888888889Q6.753555555555556 8.239638888888889 6.772958333333333 8.260805555555557Q6.792361111111111 8.281972222222223 6.792361111111111 8.310194444444445ZM7.448527777777778 10.0Q7.416777777777778 10.0 7.397375 9.978833333333334Q7.377972222222223 9.957666666666666 7.377972222222223 9.929444444444444V8.25375Q7.377972222222223 8.225527777777778 7.399138888888889 8.204361111111112Q7.420305555555556 8.183194444444444 7.448527777777778 8.183194444444444Q7.480277777777778 8.183194444444444 7.499680555555556 8.204361111111112Q7.519083333333334 8.225527777777778 7.519083333333334 8.25375V9.929444444444444Q7.519083333333334 9.957666666666666 7.497916666666667 9.978833333333334Q7.47675 10.0 7.448527777777778 10.0ZM7.325055555555556 7.830416666666667V7.802194444444445Q7.325055555555556 7.752805555555556 7.360333333333334 7.721055555555556Q7.395611111111112 7.689305555555556 7.452055555555556 7.689305555555556Q7.501444444444445 7.689305555555556 7.534958333333334 7.721055555555556Q7.568472222222223 7.752805555555556 7.568472222222223 7.802194444444445V7.830416666666667Q7.568472222222223 7.879805555555556 7.534958333333334 7.911555555555556Q7.501444444444445 7.943305555555556 7.4485277777777785 7.943305555555556Q7.392083333333334 7.943305555555556 7.358569444444445 7.911555555555556Q7.325055555555556 7.879805555555556 7.325055555555556 7.830416666666667ZM9.480527777777779 8.433666666666667Q9.480527777777779 8.46188888888889 9.461125000000001 8.483055555555556Q9.441722222222223 8.504222222222221 9.4135 8.504222222222221Q9.38175 8.504222222222221 9.365874999999999 8.493638888888889Q9.35 8.483055555555556 9.321777777777779 8.454833333333333Q9.275916666666667 8.401916666666667 9.226527777777779 8.377222222222223Q9.099527777777778 8.31725 8.866694444444445 8.31725Q8.665611111111112 8.31725 8.49451388888889 8.423083333333334Q8.323416666666667 8.528916666666667 8.222875 8.710597222222223Q8.122333333333334 8.892277777777778 8.122333333333334 9.107472222222222Q8.122333333333334 9.33325 8.215819444444445 9.514930555555555Q8.309305555555556 9.69661111111111 8.480402777777778 9.798916666666667Q8.6515 9.901222222222222 8.866694444444445 9.901222222222222Q9.007805555555557 9.901222222222222 9.088944444444445 9.876527777777778Q9.170083333333334 9.851833333333333 9.251222222222223 9.805972222222222Q9.307666666666666 9.770694444444445 9.35 9.728361111111111Q9.367638888888889 9.710722222222222 9.385277777777777 9.698374999999999Q9.402916666666666 9.686027777777777 9.420555555555556 9.686027777777777Q9.448777777777778 9.686027777777777 9.46465277777778 9.703666666666667Q9.480527777777779 9.721305555555556 9.480527777777779 9.749527777777779Q9.480527777777779 9.798916666666667 9.39938888888889 9.867708333333333Q9.31825 9.9365 9.175375 9.985888888888889Q9.0325 10.035277777777777 8.856111111111112 10.035277777777777Q8.602111111111112 10.035277777777777 8.402791666666667 9.915333333333333Q8.203472222222222 9.795388888888889 8.092347222222223 9.583722222222221Q7.981222222222223 9.372055555555555 7.981222222222223 9.107472222222222Q7.981222222222223 8.860527777777778 8.092347222222223 8.64886111111111Q8.203472222222222 8.437194444444444 8.406319444444446 8.310194444444445Q8.609166666666667 8.183194444444444 8.870222222222223 8.183194444444444Q9.021916666666668 8.183194444444444 9.164791666666666 8.218472222222221Q9.307666666666666 8.25375 9.394097222222221 8.311958333333333Q9.480527777777779 8.370166666666666 9.480527777777779 8.433666666666667ZM11.3185 9.929444444444444Q11.3185 9.961194444444445 11.292041666666666 9.980597222222222Q11.265583333333334 10.0 11.247944444444444 10.0Q11.219722222222222 10.0 11.195027777777778 9.975305555555556L10.369527777777778 9.09688888888889L10.073194444444445 9.343833333333333V9.929444444444444Q10.073194444444445 9.957666666666666 10.053791666666667 9.978833333333334Q10.03438888888889 10.0 10.002638888888889 10.0Q9.970888888888888 10.0 9.95148611111111 9.978833333333334Q9.932083333333333 9.957666666666666 9.932083333333333 9.929444444444444V7.46Q9.932083333333333 7.4317777777777785 9.95148611111111 7.410611111111112Q9.970888888888888 7.389444444444445 10.002638888888889 7.389444444444445Q10.03438888888889 7.389444444444445 10.053791666666667 7.410611111111112Q10.073194444444445 7.4317777777777785 10.073194444444445 7.46V9.167444444444445L11.180916666666667 8.239638888888889Q11.202083333333333 8.218472222222221 11.226777777777777 8.218472222222221Q11.254999999999999 8.218472222222221 11.276166666666665 8.239638888888887Q11.297333333333333 8.260805555555555 11.297333333333333 8.292555555555555Q11.297333333333333 8.324305555555556 11.272638888888888 8.345472222222222L10.47888888888889 9.005166666666666L11.297333333333333 9.876527777777778Q11.3185 9.897694444444445 11.3185 9.929444444444444ZM14.575814814814816 9.100416666666666Q14.575814814814816 9.361472222222222 14.468217592592593 9.574902777777778Q14.36062037037037 9.788333333333334 14.173648148148148 9.911805555555556Q13.986675925925926 10.035277777777777 13.75737037037037 10.035277777777777Q13.549231481481481 10.035277777777777 13.372842592592592 9.924152777777778Q13.196453703703703 9.813027777777778 13.080037037037037 9.615472222222222V9.929444444444444Q13.080037037037037 9.957666666666666 13.06063425925926 9.978833333333334Q13.041231481481482 10.0 13.009481481481481 10.0Q12.981259259259259 10.0 12.960092592592591 9.978833333333334Q12.938925925925925 9.957666666666666 12.938925925925925 9.929444444444444V7.463527777777777Q12.938925925925925 7.435305555555556 12.958328703703703 7.414138888888889Q12.97773148148148 7.392972222222222 13.009481481481481 7.392972222222222Q13.041231481481482 7.392972222222222 13.06063425925926 7.414138888888889Q13.080037037037037 7.435305555555556 13.080037037037037 7.463527777777777V8.613583333333333Q13.18587037037037 8.405444444444445 13.36402314814815 8.294319444444444Q13.542175925925926 8.183194444444444 13.75737037037037 8.183194444444444Q13.990203703703704 8.183194444444444 14.177175925925926 8.301375Q14.364148148148148 8.419555555555556 14.469981481481483 8.629458333333334Q14.575814814814816 8.839361111111112 14.575814814814816 9.100416666666666ZM14.434703703703704 9.100416666666666Q14.434703703703704 8.874638888888889 14.34474537037037 8.69648611111111Q14.254787037037037 8.518333333333333 14.099564814814816 8.417791666666666Q13.944342592592593 8.31725 13.750314814814814 8.31725Q13.55275925925926 8.31725 13.395773148148148 8.417791666666666Q13.238787037037037 8.518333333333333 13.152356481481482 8.69648611111111Q13.065925925925926 8.874638888888889 13.065925925925926 9.100416666666666Q13.065925925925926 9.326194444444445 13.154120370370372 9.50963888888889Q13.242314814814815 9.693083333333334 13.397537037037036 9.797152777777779Q13.55275925925926 9.901222222222222 13.750314814814814 9.901222222222222Q13.944342592592593 9.901222222222222 14.099564814814816 9.795388888888889Q14.254787037037037 9.689555555555556 14.34474537037037 9.507875Q14.434703703703704 9.326194444444445 14.434703703703704 9.100416666666666ZM15.99750925925926 8.264333333333333Q15.99750925925926 8.296083333333334 15.97987037037037 8.317250000000001Q15.962231481481481 8.338416666666667 15.934009259259259 8.338416666666667Q15.923425925925926 8.338416666666667 15.882856481481483 8.322541666666666Q15.842287037037037 8.306666666666667 15.796425925925925 8.306666666666667Q15.651787037037037 8.306666666666667 15.507148148148147 8.421319444444444Q15.362509259259259 8.535972222222222 15.270787037037037 8.710597222222223Q15.179064814814815 8.885222222222222 15.179064814814815 9.0475V9.929444444444444Q15.179064814814815 9.957666666666666 15.15789814814815 9.978833333333334Q15.136731481481482 10.0 15.10850925925926 10.0Q15.076759259259259 10.0 15.05735648148148 9.978833333333334Q15.037953703703703 9.957666666666666 15.037953703703703 9.929444444444444V8.310194444444445Q15.037953703703703 8.281972222222223 15.059120370370369 8.260805555555557Q15.080287037037037 8.239638888888889 15.10850925925926 8.239638888888889Q15.14025925925926 8.239638888888889 15.159662037037037 8.260805555555557Q15.179064814814815 8.281972222222223 15.179064814814815 8.310194444444445V8.684138888888889Q15.260203703703704 8.468944444444444 15.431300925925926 8.327833333333334Q15.602398148148149 8.186722222222222 15.835231481481483 8.183194444444444Q15.99750925925926 8.183194444444444 15.99750925925926 8.264333333333333ZM17.084064814814816 10.035277777777777Q16.84064814814815 10.035277777777777 16.641328703703707 9.913569444444445Q16.44200925925926 9.79186111111111 16.327356481481484 9.580194444444444Q16.212703703703706 9.368527777777778 16.212703703703706 9.111Q16.212703703703706 8.849944444444445 16.327356481481484 8.638277777777777Q16.44200925925926 8.42661111111111 16.63956481481482 8.304902777777777Q16.83712037037037 8.183194444444444 17.084064814814816 8.183194444444444Q17.327481481481485 8.183194444444444 17.526800925925926 8.304902777777777Q17.72612037037037 8.42661111111111 17.83900925925926 8.638277777777777Q17.95189814814815 8.849944444444445 17.95189814814815 9.111Q17.95189814814815 9.372055555555555 17.83900925925926 9.581958333333333Q17.72612037037037 9.79186111111111 17.526800925925926 9.913569444444445Q17.327481481481485 10.035277777777777 17.084064814814816 10.035277777777777ZM17.084064814814816 8.31725Q16.879453703703707 8.31725 16.711884259259264 8.421319444444444Q16.54431481481482 8.52538888888889 16.449064814814818 8.705305555555555Q16.353814814814818 8.885222222222222 16.353814814814818 9.111Q16.353814814814818 9.33325 16.449064814814818 9.513166666666667Q16.54431481481482 9.693083333333334 16.711884259259264 9.797152777777779Q16.879453703703707 9.901222222222222 17.084064814814816 9.901222222222222Q17.292203703703706 9.901222222222222 17.458009259259264 9.798916666666667Q17.623814814814818 9.69661111111111 17.717300925925926 9.514930555555555Q17.810787037037038 9.33325 17.810787037037038 9.111Q17.810787037037038 8.885222222222222 17.717300925925926 8.705305555555555Q17.623814814814818 8.52538888888889 17.458009259259264 8.421319444444444Q17.292203703703706 8.31725 17.084064814814816 8.31725ZM20.61889814814815 8.243166666666667 20.611842592592595 8.278444444444444 20.06503703703704 9.954138888888888Q20.04387037037037 10.0 19.998009259259263 10.0Q19.955675925925927 10.0 19.930981481481485 9.954138888888888L19.419453703703706 8.800555555555556L18.960842592592595 9.954138888888888Q18.95378703703704 9.975305555555556 18.93438425925926 9.987652777777779Q18.914981481481483 10.0 18.893814814814817 10.0Q18.87264814814815 10.0 18.853245370370374 9.987652777777779Q18.833842592592596 9.975305555555556 18.82678703703704 9.954138888888888L18.262342592592596 8.278444444444444L18.25528703703704 8.243166666666667Q18.25528703703704 8.211416666666667 18.276453703703705 8.193777777777779Q18.29762037037037 8.17613888888889 18.329370370370373 8.17613888888889Q18.375231481481485 8.17613888888889 18.39287037037037 8.222L18.89028703703704 9.760111111111112L19.359481481481485 8.599472222222222Q19.36653703703704 8.578305555555556 19.38593981481482 8.565958333333334Q19.405342592592596 8.553611111111111 19.426509259259262 8.553611111111111Q19.447675925925928 8.553611111111111 19.467078703703706 8.565958333333334Q19.486481481481484 8.578305555555556 19.49353703703704 8.599472222222222L19.990953703703706 9.749527777777779L20.481314814814816 8.222Q20.498953703703705 8.17613888888889 20.544814814814817 8.17613888888889Q20.576564814814816 8.17613888888889 20.597731481481482 8.193777777777779Q20.61889814814815 8.211416666666667 20.61889814814815 8.243166666666667ZM22.47803703703704 8.849944444444445V9.929444444444444Q22.47803703703704 9.957666666666666 22.456870370370375 9.978833333333334Q22.435703703703705 10.0 22.407481481481483 10.0Q22.375731481481484 10.0 22.356328703703706 9.978833333333334Q22.33692592592593 9.957666666666666 22.33692592592593 9.929444444444444V8.864055555555556Q22.33692592592593 8.624166666666667 22.211689814814818 8.470708333333334Q22.086453703703707 8.31725 21.832453703703706 8.31725Q21.677231481481485 8.31725 21.52730092592593 8.391333333333332Q21.37737037037037 8.465416666666666 21.28212037037037 8.592416666666667Q21.18687037037037 8.719416666666667 21.18687037037037 8.864055555555556V9.929444444444444Q21.18687037037037 9.957666666666666 21.165703703703706 9.978833333333334Q21.14453703703704 10.0 21.116314814814817 10.0Q21.08456481481482 10.0 21.06516203703704 9.978833333333334Q21.045759259259263 9.957666666666666 21.045759259259263 9.929444444444444V8.310194444444445Q21.045759259259263 8.281972222222223 21.06692592592593 8.260805555555557Q21.088092592592595 8.239638888888889 21.116314814814817 8.239638888888889Q21.148064814814816 8.239638888888889 21.167467592592594 8.260805555555557Q21.18687037037037 8.281972222222223 21.18687037037037 8.310194444444445V8.546555555555555Q21.289175925925928 8.387805555555556 21.47438425925926 8.285499999999999Q21.659592592592595 8.183194444444444 21.84656481481482 8.183194444444444Q22.160537037037038 8.183194444444444 22.31928703703704 8.368402777777778Q22.47803703703704 8.553611111111111 22.47803703703704 8.849944444444445ZM25.019212962962964 8.327833333333334Q25.019212962962964 8.356055555555555 24.999810185185186 8.375458333333334Q24.98040740740741 8.394861111111112 24.952185185185186 8.394861111111112H24.53590740740741V9.929444444444444Q24.53590740740741 9.957666666666666 24.51474074074074 9.978833333333334Q24.493574074074075 10.0 24.465351851851853 10.0Q24.433601851851854 10.0 24.414199074074077 9.978833333333334Q24.3947962962963 9.957666666666666 24.3947962962963 9.929444444444444V8.394861111111112H24.112574074074075Q24.087879629629633 8.394861111111112 24.066712962962967 8.373694444444446Q24.045546296296298 8.352527777777778 24.045546296296298 8.327833333333334Q24.045546296296298 8.296083333333334 24.064949074074075 8.278444444444444Q24.084351851851853 8.260805555555555 24.112574074074075 8.260805555555555H24.3947962962963V7.830416666666666Q24.3947962962963 7.622277777777778 24.5059212962963 7.514680555555556Q24.617046296296298 7.4070833333333335 24.78990740740741 7.4070833333333335Q24.878101851851856 7.4070833333333335 24.957476851851855 7.4300138888888885Q25.036851851851853 7.452944444444444 25.036851851851853 7.505861111111111Q25.036851851851853 7.534083333333333 25.015685185185188 7.55525Q24.99451851851852 7.576416666666667 24.969824074074076 7.576416666666667Q24.941601851851853 7.576416666666667 24.89574074074074 7.558777777777777Q24.814601851851855 7.534083333333333 24.7757962962963 7.534083333333333Q24.666435185185186 7.534083333333333 24.6011712962963 7.6081666666666665Q24.53590740740741 7.68225 24.53590740740741 7.830416666666666V8.260805555555555H24.952185185185186Q24.98040740740741 8.260805555555555 24.999810185185186 8.280208333333334Q25.019212962962964 8.299611111111112 25.019212962962964 8.327833333333334ZM26.15868518518519 10.035277777777777Q25.915268518518523 10.035277777777777 25.71594907407408 9.913569444444445Q25.516629629629634 9.79186111111111 25.401976851851856 9.580194444444444Q25.28732407407408 9.368527777777778 25.28732407407408 9.111Q25.28732407407408 8.849944444444445 25.401976851851856 8.638277777777777Q25.516629629629634 8.42661111111111 25.714185185185187 8.304902777777777Q25.911740740740743 8.183194444444444 26.15868518518519 8.183194444444444Q26.402101851851857 8.183194444444444 26.6014212962963 8.304902777777777Q26.800740740740743 8.42661111111111 26.913629629629632 8.638277777777777Q27.02651851851852 8.849944444444445 27.02651851851852 9.111Q27.02651851851852 9.372055555555555 26.913629629629632 9.581958333333333Q26.800740740740743 9.79186111111111 26.6014212962963 9.913569444444445Q26.402101851851857 10.035277777777777 26.15868518518519 10.035277777777777ZM26.15868518518519 8.31725Q25.95407407407408 8.31725 25.786504629629633 8.421319444444444Q25.618935185185187 8.52538888888889 25.523685185185187 8.705305555555555Q25.42843518518519 8.885222222222222 25.42843518518519 9.111Q25.42843518518519 9.33325 25.523685185185187 9.513166666666667Q25.618935185185187 9.693083333333334 25.786504629629633 9.797152777777779Q25.95407407407408 9.901222222222222 26.15868518518519 9.901222222222222Q26.366824074074078 9.901222222222222 26.532629629629632 9.798916666666667Q26.69843518518519 9.69661111111111 26.7919212962963 9.514930555555555Q26.88540740740741 9.33325 26.88540740740741 9.111Q26.88540740740741 8.885222222222222 26.7919212962963 8.705305555555555Q26.69843518518519 8.52538888888889 26.532629629629632 8.421319444444444Q26.366824074074078 8.31725 26.15868518518519 8.31725ZM28.741018518518523 9.901222222222222Q28.755129629629632 9.918861111111111 28.755129629629632 9.943555555555555Q28.755129629629632 9.971777777777778 28.735726851851854 9.992944444444444Q28.716324074074077 10.014111111111111 28.688101851851854 10.014111111111111Q28.656351851851856 10.014111111111111 28.628129629629633 9.98236111111111L28.049574074074076 9.227416666666667L27.467490740740743 9.985888888888889Q27.446324074074077 10.014111111111111 27.411046296296302 10.014111111111111Q27.38282407407408 10.014111111111111 27.363421296296302 9.996472222222224Q27.344018518518524 9.978833333333334 27.344018518518524 9.947083333333333Q27.344018518518524 9.92238888888889 27.358129629629634 9.90475L27.964907407407413 9.118055555555555L27.351074074074077 8.31725Q27.336962962962968 8.299611111111112 27.336962962962968 8.274916666666666Q27.336962962962968 8.243166666666667 27.359893518518525 8.222000000000001Q27.38282407407408 8.200833333333334 27.411046296296302 8.200833333333334Q27.446324074074077 8.200833333333334 27.467490740740743 8.232583333333334L28.053101851851856 8.998111111111111L28.628129629629633 8.232583333333334Q28.656351851851856 8.200833333333334 28.688101851851854 8.200833333333334Q28.719851851851857 8.200833333333334 28.737490740740746 8.218472222222221Q28.755129629629632 8.23611111111111 28.755129629629632 8.260805555555555Q28.755129629629632 8.281972222222223 28.737490740740746 8.306666666666667L28.137768518518524 9.111Z"/>
<path d="M3.1446388888888888 19.66486111111111Q3.1234722222222224 19.643694444444446 3.1234722222222224 19.611944444444443Q3.1234722222222224 19.58372222222222 3.1481666666666666 19.55726388888889Q3.172861111111111 19.530805555555556 3.2010833333333335 19.530805555555556Q3.2328333333333332 19.530805555555556 3.2610555555555556 19.562555555555555Q3.3986388888888888 19.724833333333333 3.5873749999999998 19.8095Q3.776111111111111 19.894166666666667 3.98425 19.894166666666667Q4.255888888888888 19.894166666666667 4.432277777777777 19.76363888888889Q4.608666666666666 19.633111111111113 4.608666666666666 19.417916666666667Q4.605138888888889 19.248583333333332 4.516944444444444 19.139222222222223Q4.42875 19.02986111111111 4.299986111111111 18.964597222222224Q4.171222222222222 18.899333333333335 3.9489722222222223 18.818194444444444Q3.7055555555555557 18.72647222222222 3.569736111111111 18.655916666666666Q3.4339166666666667 18.585361111111112 3.3369027777777776 18.454833333333333Q3.239888888888889 18.324305555555554 3.239888888888889 18.11263888888889Q3.239888888888889 17.939777777777778 3.335138888888889 17.798666666666666Q3.430388888888889 17.657555555555554 3.606777777777778 17.576416666666667Q3.783166666666667 17.49527777777778 4.016 17.49527777777778Q4.224138888888889 17.49527777777778 4.411111111111111 17.571125000000002Q4.598083333333333 17.64697222222222 4.7074444444444445 17.784555555555556Q4.7427222222222225 17.833944444444445 4.7427222222222225 17.85863888888889Q4.7427222222222225 17.88686111111111 4.716263888888889 17.909791666666663Q4.689805555555555 17.93272222222222 4.658055555555555 17.93272222222222Q4.629833333333333 17.93272222222222 4.6121944444444445 17.911555555555555Q4.513416666666666 17.784555555555556 4.358194444444444 17.710472222222222Q4.202972222222222 17.636388888888888 4.016 17.636388888888888Q3.747888888888889 17.636388888888888 3.569736111111111 17.76338888888889Q3.391583333333333 17.89038888888889 3.391583333333333 18.109111111111112Q3.391583333333333 18.260805555555557 3.4780138888888885 18.36663888888889Q3.5644444444444443 18.472472222222223 3.694972222222222 18.537736111111112Q3.8255 18.603 4.019527777777778 18.673555555555556Q4.266472222222222 18.76175 4.411111111111111 18.835833333333333Q4.55575 18.909916666666668 4.658055555555555 19.051027777777776Q4.760361111111111 19.192138888888888 4.760361111111111 19.424972222222223Q4.760361111111111 19.58725 4.665111111111111 19.728361111111113Q4.569861111111111 19.86947222222222 4.391708333333334 19.952375Q4.213555555555556 20.03527777777778 3.98425 20.03527777777778Q3.7231944444444443 20.03527777777778 3.529166666666667 19.945319444444443Q3.335138888888889 19.85536111111111 3.1446388888888888 19.66486111111111ZM6.919361111111112 17.597583333333333Q6.919361111111112 17.629333333333335 6.899958333333334 17.646972222222225Q6.880555555555556 17.66461111111111 6.848805555555556 17.66461111111111H6.062111111111111V19.929444444444446Q6.062111111111111 19.957666666666668 6.0409444444444444 19.978833333333334Q6.019777777777778 20.0 5.991555555555556 20.0Q5.9598055555555565 20.0 5.940402777777779 19.978833333333334Q5.921 19.957666666666668 5.921 19.929444444444446V17.66461111111111H5.134305555555556Q5.106083333333334 17.66461111111111 5.084916666666667 17.645208333333333Q5.063750000000001 17.625805555555555 5.063750000000001 17.597583333333333Q5.063750000000001 17.56936111111111 5.084916666666667 17.549958333333333Q5.106083333333334 17.530555555555555 5.134305555555556 17.530555555555555H6.848805555555556Q6.877027777777778 17.530555555555555 6.898194444444445 17.549958333333333Q6.919361111111112 17.56936111111111 6.919361111111112 17.597583333333333ZM7.469694444444445 20.0Q7.434416666666667 20.0 7.41501388888889 19.978833333333334Q7.395611111111112 19.957666666666668 7.395611111111112 19.925916666666666V17.60463888888889Q7.395611111111112 17.57288888888889 7.416777777777779 17.551722222222224Q7.437944444444446 17.530555555555555 7.469694444444445 17.530555555555555Q7.501444444444445 17.530555555555555 7.522611111111112 17.551722222222224Q7.543777777777779 17.57288888888889 7.543777777777779 17.60463888888889V19.925916666666666Q7.540250000000001 19.957666666666668 7.5190833333333345 19.978833333333334Q7.497916666666668 20.0 7.469694444444445 20.0ZM9.720416666666667 17.601111111111113Q9.720416666666667 17.63286111111111 9.69925 17.65226388888889Q9.678083333333333 17.671666666666667 9.649861111111111 17.671666666666667H8.390444444444446V18.645333333333333H9.491111111111111Q9.519333333333334 18.645333333333333 9.540500000000002 18.6665Q9.561666666666667 18.687666666666665 9.561666666666667 18.715888888888887Q9.561666666666667 18.74763888888889 9.540500000000002 18.767041666666668Q9.519333333333334 18.786444444444445 9.491111111111111 18.786444444444445H8.390444444444446V19.929444444444446Q8.390444444444446 19.957666666666668 8.371041666666667 19.978833333333334Q8.351638888888889 20.0 8.31988888888889 20.0Q8.28813888888889 20.0 8.268736111111112 19.978833333333334Q8.249333333333334 19.957666666666668 8.249333333333334 19.929444444444446V17.601111111111113Q8.249333333333334 17.57288888888889 8.270500000000002 17.551722222222224Q8.291666666666668 17.530555555555555 8.31988888888889 17.530555555555555H9.649861111111111Q9.678083333333333 17.530555555555555 9.69925 17.551722222222224Q9.720416666666667 17.57288888888889 9.720416666666667 17.601111111111113ZM13.284648148148149 17.79161111111111Q13.284648148148149 17.819833333333335 13.270537037037037 17.83747222222222Q13.24937037037037 17.865694444444443 13.21762037037037 17.865694444444443Q13.20350925925926 17.865694444444443 13.175287037037037 17.851583333333334Q12.847203703703704 17.629333333333335 12.480314814814815 17.629333333333335Q12.183981481481482 17.629333333333335 11.935273148148148 17.77573611111111Q11.686564814814815 17.922138888888888 11.541925925925927 18.181430555555558Q11.397287037037037 18.440722222222224 11.397287037037037 18.76527777777778Q11.397287037037037 19.089833333333335 11.541925925925927 19.349125Q11.686564814814815 19.608416666666667 11.935273148148148 19.754819444444443Q12.183981481481482 19.901222222222223 12.480314814814815 19.901222222222223Q12.850731481481482 19.901222222222223 13.17175925925926 19.6825Q13.189398148148149 19.668388888888888 13.214092592592593 19.668388888888888Q13.24937037037037 19.668388888888888 13.270537037037037 19.69661111111111Q13.284648148148149 19.71425 13.284648148148149 19.738944444444446Q13.284648148148149 19.77422222222222 13.256425925925926 19.79538888888889Q13.118842592592593 19.894166666666667 12.901884259259258 19.96472222222222Q12.684925925925926 20.03527777777778 12.480314814814815 20.03527777777778Q12.145175925925926 20.03527777777778 11.862953703703704 19.86947222222222Q11.580731481481482 19.703666666666667 11.414925925925926 19.412625Q11.24912037037037 19.121583333333334 11.24912037037037 18.76527777777778Q11.24912037037037 18.40897222222222 11.414925925925926 18.117930555555553Q11.580731481481482 17.826888888888888 11.862953703703704 17.661083333333334Q12.145175925925926 17.49527777777778 12.480314814814815 17.49527777777778Q12.69198148148148 17.49527777777778 12.891300925925925 17.558777777777777Q13.09062037037037 17.62227777777778 13.252898148148148 17.735166666666668Q13.284648148148149 17.75986111111111 13.284648148148149 17.79161111111111ZM15.577703703703703 17.601111111111113V19.12511111111111Q15.577703703703703 19.372055555555555 15.45423148148148 19.580194444444444Q15.330759259259258 19.788333333333334 15.12262037037037 19.911805555555556Q14.91448148148148 20.03527777777778 14.671064814814814 20.03527777777778Q14.42412037037037 20.03527777777778 14.215981481481482 19.911805555555556Q14.007842592592592 19.788333333333334 13.88437037037037 19.580194444444444Q13.760898148148147 19.372055555555555 13.760898148148147 19.12511111111111V17.601111111111113Q13.760898148148147 17.56936111111111 13.782064814814813 17.549958333333333Q13.80323148148148 17.530555555555555 13.83498148148148 17.530555555555555Q13.86673148148148 17.530555555555555 13.887898148148146 17.551722222222224Q13.909064814814814 17.57288888888889 13.909064814814814 17.601111111111113V19.12511111111111Q13.909064814814814 19.33325 14.011370370370368 19.509638888888887Q14.113675925925925 19.686027777777777 14.288300925925924 19.790097222222222Q14.462925925925925 19.894166666666667 14.671064814814814 19.894166666666667Q14.879203703703702 19.894166666666667 15.053828703703703 19.790097222222222Q15.228453703703703 19.686027777777777 15.332523148148148 19.509638888888887Q15.436592592592591 19.33325 15.436592592592591 19.12511111111111V17.601111111111113Q15.436592592592591 17.57288888888889 15.455995370370369 17.551722222222224Q15.475398148148146 17.530555555555555 15.507148148148147 17.530555555555555Q15.538898148148148 17.530555555555555 15.558300925925925 17.551722222222224Q15.577703703703703 17.57288888888889 15.577703703703703 17.601111111111113ZM18.07889814814815 19.925916666666666Q18.07889814814815 19.957666666666668 18.05949537037037 19.977069444444446Q18.040092592592593 19.996472222222224 18.01187037037037 19.996472222222224Q17.9907037037037 19.996472222222224 17.98012037037037 19.989416666666667Q17.88487037037037 19.9365 17.828425925925927 19.811263888888888Q17.771981481481482 19.686027777777777 17.771981481481482 19.400277777777777Q17.771981481481482 19.111 17.61675925925926 19.00340277777778Q17.461537037037036 18.895805555555555 17.256925925925927 18.895805555555555H16.431425925925925V19.929444444444446Q16.431425925925925 19.957666666666668 16.41025925925926 19.978833333333334Q16.389092592592593 20.0 16.35734259259259 20.0Q16.325592592592592 20.0 16.304425925925926 19.978833333333334Q16.283259259259257 19.957666666666668 16.283259259259257 19.929444444444446V17.601111111111113Q16.283259259259257 17.57288888888889 16.304425925925926 17.551722222222224Q16.325592592592592 17.530555555555555 16.353814814814815 17.530555555555555H17.285148148148146Q17.48975925925926 17.530555555555555 17.648509259259257 17.613458333333334Q17.807259259259258 17.69636111111111 17.8954537037037 17.841Q17.98364814814815 17.98563888888889 17.98364814814815 18.169083333333333Q17.98364814814815 18.405444444444445 17.858412037037034 18.574777777777776Q17.733175925925924 18.74411111111111 17.53209259259259 18.804083333333335Q17.701425925925925 18.857 17.810787037037038 19.01398611111111Q17.920148148148147 19.170972222222222 17.920148148148147 19.400277777777777Q17.920148148148147 19.63663888888889 17.950134259259258 19.730125Q17.98012037037037 19.823611111111113 18.040092592592593 19.862416666666668Q18.07889814814815 19.88711111111111 18.07889814814815 19.925916666666666ZM17.302787037037035 18.754694444444446Q17.525037037037038 18.733527777777777 17.68025925925926 18.578305555555556Q17.83548148148148 18.423083333333334 17.83548148148148 18.17261111111111Q17.83548148148148 17.95388888888889 17.68025925925926 17.81277777777778Q17.525037037037038 17.671666666666667 17.26750925925926 17.671666666666667H16.431425925925925V18.754694444444446ZM20.061509259259257 19.929444444444446Q20.061509259259257 19.961194444444445 20.04034259259259 19.980597222222222Q20.019175925925925 20.0 19.990953703703703 20.0H18.696259259259257Q18.66450925925926 20.0 18.64510648148148 19.978833333333334Q18.625703703703703 19.957666666666668 18.625703703703703 19.929444444444446V17.601111111111113Q18.625703703703703 17.57288888888889 18.64687037037037 17.551722222222224Q18.668037037037035 17.530555555555555 18.699787037037037 17.530555555555555Q18.731537037037036 17.530555555555555 18.752703703703702 17.551722222222224Q18.773870370370368 17.57288888888889 18.773870370370368 17.601111111111113V19.858888888888888H19.990953703703703Q20.019175925925925 19.858888888888888 20.04034259259259 19.880055555555558Q20.061509259259257 19.901222222222223 20.061509259259257 19.929444444444446ZM23.862101851851854 17.601111111111113V19.929444444444446Q23.862101851851854 19.957666666666668 23.8391712962963 19.978833333333334Q23.816240740740742 20.0 23.78801851851852 20.0Q23.756268518518517 20.0 23.73510185185185 19.978833333333334Q23.713935185185186 19.957666666666668 23.713935185185186 19.929444444444446V17.819833333333335L22.80376851851852 19.195666666666668Q22.78612962962963 19.22388888888889 22.75437962962963 19.22388888888889Q22.715574074074073 19.22388888888889 22.697935185185187 19.195666666666668L21.784240740740742 17.816305555555555V19.929444444444446Q21.784240740740742 19.957666666666668 21.763074074074076 19.978833333333334Q21.741907407407407 20.0 21.713685185185184 20.0Q21.681935185185186 20.0 21.662532407407408 19.978833333333334Q21.64312962962963 19.957666666666668 21.64312962962963 19.929444444444446V17.601111111111113Q21.64312962962963 17.576416666666667 21.662532407407408 17.553486111111113Q21.681935185185186 17.530555555555555 21.710157407407408 17.530555555555555Q21.75601851851852 17.530555555555555 21.777185185185186 17.562305555555554L22.75437962962963 19.01575L23.731574074074075 17.562305555555554Q23.759796296296297 17.5235 23.798601851851853 17.530555555555555Q23.826824074074075 17.534083333333335 23.844462962962965 17.553486111111113Q23.862101851851854 17.57288888888889 23.862101851851854 17.601111111111113ZM26.380935185185184 19.932972222222222Q26.380935185185184 19.96472222222222 26.359768518518518 19.98236111111111Q26.338601851851852 20.0 26.30685185185185 20.0Q26.282157407407407 20.0 26.26275462962963 19.987652777777775Q26.243351851851852 19.975305555555554 26.236296296296295 19.954138888888888L25.939962962962962 19.227416666666667L25.94349074074074 19.234472222222223H24.761685185185183L24.475935185185183 19.954138888888888Q24.458296296296297 20.0 24.412435185185185 20.0Q24.380685185185182 20.0 24.361282407407405 19.98236111111111Q24.341879629629627 19.96472222222222 24.33835185185185 19.94002777777778Q24.334824074074074 19.925916666666666 24.341879629629627 19.90475L25.29085185185185 17.56936111111111Q25.301435185185184 17.541138888888888 25.317310185185185 17.532319444444443Q25.333185185185183 17.5235 25.35787962962963 17.5235Q25.410796296296294 17.5235 25.428435185185183 17.56936111111111L26.377407407407407 19.90475Q26.380935185185184 19.915333333333333 26.380935185185184 19.932972222222222ZM24.818129629629627 19.09336111111111H25.887046296296294L25.347296296296296 17.76338888888889ZM26.649046296296294 19.66486111111111Q26.62787962962963 19.643694444444446 26.62787962962963 19.611944444444443Q26.62787962962963 19.58372222222222 26.652574074074074 19.55726388888889Q26.677268518518517 19.530805555555556 26.70549074074074 19.530805555555556Q26.737240740740738 19.530805555555556 26.76546296296296 19.562555555555555Q26.903046296296296 19.724833333333333 27.091782407407408 19.8095Q27.280518518518516 19.894166666666667 27.488657407407405 19.894166666666667Q27.760296296296296 19.894166666666667 27.936685185185183 19.76363888888889Q28.113074074074074 19.633111111111113 28.113074074074074 19.417916666666667Q28.109546296296294 19.248583333333332 28.02135185185185 19.139222222222223Q27.933157407407407 19.02986111111111 27.804393518518516 18.964597222222224Q27.67562962962963 18.899333333333335 27.453379629629627 18.818194444444444Q27.209962962962962 18.72647222222222 27.074143518518518 18.655916666666666Q26.93832407407407 18.585361111111112 26.841310185185183 18.454833333333333Q26.744296296296294 18.324305555555554 26.744296296296294 18.11263888888889Q26.744296296296294 17.939777777777778 26.839546296296295 17.798666666666666Q26.934796296296295 17.657555555555554 27.111185185185185 17.576416666666667Q27.287574074074072 17.49527777777778 27.520407407407404 17.49527777777778Q27.728546296296294 17.49527777777778 27.915518518518518 17.571125000000002Q28.10249074074074 17.64697222222222 28.21185185185185 17.784555555555556Q28.24712962962963 17.833944444444445 28.24712962962963 17.85863888888889Q28.24712962962963 17.88686111111111 28.220671296296295 17.909791666666663Q28.19421296296296 17.93272222222222 28.162462962962962 17.93272222222222Q28.13424074074074 17.93272222222222 28.11660185185185 17.911555555555555Q28.017824074074074 17.784555555555556 27.86260185185185 17.710472222222222Q27.707379629629628 17.636388888888888 27.520407407407404 17.636388888888888Q27.252296296296294 17.636388888888888 27.074143518518518 17.76338888888889Q26.89599074074074 17.89038888888889 26.89599074074074 18.109111111111112Q26.89599074074074 18.260805555555557 26.982421296296295 18.36663888888889Q27.06885185185185 18.472472222222223 27.19937962962963 18.537736111111112Q27.329907407407408 18.603 27.523935185185184 18.673555555555556Q27.77087962962963 18.76175 27.915518518518518 18.835833333333333Q28.060157407407406 18.909916666666668 28.162462962962962 19.051027777777776Q28.264768518518515 19.192138888888888 28.264768518518515 19.424972222222223Q28.264768518518515 19.58725 28.169518518518515 19.728361111111113Q28.07426851851852 19.86947222222222 27.89611574074074 19.952375Q27.71796296296296 20.03527777777778 27.488657407407405 20.03527777777778Q27.22760185185185 20.03527777777778 27.033574074074075 19.945319444444443Q26.839546296296295 19.85536111111111 26.649046296296294 19.66486111111111ZM28.58932407407407 19.66486111111111Q28.568157407407405 19.643694444444446 28.568157407407405 19.611944444444443Q28.568157407407405 19.58372222222222 28.592851851851847 19.55726388888889Q28.617546296296293 19.530805555555556 28.645768518518516 19.530805555555556Q28.677518518518514 19.530805555555556 28.705740740740737 19.562555555555555Q28.843324074074072 19.724833333333333 29.03206018518518 19.8095Q29.220796296296292 19.894166666666667 29.428935185185182 19.894166666666667Q29.700574074074073 19.894166666666667 29.876962962962963 19.76363888888889Q30.05335185185185 19.633111111111113 30.05335185185185 19.417916666666667Q30.04982407407407 19.248583333333332 29.961629629629627 19.139222222222223Q29.873435185185183 19.02986111111111 29.744671296296296 18.964597222222224Q29.615907407407406 18.899333333333335 29.393657407407403 18.818194444444444Q29.15024074074074 18.72647222222222 29.01442129629629 18.655916666666666Q28.878601851851847 18.585361111111112 28.78158796296296 18.454833333333333Q28.68457407407407 18.324305555555554 28.68457407407407 18.11263888888889Q28.68457407407407 17.939777777777778 28.77982407407407 17.798666666666666Q28.87507407407407 17.657555555555554 29.051462962962958 17.576416666666667Q29.22785185185185 17.49527777777778 29.460685185185184 17.49527777777778Q29.66882407407407 17.49527777777778 29.85579629629629 17.571125000000002Q30.042768518518514 17.64697222222222 30.152129629629627 17.784555555555556Q30.187407407407406 17.833944444444445 30.187407407407406 17.85863888888889Q30.187407407407406 17.88686111111111 30.16094907407407 17.909791666666663Q30.134490740740738 17.93272222222222 30.10274074074074 17.93272222222222Q30.074518518518516 17.93272222222222 30.056879629629627 17.911555555555555Q29.95810185185185 17.784555555555556 29.80287962962963 17.710472222222222Q29.647657407407404 17.636388888888888 29.460685185185184 17.636388888888888Q29.19257407407407 17.636388888888888 29.01442129629629 17.76338888888889Q28.836268518518516 17.89038888888889 28.836268518518516 18.109111111111112Q28.836268518518516 18.260805555555557 28.92269907407407 18.36663888888889Q29.009129629629626 18.472472222222223 29.139657407407405 18.537736111111112Q29.270185185185184 18.603 29.46421296296296 18.673555555555556Q29.711157407407406 18.76175 29.855796296296294 18.835833333333333Q30.000435185185182 18.909916666666668 30.10274074074074 19.051027777777776Q30.205046296296295 19.192138888888888 30.205046296296295 19.424972222222223Q30.205046296296295 19.58725 30.109796296296295 19.728361111111113Q30.014546296296295 19.86947222222222 29.836393518518516 19.952375Q29.658240740740737 20.03527777777778 29.428935185185182 20.03527777777778Q29.167879629629628 20.03527777777778 28.973851851851848 19.945319444444443Q28.77982407407407 19.85536111111111 28.58932407407407 19.66486111111111Z"/>
</g>
</svg>
