<?xml version="1.0" encoding="utf-8"?>
<svg xmlns="http://www.w3.org/2000/svg" width="60.96mm" height="128.50mm" viewBox="0 0 60.96 128.50">
<g style="stroke:#000000;stroke-width:0.25;stroke-linecap:round;stroke-linejoin:bevel">
<path d="M4.806222222222222 11.903236111111111V14.249208333333334Q4.806222222222222 14.277430555555556 4.785055555555555 14.298597222222224Q4.763888888888889 14.31976388888889 4.735666666666667 14.31976388888889Q4.703916666666666 14.31976388888889 4.684513888888889 14.298597222222224Q4.665111111111111 14.277430555555556 4.665111111111111 14.249208333333334V13.20851388888889Q4.580444444444444 13.395486111111111 4.397 13.52248611111111Q4.213555555555556 13.649486111111111 3.9877777777777776 13.649486111111111Q3.758472222222222 13.649486111111111 3.5715 13.527777777777779Q3.3845277777777776 13.406069444444444 3.2769305555555555 13.194402777777778Q3.1693333333333333 12.982736111111112 3.1693333333333333 12.721680555555556Q3.1693333333333333 12.460625 3.2769305555555555 12.248958333333334Q3.3845277777777776 12.037291666666668 3.5715 11.917347222222222Q3.758472222222222 11.797402777777778 3.9877777777777776 11.797402777777778Q4.2065 11.797402777777778 4.393472222222222 11.920875Q4.580444444444444 12.044347222222223 4.665111111111111 12.241902777777778V11.903236111111111Q4.665111111111111 11.875013888888889 4.684513888888889 11.853847222222221Q4.703916666666666 11.832680555555555 4.735666666666667 11.832680555555555Q4.767416666666667 11.832680555555555 4.786819444444444 11.853847222222221Q4.806222222222222 11.875013888888889 4.806222222222222 11.903236111111111ZM4.679222222222222 12.721680555555556Q4.679222222222222 12.49590277777778 4.591027777777778 12.315986111111112Q4.502833333333333 12.136069444444445 4.345847222222222 12.033763888888888Q4.188861111111111 11.931458333333333 3.9948333333333332 11.931458333333333Q3.804333333333333 11.931458333333333 3.647347222222222 12.033763888888888Q3.490361111111111 12.136069444444445 3.400402777777778 12.31775Q3.3104444444444443 12.499430555555556 3.3104444444444443 12.721680555555556Q3.3104444444444443 12.947458333333334 3.400402777777778 13.127375Q3.490361111111111 13.307291666666668 3.6455833333333336 13.411361111111113Q3.8008055555555558 13.515430555555556 3.9948333333333332 13.515430555555556Q4.192388888888889 13.515430555555556 4.347611111111111 13.413125Q4.502833333333333 13.310819444444444 4.591027777777778 13.129138888888889Q4.679222222222222 12.947458333333334 4.679222222222222 12.721680555555556ZM6.792361111111111 11.924402777777779V12.950986111111112Q6.792361111111111 13.286125 6.603625 13.46075Q6.414888888888889 13.635375 6.090333333333334 13.635375Q5.765777777777778 13.635375 5.578805555555556 13.46075Q5.3918333333333335 13.286125 5.3918333333333335 12.950986111111112V11.924402777777779Q5.3918333333333335 11.896180555555556 5.413 11.87501388888889Q5.434166666666666 11.853847222222223 5.4623888888888885 11.853847222222223Q5.494138888888889 11.853847222222223 5.513541666666667 11.87501388888889Q5.532944444444444 11.896180555555556 5.532944444444444 11.924402777777779V12.950986111111112Q5.532944444444444 13.215569444444444 5.681111111111111 13.358444444444444Q5.829277777777778 13.501319444444444 6.090333333333334 13.501319444444444Q6.354916666666666 13.501319444444444 6.503083333333333 13.358444444444444Q6.65125 13.215569444444444 6.65125 12.950986111111112V11.924402777777779Q6.65125 11.896180555555556 6.670652777777778 11.87501388888889Q6.690055555555555 11.853847222222223 6.721805555555555 11.853847222222223Q6.753555555555556 11.853847222222223 6.772958333333333 11.87501388888889Q6.792361111111111 11.896180555555556 6.792361111111111 11.924402777777779ZM7.448527777777778 13.614208333333334Q7.416777777777778 13.614208333333334 7.397375 13.593041666666668Q7.377972222222223 13.571875 7.377972222222223 13.543652777777778V11.867958333333334Q7.377972222222223 11.839736111111112 7.399138888888889 11.818569444444446Q7.420305555555556 11.797402777777778 7.448527777777778 11.797402777777778Q7.480277777777778 11.797402777777778 7.499680555555556 11.818569444444446Q7.519083333333334 11.839736111111112 7.519083333333334 11.867958333333334V13.543652777777778Q7.519083333333334 13.571875 7.497916666666667 13.593041666666668Q7.47675 13.614208333333334 7.448527777777778 13.614208333333334ZM7.325055555555556 11.444625000000002V11.41640277777778Q7.325055555555556 11.36701388888889 7.360333333333334 11.335263888888889Q7.395611111111112 11.30351388888889 7.452055555555556 11.30351388888889Q7.501444444444445 11.30351388888889 7.534958333333334 11.335263888888889Q7.568472222222223 11.36701388888889 7.568472222222223 11.41640277777778V11.444625000000002Q7.568472222222223 11.49401388888889 7.534958333333334 11.52576388888889Q7.501444444444445 11.55751388888889 7.4485277777777785 11.55751388888889Q7.392083333333334 11.55751388888889 7.358569444444445 11.52576388888889Q7.325055555555556 11.49401388888889 7.325055555555556 11.444625000000002ZM9.480527777777779 12.047875000000001Q9.480527777777779 12.076097222222224 9.461125000000001 12.09726388888889Q9.441722222222223 12.118430555555555 9.4135 12.118430555555555Q9.38175 12.118430555555555 9.365874999999999 12.107847222222222Q9.35 12.09726388888889 9.321777777777779 12.069041666666667Q9.275916666666667 12.016125 9.226527777777779 11.991430555555556Q9.099527777777778 11.931458333333333 8.866694444444445 11.931458333333333Q8.665611111111112 11.931458333333333 8.49451388888889 12.037291666666668Q8.323416666666667 12.143125000000001 8.222875 12.324805555555557Q8.122333333333334 12.506486111111112 8.122333333333334 12.721680555555556Q8.122333333333334 12.947458333333334 8.215819444444445 13.129138888888889Q8.309305555555556 13.310819444444444 8.480402777777778 13.413125Q8.6515 13.515430555555556 8.866694444444445 13.515430555555556Q9.007805555555557 13.515430555555556 9.088944444444445 13.490736111111111Q9.170083333333334 13.466041666666667 9.251222222222223 13.420180555555556Q9.307666666666666 13.384902777777778 9.35 13.342569444444445Q9.367638888888889 13.324930555555556 9.385277777777777 13.312583333333333Q9.402916666666666 13.300236111111111 9.420555555555556 13.300236111111111Q9.448777777777778 13.300236111111111 9.46465277777778 13.317875Q9.480527777777779 13.33551388888889 9.480527777777779 13.363736111111113Q9.480527777777779 13.413125 9.39938888888889 13.481916666666667Q9.31825 13.550708333333334 9.175375 13.600097222222223Q9.0325 13.649486111111111 8.856111111111112 13.649486111111111Q8.602111111111112 13.649486111111111 8.402791666666667 13.529541666666667Q8.203472222222222 13.409597222222223 8.092347222222223 13.197930555555555Q7.981222222222223 12.986263888888889 7.981222222222223 12.721680555555556Q7.981222222222223 12.474736111111111 8.092347222222223 12.263069444444444Q8.203472222222222 12.051402777777778 8.406319444444446 11.924402777777779Q8.609166666666667 11.797402777777778 8.870222222222223 11.797402777777778Q9.021916666666668 11.797402777777778 9.164791666666666 11.832680555555555Q9.307666666666666 11.867958333333334 9.394097222222221 11.926166666666667Q9.480527777777779 11.984375 9.480527777777779 12.047875000000001ZM11.3185 13.543652777777778Q11.3185 13.575402777777779 11.292041666666666 13.594805555555556Q11.265583333333334 13.614208333333334 11.247944444444444 13.614208333333334Q11.219722222222222 13.614208333333334 11.195027777777778 13.58951388888889L10.369527777777778 12.711097222222223L10.073194444444445 12.958041666666666V13.543652777777778Q10.073194444444445 13.571875 10.053791666666667 13.593041666666668Q10.03438888888889 13.614208333333334 10.002638888888889 13.614208333333334Q9.970888888888888 13.614208333333334 9.95148611111111 13.593041666666668Q9.932083333333333 13.571875 9.932083333333333 13.543652777777778V11.074208333333335Q9.932083333333333 11.045986111111112 9.95148611111111 11.024819444444447Q9.970888888888888 11.003652777777779 10.002638888888889 11.003652777777779Q10.03438888888889 11.003652777777779 10.053791666666667 11.024819444444447Q10.073194444444445 11.045986111111112 10.073194444444445 11.074208333333335V12.78165277777778L11.180916666666667 11.853847222222223Q11.202083333333333 11.832680555555555 11.226777777777777 11.832680555555555Q11.254999999999999 11.832680555555555 11.276166666666665 11.853847222222221Q11.297333333333333 11.875013888888889 11.297333333333333 11.90676388888889Q11.297333333333333 11.93851388888889 11.272638888888888 11.959680555555556L10.47888888888889 12.619375L11.297333333333333 13.490736111111111Q11.3185 13.51190277777778 11.3185 13.543652777777778ZM14.575814814814816 12.714625Q14.575814814814816 12.975680555555556 14.468217592592593 13.189111111111112Q14.36062037037037 13.402541666666668 14.173648148148148 13.52601388888889Q13.986675925925926 13.649486111111111 13.75737037037037 13.649486111111111Q13.549231481481481 13.649486111111111 13.372842592592592 13.538361111111112Q13.196453703703703 13.427236111111112 13.080037037037037 13.229680555555555V13.543652777777778Q13.080037037037037 13.571875 13.06063425925926 13.593041666666668Q13.041231481481482 13.614208333333334 13.009481481481481 13.614208333333334Q12.981259259259259 13.614208333333334 12.960092592592591 13.593041666666668Q12.938925925925925 13.571875 12.938925925925925 13.543652777777778V11.077736111111111Q12.938925925925925 11.049513888888889 12.958328703703703 11.028347222222223Q12.97773148148148 11.007180555555557 13.009481481481481 11.007180555555557Q13.041231481481482 11.007180555555557 13.06063425925926 11.028347222222223Q13.080037037037037 11.049513888888889 13.080037037037037 11.077736111111111V12.227791666666667Q13.18587037037037 12.019652777777779 13.36402314814815 11.908527777777778Q13.542175925925926 11.797402777777778 13.75737037037037 11.797402777777778Q13.990203703703704 11.797402777777778 14.177175925925926 11.915583333333334Q14.364148148148148 12.03376388888889 14.469981481481483 12.243666666666668Q14.575814814814816 12.453569444444446 14.575814814814816 12.714625ZM14.434703703703704 12.714625Q14.434703703703704 12.488847222222223 14.34474537037037 12.310694444444444Q14.254787037037037 12.132541666666667 14.099564814814816 12.032Q13.944342592592593 11.931458333333333 13.750314814814814 11.931458333333333Q13.55275925925926 11.931458333333333 13.395773148148148 12.032Q13.238787037037037 12.132541666666667 13.152356481481482 12.310694444444444Q13.065925925925926 12.488847222222223 13.065925925925926 12.714625Q13.065925925925926 12.940402777777779 13.154120370370372 13.123847222222224Q13.242314814814815 13.307291666666668 13.397537037037036 13.411361111111113Q13.55275925925926 13.515430555555556 13.750314814814814 13.515430555555556Q13.944342592592593 13.515430555555556 14.099564814814816 13.409597222222223Q14.254787037037037 13.30376388888889 14.34474537037037 13.122083333333334Q14.434703703703704 12.940402777777779 14.434703703703704 12.714625ZM15.99750925925926 11.878541666666667Q15.99750925925926 11.910291666666668 15.97987037037037 11.931458333333335Q15.962231481481481 11.952625000000001 15.934009259259259 11.952625000000001Q15.923425925925926 11.952625000000001 15.882856481481483 11.93675Q15.842287037037037 11.920875 15.796425925925925 11.920875Q15.651787037037037 11.920875 15.507148148148147 12.035527777777778Q15.362509259259259 12.150180555555556 15.270787037037037 12.324805555555557Q15.179064814814815 12.499430555555556 15.179064814814815 12.661708333333333V13.543652777777778Q15.179064814814815 13.571875 15.15789814814815 13.593041666666668Q15.136731481481482 13.614208333333334 15.10850925925926 13.614208333333334Q15.076759259259259 13.614208333333334 15.05735648148148 13.593041666666668Q15.037953703703703 13.571875 15.037953703703703 13.543652777777778V11.924402777777779Q15.037953703703703 11.896180555555556 15.059120370370369 11.87501388888889Q15.080287037037037 11.853847222222223 15.10850925925926 11.853847222222223Q15.14025925925926 11.853847222222223 15.159662037037037 11.87501388888889Q15.179064814814815 11.896180555555556 15.179064814814815 11.924402777777779V12.298347222222223Q15.260203703703704 12.083152777777778 15.431300925925926 11.942041666666668Q15.602398148148149 11.800930555555556 15.835231481481483 11.797402777777778Q15.99750925925926 11.797402777777778 15.99750925925926 11.878541666666667ZM17.084064814814816 13.649486111111111Q16.84064814814815 13.649486111111111 16.641328703703707 13.527777777777779Q16.44200925925926 13.406069444444444 16.327356481481484 13.194402777777778Q16.212703703703706 12.982736111111112 16.212703703703706 12.725208333333335Q16.212703703703706 12.464152777777779 16.327356481481484 12.25248611111111Q16.44200925925926 12.040819444444445 16.63956481481482 11.91911111111111Q16.83712037037037 11.797402777777778 17.084064814814816 11.797402777777778Q17.327481481481485 11.797402777777778 17.526800925925926 11.91911111111111Q17.72612037037037 12.040819444444445 17.83900925925926 12.25248611111111Q17.95189814814815 12.464152777777779 17.95189814814815 12.725208333333335Q17.95189814814815 12.986263888888889 17.83900925925926 13.196166666666667Q17.72612037037037 13.406069444444444 17.526800925925926 13.527777777777779Q17.327481481481485 13.649486111111111 17.084064814814816 13.649486111111111ZM17.084064814814816 11.931458333333333Q16.879453703703707 11.931458333333333 16.711884259259264 12.035527777777778Q16.54431481481482 12.139597222222223 16.449064814814818 12.319513888888888Q16.353814814814818 12.499430555555556 16.353814814814818 12.725208333333335Q16.353814814814818 12.947458333333334 16.449064814814818 13.127375Q16.54431481481482 13.307291666666668 16.711884259259264 13.411361111111113Q16.879453703703707 13.515430555555556 17.084064814814816 13.515430555555556Q17.292203703703706 13.515430555555556 17.458009259259264 13.413125Q17.623814814814818 13.310819444444444 17.717300925925926 13.129138888888889Q17.810787037037038 12.947458333333334 17.810787037037038 12.725208333333335Q17.810787037037038 12.499430555555556 17.717300925925926 12.319513888888888Q17.623814814814818 12.139597222222223 17.458009259259264 12.035527777777778Q17.292203703703706 11.931458333333333 17.084064814814816 11.931458333333333ZM20.61889814814815 11.857375000000001 20.611842592592595 11.892652777777778 20.06503703703704 13.568347222222222Q20.04387037037037 13.614208333333334 19.998009259259263 13.614208333333334Q19.955675925925927 13.614208333333334 19.930981481481485 13.568347222222222L19.419453703703706 12.41476388888889L18.960842592592595 13.568347222222222Q18.95378703703704 13.58951388888889 18.93438425925926 13.601861111111113Q18.914981481481483 13.614208333333334 18.893814814814817 13.614208333333334Q18.87264814814815 13.614208333333334 18.853245370370374 13.601861111111113Q18.833842592592596 13.58951388888889 18.82678703703704 13.568347222222222L18.262342592592596 11.892652777777778L18.25528703703704 11.857375000000001Q18.25528703703704 11.825625 18.276453703703705 11.807986111111113Q18.29762037037037 11.790347222222223 18.329370370370373 11.790347222222223Q18.375231481481485 11.790347222222223 18.39287037037037 11.836208333333333L18.89028703703704 13.374319444444446L19.359481481481485 12.213680555555555Q19.36653703703704 12.19251388888889 19.38593981481482 12.180166666666668Q19.405342592592596 12.167819444444445 19.426509259259262 12.167819444444445Q19.447675925925928 12.167819444444445 19.467078703703706 12.180166666666668Q19.486481481481484 12.19251388888889 19.49353703703704 12.213680555555555L19.990953703703706 13.363736111111113L20.481314814814816 11.836208333333333Q20.498953703703705 11.790347222222223 20.544814814814817 11.790347222222223Q20.576564814814816 11.790347222222223 20.597731481481482 11.807986111111113Q20.61889814814815 11.825625 20.61889814814815 11.857375000000001ZM22.47803703703704 12.464152777777779V13.543652777777778Q22.47803703703704 13.571875 22.456870370370375 13.593041666666668Q22.435703703703705 13.614208333333334 22.407481481481483 13.614208333333334Q22.375731481481484 13.614208333333334 22.356328703703706 13.593041666666668Q22.33692592592593 13.571875 22.33692592592593 13.543652777777778V12.47826388888889Q22.33692592592593 12.238375000000001 22.211689814814818 12.084916666666668Q22.086453703703707 11.931458333333333 21.832453703703706 11.931458333333333Q21.677231481481485 11.931458333333333 21.52730092592593 12.005541666666666Q21.37737037037037 12.079625 21.28212037037037 12.206625Q21.18687037037037 12.333625000000001 21.18687037037037 12.47826388888889V13.543652777777778Q21.18687037037037 13.571875 21.165703703703706 13.593041666666668Q21.14453703703704 13.614208333333334 21.116314814814817 13.614208333333334Q21.08456481481482 13.614208333333334 21.06516203703704 13.593041666666668Q21.045759259259263 13.571875 21.045759259259263 13.543652777777778V11.924402777777779Q21.045759259259263 11.896180555555556 21.06692592592593 11.87501388888889Q21.088092592592595 11.853847222222223 21.116314814814817 11.853847222222223Q21.148064814814816 11.853847222222223 21.167467592592594 11.87501388888889Q21.18687037037037 11.896180555555556 21.18687037037037 11.924402777777779V12.160763888888889Q21.289175925925928 12.00201388888889 21.47438425925926 11.899708333333333Q21.659592592592595 11.797402777777778 21.84656481481482 11.797402777777778Q22.160537037037038 11.797402777777778 22.31928703703704 11.982611111111112Q22.47803703703704 12.167819444444445 22.47803703703704 12.464152777777779ZM25.019212962962964 11.942041666666668Q25.019212962962964 11.970263888888889 24.999810185185186 11.989666666666668Q24.98040740740741 12.009069444444446 24.952185185185186 12.009069444444446H24.53590740740741V13.543652777777778Q24.53590740740741 13.571875 24.51474074074074 13.593041666666668Q24.493574074074075 13.614208333333334 24.465351851851853 13.614208333333334Q24.433601851851854 13.614208333333334 24.414199074074077 13.593041666666668Q24.3947962962963 13.571875 24.3947962962963 13.543652777777778V12.009069444444446H24.112574074074075Q24.087879629629633 12.009069444444446 24.066712962962967 11.98790277777778Q24.045546296296298 11.966736111111112 24.045546296296298 11.942041666666668Q24.045546296296298 11.910291666666668 24.064949074074075 11.892652777777778Q24.084351851851853 11.875013888888889 24.112574074074075 11.875013888888889H24.3947962962963V11.444625Q24.3947962962963 11.236486111111113 24.5059212962963 11.12888888888889Q24.617046296296298 11.021291666666666 24.78990740740741 11.021291666666666Q24.878101851851856 11.021291666666666 24.957476851851855 11.044222222222222Q25.036851851851853 11.067152777777778 25.036851851851853 11.120069444444445Q25.036851851851853 11.148291666666667 25.015685185185188 11.169458333333335Q24.99451851851852 11.190625 24.969824074074076 11.190625Q24.941601851851853 11.190625 24.89574074074074 11.172986111111111Q24.814601851851855 11.148291666666667 24.7757962962963 11.148291666666667Q24.666435185185186 11.148291666666667 24.6011712962963 11.222375Q24.53590740740741 11.296458333333334 24.53590740740741 11.444625V11.875013888888889H24.952185185185186Q24.98040740740741 11.875013888888889 24.999810185185186 11.894416666666668Q25.019212962962964 11.913819444444446 25.019212962962964 11.942041666666668ZM26.15868518518519 13.649486111111111Q25.915268518518523 13.649486111111111 25.71594907407408 13.527777777777779Q25.516629629629634 13.406069444444444 25.401976851851856 13.194402777777778Q25.28732407407408 12.982736111111112 25.28732407407408 12.725208333333335Q25.28732407407408 12.464152777777779 25.401976851851856 12.25248611111111Q25.516629629629634 12.040819444444445 25.714185185185187 11.91911111111111Q25.911740740740743 11.797402777777778 26.15868518518519 11.797402777777778Q26.402101851851857 11.797402777777778 26.6014212962963 11.91911111111111Q26.800740740740743 12.040819444444445 26.913629629629632 12.25248611111111Q27.02651851851852 12.464152777777779 27.02651851851852 12.725208333333335Q27.02651851851852 12.986263888888889 26.913629629629632 13.196166666666667Q26.800740740740743 13.406069444444444 26.6014212962963 13.527777777777779Q26.402101851851857 13.649486111111111 26.15868518518519 13.649486111111111ZM26.15868518518519 11.931458333333333Q25.95407407407408 11.931458333333333 25.786504629629633 12.035527777777778Q25.618935185185187 12.139597222222223 25.523685185185187 12.319513888888888Q25.42843518518519 12.499430555555556 25.42843518518519 12.725208333333335Q25.42843518518519 12.947458333333334 25.523685185185187 13.127375Q25.618935185185187 13.307291666666668 25.786504629629633 13.411361111111113Q25.95407407407408 13.515430555555556 26.15868518518519 13.515430555555556Q26.366824074074078 13.515430555555556 26.532629629629632 13.413125Q26.69843518518519 13.310819444444444 26.7919212962963 13.129138888888889Q26.88540740740741 12.947458333333334 26.88540740740741 12.725208333333335Q26.88540740740741 12.499430555555556 26.7919212962963 12.319513888888888Q26.69843518518519 12.139597222222223 26.532629629629632 12.035527777777778Q26.366824074074078 11.931458333333333 26.15868518518519 11.931458333333333ZM28.741018518518523 13.515430555555556Q28.755129629629632 13.533069444444445 28.755129629629632 13.55776388888889Q28.755129629629632 13.585986111111112 28.735726851851854 13.607152777777777Q28.716324074074077 13.628319444444445 28.688101851851854 13.628319444444445Q28.656351851851856 13.628319444444445 28.628129629629633 13.596569444444444L28.049574074074076 12.841625L27.467490740740743 13.600097222222223Q27.446324074074077 13.628319444444445 27.411046296296302 13.628319444444445Q27.38282407407408 13.628319444444445 27.363421296296302 13.610680555555557Q27.344018518518524 13.593041666666668 27.344018518518524 13.561291666666667Q27.344018518518524 13.536597222222223 27.358129629629634 13.518958333333334L27.964907407407413 12.73226388888889L27.351074074074077 11.931458333333333Q27.336962962962968 11.913819444444446 27.336962962962968 11.889125Q27.336962962962968 11.857375000000001 27.359893518518525 11.836208333333335Q27.38282407407408 11.815041666666668 27.411046296296302 11.815041666666668Q27.446324074074077 11.815041666666668 27.467490740740743 11.846791666666668L28.053101851851856 12.612319444444445L28.628129629629633 11.846791666666668Q28.656351851851856 11.815041666666668 28.688101851851854 11.815041666666668Q28.719851851851857 11.815041666666668 28.737490740740746 11.832680555555555Q28.755129629629632 11.850319444444445 28.755129629629632 11.875013888888889Q28.755129629629632 11.896180555555556 28.737490740740746 11.920875L28.137768518518524 12.725208333333335Z"/>
<rect x="3" y="10" width="25.9" height="4.73" style="fill:none;stroke:blue;stroke-width:0.1"/>
<path d="M3.1446388888888888 23.279069444444445Q3.1234722222222224 23.25790277777778 3.1234722222222224 23.226152777777777Q3.1234722222222224 23.197930555555555 3.1481666666666666 23.17147222222222Q3.172861111111111 23.14501388888889 3.2010833333333335 23.14501388888889Q3.2328333333333332 23.14501388888889 3.2610555555555556 23.17676388888889Q3.3986388888888888 23.339041666666667 3.5873749999999998 23.423708333333334Q3.776111111111111 23.508375 3.98425 23.508375Q4.255888888888888 23.508375 4.432277777777777 23.377847222222222Q4.608666666666666 23.247319444444447 4.608666666666666 23.032125Q4.605138888888889 22.862791666666666 4.516944444444444 22.753430555555553Q4.42875 22.644069444444444 4.299986111111111 22.578805555555554Q4.171222222222222 22.51354166666667 3.9489722222222223 22.432402777777778Q3.7055555555555557 22.340680555555558 3.569736111111111 22.270125Q3.4339166666666667 22.199569444444446 3.3369027777777776 22.069041666666667Q3.239888888888889 21.938513888888888 3.239888888888889 21.726847222222222Q3.239888888888889 21.55398611111111 3.335138888888889 21.412875Q3.430388888888889 21.27176388888889 3.606777777777778 21.190625Q3.783166666666667 21.10948611111111 4.016 21.10948611111111Q4.224138888888889 21.10948611111111 4.411111111111111 21.185333333333332Q4.598083333333333 21.261180555555555 4.7074444444444445 21.39876388888889Q4.7427222222222225 21.44815277777778 4.7427222222222225 21.47284722222222Q4.7427222222222225 21.501069444444447 4.716263888888889 21.524Q4.689805555555555 21.546930555555555 4.658055555555555 21.546930555555555Q4.629833333333333 21.546930555555555 4.6121944444444445 21.52576388888889Q4.513416666666666 21.39876388888889 4.358194444444444 21.324680555555556Q4.202972222222222 21.250597222222222 4.016 21.250597222222222Q3.747888888888889 21.250597222222222 3.569736111111111 21.37759722222222Q3.391583333333333 21.504597222222223 3.391583333333333 21.723319444444446Q3.391583333333333 21.87501388888889 3.4780138888888885 21.980847222222224Q3.5644444444444443 22.086680555555557 3.694972222222222 22.151944444444446Q3.8255 22.217208333333335 4.019527777777778 22.28776388888889Q4.266472222222222 22.375958333333333 4.411111111111111 22.450041666666667Q4.55575 22.524125 4.658055555555555 22.665236111111113Q4.760361111111111 22.80634722222222 4.760361111111111 23.039180555555557Q4.760361111111111 23.201458333333335 4.665111111111111 23.342569444444443Q4.569861111111111 23.483680555555555 4.391708333333334 23.566583333333334Q4.213555555555556 23.649486111111113 3.98425 23.649486111111113Q3.7231944444444443 23.649486111111113 3.529166666666667 23.55952777777778Q3.335138888888889 23.469569444444446 3.1446388888888888 23.279069444444445ZM6.919361111111112 21.211791666666667Q6.919361111111112 21.243541666666665 6.899958333333334 21.261180555555555Q6.880555555555556 21.278819444444444 6.848805555555556 21.278819444444444H6.062111111111111V23.54365277777778Q6.062111111111111 23.571875000000002 6.0409444444444444 23.593041666666668Q6.019777777777778 23.614208333333334 5.991555555555556 23.614208333333334Q5.9598055555555565 23.614208333333334 5.940402777777779 23.593041666666668Q5.921 23.571875000000002 5.921 23.54365277777778V21.278819444444444H5.134305555555556Q5.106083333333334 21.278819444444444 5.084916666666667 21.259416666666667Q5.063750000000001 21.24001388888889 5.063750000000001 21.211791666666667Q5.063750000000001 21.183569444444444 5.084916666666667 21.164166666666667Q5.106083333333334 21.14476388888889 5.134305555555556 21.14476388888889H6.848805555555556Q6.877027777777778 21.14476388888889 6.898194444444445 21.164166666666667Q6.919361111111112 21.183569444444444 6.919361111111112 21.211791666666667ZM7.469694444444445 23.614208333333334Q7.434416666666667 23.614208333333334 7.41501388888889 23.593041666666668Q7.395611111111112 23.571875000000002 7.395611111111112 23.540125V21.218847222222223Q7.395611111111112 21.187097222222224 7.416777777777779 21.165930555555555Q7.437944444444446 21.14476388888889 7.469694444444445 21.14476388888889Q7.501444444444445 21.14476388888889 7.522611111111112 21.165930555555555Q7.543777777777779 21.187097222222224 7.543777777777779 21.218847222222223V23.540125Q7.540250000000001 23.571875000000002 7.5190833333333345 23.593041666666668Q7.497916666666668 23.614208333333334 7.469694444444445 23.614208333333334ZM9.720416666666667 21.215319444444447Q9.720416666666667 21.247069444444445 9.69925 21.266472222222223Q9.678083333333333 21.285875 9.649861111111111 21.285875H8.390444444444446V22.259541666666667H9.491111111111111Q9.519333333333334 22.259541666666667 9.540500000000002 22.280708333333333Q9.561666666666667 22.301875 9.561666666666667 22.33009722222222Q9.561666666666667 22.361847222222224 9.540500000000002 22.38125Q9.519333333333334 22.40065277777778 9.491111111111111 22.40065277777778H8.390444444444446V23.54365277777778Q8.390444444444446 23.571875000000002 8.371041666666667 23.593041666666668Q8.351638888888889 23.614208333333334 8.31988888888889 23.614208333333334Q8.28813888888889 23.614208333333334 8.268736111111112 23.593041666666668Q8.249333333333334 23.571875000000002 8.249333333333334 23.54365277777778V21.215319444444447Q8.249333333333334 21.187097222222224 8.270500000000002 21.165930555555555Q8.291666666666668 21.14476388888889 8.31988888888889 21.14476388888889H9.649861111111111Q9.678083333333333 21.14476388888889 9.69925 21.165930555555555Q9.720416666666667 21.187097222222224 9.720416666666667 21.215319444444447ZM13.284648148148149 21.405819444444447Q13.284648148148149 21.434041666666666 13.270537037037037 21.451680555555555Q13.24937037037037 21.479902777777777 13.21762037037037 21.479902777777777Q13.20350925925926 21.479902777777777 13.175287037037037 21.465791666666668Q12.847203703703704 21.243541666666665 12.480314814814815 21.243541666666665Q12.183981481481482 21.243541666666665 11.935273148148148 21.389944444444446Q11.686564814814815 21.536347222222222 11.541925925925927 21.795638888888888Q11.397287037037037 22.054930555555558 11.397287037037037 22.379486111111113Q11.397287037037037 22.70404166666667 11.541925925925927 22.963333333333335Q11.686564814814815 23.222625 11.935273148148148 23.36902777777778Q12.183981481481482 23.515430555555557 12.480314814814815 23.515430555555557Q12.850731481481482 23.515430555555557 13.17175925925926 23.296708333333335Q13.189398148148149 23.282597222222222 13.214092592592593 23.282597222222222Q13.24937037037037 23.282597222222222 13.270537037037037 23.310819444444444Q13.284648148148149 23.328458333333334 13.284648148148149 23.35315277777778Q13.284648148148149 23.388430555555555 13.256425925925926 23.409597222222224Q13.118842592592593 23.508375 12.901884259259258 23.57893055555556Q12.684925925925926 23.649486111111113 12.480314814814815 23.649486111111113Q12.145175925925926 23.649486111111113 11.862953703703704 23.48368055555556Q11.580731481481482 23.317875 11.414925925925926 23.026833333333336Q11.24912037037037 22.735791666666668 11.24912037037037 22.379486111111113Q11.24912037037037 22.023180555555555 11.414925925925926 21.73213888888889Q11.580731481481482 21.441097222222222 11.862953703703704 21.275291666666668Q12.145175925925926 21.10948611111111 12.480314814814815 21.10948611111111Q12.69198148148148 21.10948611111111 12.891300925925925 21.17298611111111Q13.09062037037037 21.236486111111113 13.252898148148148 21.349375000000002Q13.284648148148149 21.374069444444444 13.284648148148149 21.405819444444447ZM15.577703703703703 21.215319444444447V22.739319444444444Q15.577703703703703 22.98626388888889 15.45423148148148 23.19440277777778Q15.330759259259258 23.402541666666668 15.12262037037037 23.52601388888889Q14.91448148148148 23.649486111111113 14.671064814814814 23.649486111111113Q14.42412037037037 23.649486111111113 14.215981481481482 23.52601388888889Q14.007842592592592 23.402541666666668 13.88437037037037 23.19440277777778Q13.760898148148147 22.98626388888889 13.760898148148147 22.739319444444444V21.215319444444447Q13.760898148148147 21.183569444444444 13.782064814814813 21.164166666666667Q13.80323148148148 21.14476388888889 13.83498148148148 21.14476388888889Q13.86673148148148 21.14476388888889 13.887898148148146 21.165930555555555Q13.909064814814814 21.187097222222224 13.909064814814814 21.215319444444447V22.739319444444444Q13.909064814814814 22.947458333333334 14.011370370370368 23.123847222222224Q14.113675925925925 23.30023611111111 14.288300925925924 23.404305555555556Q14.462925925925925 23.508375 14.671064814814814 23.508375Q14.879203703703702 23.508375 15.053828703703703 23.404305555555556Q15.228453703703703 23.30023611111111 15.332523148148148 23.123847222222224Q15.436592592592591 22.947458333333334 15.436592592592591 22.739319444444444V21.215319444444447Q15.436592592592591 21.187097222222224 15.455995370370369 21.165930555555555Q15.475398148148146 21.14476388888889 15.507148148148147 21.14476388888889Q15.538898148148148 21.14476388888889 15.558300925925925 21.165930555555555Q15.577703703703703 21.187097222222224 15.577703703703703 21.215319444444447ZM18.07889814814815 23.540125Q18.07889814814815 23.571875000000002 18.05949537037037 23.59127777777778Q18.040092592592593 23.610680555555557 18.01187037037037 23.610680555555557Q17.9907037037037 23.610680555555557 17.98012037037037 23.603625Q17.88487037037037 23.550708333333333 17.828425925925927 23.425472222222222Q17.771981481481482 23.30023611111111 17.771981481481482 23.01448611111111Q17.771981481481482 22.725208333333335 17.61675925925926 22.61761111111111Q17.461537037037036 22.51001388888889 17.256925925925927 22.51001388888889H16.431425925925925V23.54365277777778Q16.431425925925925 23.571875000000002 16.41025925925926 23.593041666666668Q16.389092592592593 23.614208333333334 16.35734259259259 23.614208333333334Q16.325592592592592 23.614208333333334 16.304425925925926 23.593041666666668Q16.283259259259257 23.571875000000002 16.283259259259257 23.54365277777778V21.215319444444447Q16.283259259259257 21.187097222222224 16.304425925925926 21.165930555555555Q16.325592592592592 21.14476388888889 16.353814814814815 21.14476388888889H17.285148148148146Q17.48975925925926 21.14476388888889 17.648509259259257 21.227666666666668Q17.807259259259258 21.310569444444447 17.8954537037037 21.455208333333335Q17.98364814814815 21.599847222222223 17.98364814814815 21.783291666666667Q17.98364814814815 22.01965277777778 17.858412037037034 22.188986111111113Q17.733175925925924 22.358319444444444 17.53209259259259 22.41829166666667Q17.701425925925925 22.471208333333333 17.810787037037038 22.628194444444446Q17.920148148148147 22.785180555555556 17.920148148148147 23.01448611111111Q17.920148148148147 23.250847222222223 17.950134259259258 23.344333333333335Q17.98012037037037 23.437819444444447 18.040092592592593 23.476625000000002Q18.07889814814815 23.501319444444444 18.07889814814815 23.540125ZM17.302787037037035 22.368902777777777Q17.525037037037038 22.34773611111111 17.68025925925926 22.19251388888889Q17.83548148148148 22.03729166666667 17.83548148148148 21.786819444444447Q17.83548148148148 21.56809722222222 17.68025925925926 21.426986111111113Q17.525037037037038 21.285875 17.26750925925926 21.285875H16.431425925925925V22.368902777777777ZM20.061509259259257 23.54365277777778Q20.061509259259257 23.57540277777778 20.04034259259259 23.594805555555556Q20.019175925925925 23.614208333333334 19.990953703703703 23.614208333333334H18.696259259259257Q18.66450925925926 23.614208333333334 18.64510648148148 23.593041666666668Q18.625703703703703 23.571875000000002 18.625703703703703 23.54365277777778V21.215319444444447Q18.625703703703703 21.187097222222224 18.64687037037037 21.165930555555555Q18.668037037037035 21.14476388888889 18.699787037037037 21.14476388888889Q18.731537037037036 21.14476388888889 18.752703703703702 21.165930555555555Q18.773870370370368 21.187097222222224 18.773870370370368 21.215319444444447V23.473097222222222H19.990953703703703Q20.019175925925925 23.473097222222222 20.04034259259259 23.494263888888888Q20.061509259259257 23.515430555555557 20.061509259259257 23.54365277777778ZM23.862101851851854 21.215319444444447V23.54365277777778Q23.862101851851854 23.571875000000002 23.8391712962963 23.593041666666668Q23.816240740740742 23.614208333333334 23.78801851851852 23.614208333333334Q23.756268518518517 23.614208333333334 23.73510185185185 23.593041666666668Q23.713935185185186 23.571875000000002 23.713935185185186 23.54365277777778V21.434041666666666L22.80376851851852 22.809875Q22.78612962962963 22.838097222222224 22.75437962962963 22.838097222222224Q22.715574074074073 22.838097222222224 22.697935185185187 22.809875L21.784240740740742 21.43051388888889V23.54365277777778Q21.784240740740742 23.571875000000002 21.763074074074076 23.593041666666668Q21.741907407407407 23.614208333333334 21.713685185185184 23.614208333333334Q21.681935185185186 23.614208333333334 21.662532407407408 23.593041666666668Q21.64312962962963 23.571875000000002 21.64312962962963 23.54365277777778V21.215319444444447Q21.64312962962963 21.190625 21.662532407407408 21.167694444444443Q21.681935185185186 21.14476388888889 21.710157407407408 21.14476388888889Q21.75601851851852 21.14476388888889 21.777185185185186 21.17651388888889L22.75437962962963 22.629958333333335L23.731574074074075 21.17651388888889Q23.759796296296297 21.137708333333332 23.798601851851853 21.14476388888889Q23.826824074074075 21.148291666666665 23.844462962962965 21.167694444444443Q23.862101851851854 21.187097222222224 23.862101851851854 21.215319444444447ZM26.380935185185184 23.547180555555556Q26.380935185185184 23.578930555555555 26.359768518518518 23.596569444444444Q26.338601851851852 23.614208333333334 26.30685185185185 23.614208333333334Q26.282157407407407 23.614208333333334 26.26275462962963 23.601861111111113Q26.243351851851852 23.589513888888888 26.236296296296295 23.568347222222222L25.939962962962962 22.841625L25.94349074074074 22.848680555555557H24.761685185185183L24.475935185185183 23.568347222222222Q24.458296296296297 23.614208333333334 24.412435185185185 23.614208333333334Q24.380685185185182 23.614208333333334 24.361282407407405 23.596569444444444Q24.341879629629627 23.578930555555555 24.33835185185185 23.554236111111113Q24.334824074074074 23.540125 24.341879629629627 23.518958333333334L25.29085185185185 21.183569444444444Q25.301435185185184 21.155347222222222 25.317310185185185 21.146527777777777Q25.333185185185183 21.137708333333332 25.35787962962963 21.137708333333332Q25.410796296296294 21.137708333333332 25.428435185185183 21.183569444444444L26.377407407407407 23.518958333333334Q26.380935185185184 23.529541666666667 26.380935185185184 23.547180555555556ZM24.818129629629627 22.707569444444445H25.887046296296294L25.347296296296296 21.377597222222224ZM26.649046296296294 23.279069444444445Q26.62787962962963 23.25790277777778 26.62787962962963 23.226152777777777Q26.62787962962963 23.197930555555555 26.652574074074074 23.17147222222222Q26.677268518518517 23.14501388888889 26.70549074074074 23.14501388888889Q26.737240740740738 23.14501388888889 26.76546296296296 23.17676388888889Q26.903046296296296 23.339041666666667 27.091782407407408 23.423708333333334Q27.280518518518516 23.508375 27.488657407407405 23.508375Q27.760296296296296 23.508375 27.936685185185183 23.377847222222222Q28.113074074074074 23.247319444444447 28.113074074074074 23.032125Q28.109546296296294 22.862791666666666 28.02135185185185 22.753430555555553Q27.933157407407407 22.644069444444444 27.804393518518516 22.578805555555554Q27.67562962962963 22.51354166666667 27.453379629629627 22.432402777777778Q27.209962962962962 22.340680555555558 27.074143518518518 22.270125Q26.93832407407407 22.199569444444446 26.841310185185183 22.069041666666667Q26.744296296296294 21.938513888888888 26.744296296296294 21.726847222222222Q26.744296296296294 21.55398611111111 26.839546296296295 21.412875Q26.934796296296295 21.27176388888889 27.111185185185185 21.190625Q27.287574074074072 21.10948611111111 27.520407407407404 21.10948611111111Q27.728546296296294 21.10948611111111 27.915518518518518 21.185333333333332Q28.10249074074074 21.261180555555555 28.21185185185185 21.39876388888889Q28.24712962962963 21.44815277777778 28.24712962962963 21.47284722222222Q28.24712962962963 21.501069444444447 28.220671296296295 21.524Q28.19421296296296 21.546930555555555 28.162462962962962 21.546930555555555Q28.13424074074074 21.546930555555555 28.11660185185185 21.52576388888889Q28.017824074074074 21.39876388888889 27.86260185185185 21.324680555555556Q27.707379629629628 21.250597222222222 27.520407407407404 21.250597222222222Q27.252296296296294 21.250597222222222 27.074143518518518 21.37759722222222Q26.89599074074074 21.504597222222223 26.89599074074074 21.723319444444446Q26.89599074074074 21.87501388888889 26.982421296296295 21.980847222222224Q27.06885185185185 22.086680555555557 27.19937962962963 22.151944444444446Q27.329907407407408 22.217208333333335 27.523935185185184 22.28776388888889Q27.77087962962963 22.375958333333333 27.915518518518518 22.450041666666667Q28.060157407407406 22.524125 28.162462962962962 22.665236111111113Q28.264768518518515 22.80634722222222 28.264768518518515 23.039180555555557Q28.264768518518515 23.201458333333335 28.169518518518515 23.342569444444443Q28.07426851851852 23.483680555555555 27.89611574074074 23.566583333333334Q27.71796296296296 23.649486111111113 27.488657407407405 23.649486111111113Q27.22760185185185 23.649486111111113 27.033574074074075 23.55952777777778Q26.839546296296295 23.469569444444446 26.649046296296294 23.279069444444445ZM28.58932407407407 23.279069444444445Q28.568157407407405 23.25790277777778 28.568157407407405 23.226152777777777Q28.568157407407405 23.197930555555555 28.592851851851847 23.17147222222222Q28.617546296296293 23.14501388888889 28.645768518518516 23.14501388888889Q28.677518518518514 23.14501388888889 28.705740740740737 23.17676388888889Q28.843324074074072 23.339041666666667 29.03206018518518 23.423708333333334Q29.220796296296292 23.508375 29.428935185185182 23.508375Q29.700574074074073 23.508375 29.876962962962963 23.377847222222222Q30.05335185185185 23.247319444444447 30.05335185185185 23.032125Q30.04982407407407 22.862791666666666 29.961629629629627 22.753430555555553Q29.873435185185183 22.644069444444444 29.744671296296296 22.578805555555554Q29.615907407407406 22.51354166666667 29.393657407407403 22.432402777777778Q29.15024074074074 22.340680555555558 29.01442129629629 22.270125Q28.878601851851847 22.199569444444446 28.78158796296296 22.069041666666667Q28.68457407407407 21.938513888888888 28.68457407407407 21.726847222222222Q28.68457407407407 21.55398611111111 28.77982407407407 21.412875Q28.87507407407407 21.27176388888889 29.051462962962958 21.190625Q29.22785185185185 21.10948611111111 29.460685185185184 21.10948611111111Q29.66882407407407 21.10948611111111 29.85579629629629 21.185333333333332Q30.042768518518514 21.261180555555555 30.152129629629627 21.39876388888889Q30.187407407407406 21.44815277777778 30.187407407407406 21.47284722222222Q30.187407407407406 21.501069444444447 30.16094907407407 21.524Q30.134490740740738 21.546930555555555 30.10274074074074 21.546930555555555Q30.074518518518516 21.546930555555555 30.056879629629627 21.52576388888889Q29.95810185185185 21.39876388888889 29.80287962962963 21.324680555555556Q29.647657407407404 21.250597222222222 29.460685185185184 21.250597222222222Q29.19257407407407 21.250597222222222 29.01442129629629 21.37759722222222Q28.836268518518516 21.504597222222223 28.836268518518516 21.723319444444446Q28.836268518518516 21.87501388888889 28.92269907407407 21.980847222222224Q29.009129629629626 22.086680555555557 29.139657407407405 22.151944444444446Q29.270185185185184 22.217208333333335 29.46421296296296 22.28776388888889Q29.711157407407406 22.375958333333333 29.855796296296294 22.450041666666667Q30.000435185185182 22.524125 30.10274074074074 22.665236111111113Q30.205046296296295 22.80634722222222 30.205046296296295 23.039180555555557Q30.205046296296295 23.201458333333335 30.109796296296295 23.342569444444443Q30.014546296296295 23.483680555555555 29.836393518518516 23.566583333333334Q29.658240740740737 23.649486111111113 29.428935185185182 23.649486111111113Q29.167879629629628 23.649486111111113 28.973851851851848 23.55952777777778Q28.77982407407407 23.469569444444446 28.58932407407407 23.279069444444445Z"/>
<rect x="3" y="20" width="27.4" height="4.73" style="fill:none;stroke:blue;stroke-width:0.1"/>
</g>
</svg>
